<?xml version="1.0" encoding="UTF-8"?>
<!DOCTYPE svg PUBLIC "-//W3C//DTD SVG 1.1//EN" "http://www.w3.org/Graphics/SVG/1.1/DTD/svg11.dtd">
<svg xmlns="http://www.w3.org/2000/svg" version="1.1" width="180px" height="207px" style="shape-rendering:geometricPrecision; text-rendering:geometricPrecision; image-rendering:optimizeQuality; fill-rule:evenodd; clip-rule:evenodd" xmlns:xlink="http://www.w3.org/1999/xlink">
<g><path style="opacity:1" fill="#1e1c1d" d="M 84.5,-0.5 C 90.5,-0.5 96.5,-0.5 102.5,-0.5C 107.64,0.702678 112.64,2.36934 117.5,4.5C 114.42,4.25231 111.42,3.58564 108.5,2.5C 106.7,2.90244 105.033,3.56911 103.5,4.5C 101.5,4.83333 99.5,5.16667 97.5,5.5C 97.719,6.67504 97.3857,7.67504 96.5,8.5C 94.2777,7.22167 91.9443,6.22167 89.5,5.5C 86.7525,7.29129 83.7525,7.79129 80.5,7C 79.364,5.47021 78.364,4.13687 77.5,3C 79.5463,1.15769 81.8797,-0.00897626 84.5,-0.5 Z"/></g>
<g><path style="opacity:0.989" fill="#1b1a1a" d="M 76.5,-0.5 C 79.1667,-0.5 81.8333,-0.5 84.5,-0.5C 81.8797,-0.00897626 79.5463,1.15769 77.5,3C 78.364,4.13687 79.364,5.47021 80.5,7C 83.7525,7.79129 86.7525,7.29129 89.5,5.5C 91.9443,6.22167 94.2777,7.22167 96.5,8.5C 97.3857,7.67504 97.719,6.67504 97.5,5.5C 99.5,5.16667 101.5,4.83333 103.5,4.5C 103.082,5.22158 102.416,5.72158 101.5,6C 102.667,6.5 103.5,7.33333 104,8.5C 104.333,7.5 104.667,6.5 105,5.5C 105.216,7.38389 105.883,9.05056 107,10.5C 108.914,9.32402 108.748,8.32402 106.5,7.5C 106.808,6.69194 107.308,6.02527 108,5.5C 109.307,6.77167 110.807,7.77167 112.5,8.5C 111.092,9.24325 109.759,10.0766 108.5,11C 109.449,11.6172 110.282,11.4506 111,10.5C 113.988,12.3991 116.821,14.3991 119.5,16.5C 96.4483,6.16995 74.1149,7.50328 52.5,20.5C 55.5863,17.7774 58.9196,15.2774 62.5,13C 56.1635,12.1632 56.4968,11.4966 63.5,11C 66.2385,9.68841 67.5718,7.52175 67.5,4.5C 65.2341,4.14118 63.4007,4.80784 62,6.5C 61.3292,5.74756 60.4959,5.41423 59.5,5.5C 64.9127,2.73172 70.5794,0.731718 76.5,-0.5 Z"/></g>
<g><path style="opacity:1" fill="#1e1d1e" d="M 117.5,4.5 C 120.485,5.32567 123.151,6.659 125.5,8.5C 126.252,10.1003 127.252,11.6003 128.5,13C 127.833,13.3333 127.167,13.6667 126.5,14C 127.833,14.6667 127.833,15.3333 126.5,16C 127.784,16.6838 128.951,16.5171 130,15.5C 133.089,17.9486 133.089,20.2819 130,22.5C 128.513,21.7471 128.346,20.9138 129.5,20C 127.866,19.5065 126.199,19.3398 124.5,19.5C 122.632,18.7368 120.965,17.7368 119.5,16.5C 116.821,14.3991 113.988,12.3991 111,10.5C 110.282,11.4506 109.449,11.6172 108.5,11C 109.759,10.0766 111.092,9.24325 112.5,8.5C 110.807,7.77167 109.307,6.77167 108,5.5C 107.308,6.02527 106.808,6.69194 106.5,7.5C 108.748,8.32402 108.914,9.32402 107,10.5C 105.883,9.05056 105.216,7.38389 105,5.5C 104.667,6.5 104.333,7.5 104,8.5C 103.5,7.33333 102.667,6.5 101.5,6C 102.416,5.72158 103.082,5.22158 103.5,4.5C 105.033,3.56911 106.7,2.90244 108.5,2.5C 111.42,3.58564 114.42,4.25231 117.5,4.5 Z"/></g>
<g><path style="opacity:1" fill="#1e1d1d" d="M 52.5,20.5 C 48.599,20.6118 45.9323,22.4451 44.5,26C 38.1096,28.4175 37.1096,27.0842 41.5,22C 40.5509,21.3828 39.7175,21.5494 39,22.5C 38.2046,19.6168 39.3713,18.1168 42.5,18C 43.3862,16.3853 44.3862,14.8853 45.5,13.5C 49.5067,9.8255 54.1734,7.15884 59.5,5.5C 60.4959,5.41423 61.3292,5.74756 62,6.5C 63.4007,4.80784 65.2341,4.14118 67.5,4.5C 67.5718,7.52175 66.2385,9.68841 63.5,11C 56.4968,11.4966 56.1635,12.1632 62.5,13C 58.9196,15.2774 55.5863,17.7774 52.5,20.5 Z"/></g>
<g><path style="opacity:0.998" fill="#1b1a1a" d="M 125.5,8.5 C 137.388,13.7218 146.388,22.0551 152.5,33.5C 149.048,33.5517 146.881,31.885 146,28.5C 145.097,29.7014 143.931,30.5348 142.5,31C 146.203,33.8928 147.87,37.7261 147.5,42.5C 150.487,42.4223 151.153,43.589 149.5,46C 150.871,48.3187 151.538,50.8187 151.5,53.5C 148.564,46.9709 145.064,40.6375 141,34.5C 135.903,28.8955 130.403,23.8955 124.5,19.5C 126.199,19.3398 127.866,19.5065 129.5,20C 128.346,20.9138 128.513,21.7471 130,22.5C 133.089,20.2819 133.089,17.9486 130,15.5C 128.951,16.5171 127.784,16.6838 126.5,16C 127.833,15.3333 127.833,14.6667 126.5,14C 127.167,13.6667 127.833,13.3333 128.5,13C 127.252,11.6003 126.252,10.1003 125.5,8.5 Z"/></g>
<g><path style="opacity:1" fill="#dea74f" d="M 102.5,37.5 C 99.2586,38.9218 96.092,38.5885 93,36.5C 90.8151,37.7585 88.6484,37.7585 86.5,36.5C 84.8071,39.0122 82.4738,40.5122 79.5,41C 81.5,41.3333 83.5,41.6667 85.5,42C 86.056,42.3826 86.3893,42.8826 86.5,43.5C 86.1667,43.5 85.8333,43.5 85.5,43.5C 84.4168,43.4606 83.4168,43.1272 82.5,42.5C 77.4918,43.8366 72.4918,45.17 67.5,46.5C 63.3826,46.8627 59.3826,46.8627 55.5,46.5C 55.4257,44.5891 54.4257,43.4224 52.5,43C 53.056,42.6174 53.3893,42.1174 53.5,41.5C 53.8333,41.5 54.1667,41.5 54.5,41.5C 55.9221,41.7496 56.9221,42.583 57.5,44C 60.5,44.6667 63.5,44.6667 66.5,44C 67.9423,43.6232 68.9423,42.7899 69.5,41.5C 73.5128,39.1673 77.8461,37.334 82.5,36C 83.3333,35.1667 84.1667,34.3333 85,33.5C 85.3333,30.5 85.6667,27.5 86,24.5C 88,21.8333 90,21.8333 92,24.5C 91.0412,32.6899 94.5412,37.0232 102.5,37.5 Z"/></g>
<g><path style="opacity:1" fill="#1c1b1c" d="M 45.5,13.5 C 44.3862,14.8853 43.3862,16.3853 42.5,18C 39.3713,18.1168 38.2046,19.6168 39,22.5C 39.7175,21.5494 40.5509,21.3828 41.5,22C 37.1096,27.0842 38.1096,28.4175 44.5,26C 45.9323,22.4451 48.599,20.6118 52.5,20.5C 37.4023,31.9274 28.069,46.9274 24.5,65.5C 23.8485,64.9094 23.1818,64.2427 22.5,63.5C 21.8333,60.5 21.1667,57.5 20.5,54.5C 20.5008,57.2337 20.3342,60.2337 20,63.5C 19,56.8333 18,56.8333 17,63.5C 16.7208,59.8297 16.8875,56.163 17.5,52.5C 21.3617,39.1278 28.3617,27.6278 38.5,18C 40.7343,16.2502 43.0676,14.7502 45.5,13.5 Z"/></g>
<g><path style="opacity:0.741" fill="#d7a85d" d="M 69.5,41.5 C 68.9423,42.7899 67.9423,43.6232 66.5,44C 63.5,44.6667 60.5,44.6667 57.5,44C 56.9221,42.583 55.9221,41.7496 54.5,41.5C 54.762,40.0222 54.4287,38.6888 53.5,37.5C 52.3744,38.8084 52.3744,40.1417 53.5,41.5C 53.3893,42.1174 53.056,42.6174 52.5,43C 54.4257,43.4224 55.4257,44.5891 55.5,46.5C 52.2586,53.5517 49.5919,60.885 47.5,68.5C 44.7502,69.0487 43.0835,70.7154 42.5,73.5C 41.0384,72.5423 39.7051,71.3756 38.5,70C 40.0806,69.2935 41.5806,68.4601 43,67.5C 46.0376,59.9272 49.2043,52.4272 52.5,45C 49.1654,42.3214 48.6654,39.1547 51,35.5C 52.7261,34.4238 54.5594,34.2571 56.5,35C 55.8695,37.8155 56.5362,40.4822 58.5,43C 62.3101,43.5873 65.9768,43.0873 69.5,41.5 Z M 54.5,41.5 C 54.1667,41.5 53.8333,41.5 53.5,41.5C 52.3744,40.1417 52.3744,38.8084 53.5,37.5C 54.4287,38.6888 54.762,40.0222 54.5,41.5 Z"/></g>
<g><path style="opacity:1" fill="#1d1b1c" d="M 152.5,33.5 C 157.799,39.8548 161.299,47.1881 163,55.5C 166.004,66.6135 166.171,77.6135 163.5,88.5C 162.948,86.6693 162.948,85.0026 163.5,83.5C 162.975,82.8076 162.308,82.3076 161.5,82C 162.667,81.5 163.5,80.6667 164,79.5C 164.667,76.1667 164.667,72.8333 164,69.5C 163.5,68.3333 162.667,67.5 161.5,67C 163.497,65.8469 163.83,64.3469 162.5,62.5C 161.11,64.2029 159.61,64.8696 158,64.5C 157.085,63.6721 156.419,62.6721 156,61.5C 155.814,64.0356 155.314,66.369 154.5,68.5C 153.628,63.4728 152.628,58.4728 151.5,53.5C 151.538,50.8187 150.871,48.3187 149.5,46C 151.153,43.589 150.487,42.4223 147.5,42.5C 147.87,37.7261 146.203,33.8928 142.5,31C 143.931,30.5348 145.097,29.7014 146,28.5C 146.881,31.885 149.048,33.5517 152.5,33.5 Z"/></g>
<g><path style="opacity:1" fill="#dfa84c" d="M 102.5,37.5 C 107.44,40.4808 112.773,42.4808 118.5,43.5C 120.114,43.1971 121.448,42.5305 122.5,41.5C 123.5,41.5 124.5,41.5 125.5,41.5C 125.833,41.5 126.167,41.5 126.5,41.5C 126.657,42.8734 126.49,44.2068 126,45.5C 123.625,46.129 121.459,47.129 119.5,48.5C 111.912,46.6851 104.246,44.6851 96.5,42.5C 93.6857,42.981 92.3524,44.6477 92.5,47.5C 91.6681,67.6625 91.1681,87.9959 91,108.5C 90.2904,109.973 89.1238,110.64 87.5,110.5C 86.5659,88.186 86.2326,65.8527 86.5,43.5C 86.3893,42.8826 86.056,42.3826 85.5,42C 83.5,41.6667 81.5,41.3333 79.5,41C 82.4738,40.5122 84.8071,39.0122 86.5,36.5C 88.6484,37.7585 90.8151,37.7585 93,36.5C 96.092,38.5885 99.2586,38.9218 102.5,37.5 Z"/></g>
<g><path style="opacity:1" fill="#d5a85d" d="M 134.5,65.5 C 133.069,64.0975 131.902,62.4308 131,60.5C 130.51,61.7932 130.343,63.1266 130.5,64.5C 128.378,59.3844 126.544,54.051 125,48.5C 124,47.1667 123,47.1667 122,48.5C 119.726,55.1534 117.56,61.8201 115.5,68.5C 114.857,66.9236 113.857,65.5903 112.5,64.5C 114.322,58.8641 116.655,53.5307 119.5,48.5C 121.459,47.129 123.625,46.129 126,45.5C 126.49,44.2068 126.657,42.8734 126.5,41.5C 127.935,40.0152 127.768,38.6819 126,37.5C 124.489,38.564 124.323,39.8974 125.5,41.5C 124.5,41.5 123.5,41.5 122.5,41.5C 122.244,39.2075 122.577,37.0408 123.5,35C 127.421,34.2352 129.755,35.9019 130.5,40C 129.756,42.1551 128.756,44.1551 127.5,46C 130.337,52.3451 132.67,58.8451 134.5,65.5 Z M 126.5,41.5 C 126.167,41.5 125.833,41.5 125.5,41.5C 124.323,39.8974 124.489,38.564 126,37.5C 127.768,38.6819 127.935,40.0152 126.5,41.5 Z"/></g>
<g><path style="opacity:1" fill="#1b1a1b" d="M 17.5,52.5 C 16.8875,56.163 16.7208,59.8297 17,63.5C 18,56.8333 19,56.8333 20,63.5C 20.3342,60.2337 20.5008,57.2337 20.5,54.5C 21.1667,57.5 21.8333,60.5 22.5,63.5C 23.1818,64.2427 23.8485,64.9094 24.5,65.5C 24.0189,75.6672 25.0189,85.6672 27.5,95.5C 25.8211,95.1077 24.1545,94.6077 22.5,94C 23.624,93.7508 24.624,93.2508 25.5,92.5C 23.8155,89.7052 22.6488,86.7052 22,83.5C 21.0255,85.8776 20.3589,85.5443 20,82.5C 19.6287,85.9426 18.462,88.2759 16.5,89.5C 16.7606,92.2918 17.7606,94.6251 19.5,96.5C 19.6267,98.9401 19.96,101.607 20.5,104.5C 13.8663,90.2143 12.033,75.2143 15,59.5C 15.3903,56.8958 16.2237,54.5625 17.5,52.5 Z"/></g>
<g><path style="opacity:1" fill="#ddab50" d="M 55.5,46.5 C 59.3826,46.8627 63.3826,46.8627 67.5,46.5C 65.3926,47.4682 63.0593,47.8016 60.5,47.5C 62.6734,54.0223 65.0068,60.5223 67.5,67C 68.444,68.4768 69.7774,69.4768 71.5,70C 62.703,79.7729 53.0364,80.9396 42.5,73.5C 43.0835,70.7154 44.7502,69.0487 47.5,68.5C 52.5,68.5 57.5,68.5 62.5,68.5C 60.9647,60.8949 58.6314,53.5615 55.5,46.5 Z"/></g>
<g><path style="opacity:1" fill="#e0ad4d" d="M 134.5,65.5 C 135.646,67.475 137.313,68.975 139.5,70C 133.318,78.1683 125.318,80.5016 115.5,77C 111.957,75.3917 108.957,73.0584 106.5,70C 109.691,69.2726 111.691,67.4393 112.5,64.5C 113.857,65.5903 114.857,66.9236 115.5,68.5C 120.844,68.666 126.177,68.4994 131.5,68C 130.663,66.9887 130.33,65.8221 130.5,64.5C 130.343,63.1266 130.51,61.7932 131,60.5C 131.902,62.4308 133.069,64.0975 134.5,65.5 Z"/></g>
<g><path style="opacity:1" fill="#201e1f" d="M 163.5,88.5 C 162.521,87.2347 161.521,85.9014 160.5,84.5C 159.032,86.5317 157.365,86.365 155.5,84C 156.167,83.6667 156.833,83.3333 157.5,83C 155.904,78.6217 154.904,74.1217 154.5,69.5C 154.5,69.1667 154.5,68.8333 154.5,68.5C 155.314,66.369 155.814,64.0356 156,61.5C 156.419,62.6721 157.085,63.6721 158,64.5C 159.61,64.8696 161.11,64.2029 162.5,62.5C 163.83,64.3469 163.497,65.8469 161.5,67C 162.667,67.5 163.5,68.3333 164,69.5C 164.667,72.8333 164.667,76.1667 164,79.5C 163.5,80.6667 162.667,81.5 161.5,82C 162.308,82.3076 162.975,82.8076 163.5,83.5C 162.948,85.0026 162.948,86.6693 163.5,88.5 Z"/></g>
<g><path style="opacity:1" fill="#1d1c1c" d="M 27.5,95.5 C 30.724,102.948 34.724,109.948 39.5,116.5C 37.8941,115.641 36.2275,115.474 34.5,116C 34.8333,115.667 35.1667,115.333 35.5,115C 33.8116,113.312 32.1449,111.645 30.5,110C 31.2323,106.27 30.0656,103.103 27,100.5C 26.0853,101.328 25.4186,102.328 25,103.5C 23.5886,101.35 22.7553,99.0163 22.5,96.5C 21.5,96.5 20.5,96.5 19.5,96.5C 17.7606,94.6251 16.7606,92.2918 16.5,89.5C 18.462,88.2759 19.6287,85.9426 20,82.5C 20.3589,85.5443 21.0255,85.8776 22,83.5C 22.6488,86.7052 23.8155,89.7052 25.5,92.5C 24.624,93.2508 23.624,93.7508 22.5,94C 24.1545,94.6077 25.8211,95.1077 27.5,95.5 Z"/></g>
<g><path style="opacity:0.379" fill="#d3a969" d="M 85.5,43.5 C 85.8333,43.5 86.1667,43.5 86.5,43.5C 86.2326,65.8527 86.5659,88.186 87.5,110.5C 89.1238,110.64 90.2904,109.973 91,108.5C 91.1681,87.9959 91.6681,67.6625 92.5,47.5C 92.5,68.1667 92.5,88.8333 92.5,109.5C 91.2641,113.136 89.2641,113.803 86.5,111.5C 85.5713,110.311 85.238,108.978 85.5,107.5C 85.5,86.1667 85.5,64.8333 85.5,43.5 Z"/></g>
<g><path style="opacity:1" fill="#1c1a1b" d="M 154.5,69.5 C 154.904,74.1217 155.904,78.6217 157.5,83C 156.833,83.3333 156.167,83.6667 155.5,84C 157.365,86.365 159.032,86.5317 160.5,84.5C 161.521,85.9014 162.521,87.2347 163.5,88.5C 161.785,100.256 157.119,110.589 149.5,119.5C 151.077,117.198 150.411,115.698 147.5,115C 148.623,113.956 149.956,113.29 151.5,113C 149.351,111.848 147.518,110.348 146,108.5C 144.389,112.275 141.889,115.275 138.5,117.5C 149.997,103.675 155.331,87.6745 154.5,69.5 Z"/></g>
<g><path style="opacity:1" fill="#1f1e1e" d="M 19.5,96.5 C 20.5,96.5 21.5,96.5 22.5,96.5C 22.7553,99.0163 23.5886,101.35 25,103.5C 25.4186,102.328 26.0853,101.328 27,100.5C 30.0656,103.103 31.2323,106.27 30.5,110C 32.1449,111.645 33.8116,113.312 35.5,115C 35.1667,115.333 34.8333,115.667 34.5,116C 36.2275,115.474 37.8941,115.641 39.5,116.5C 39.5106,118.017 40.1772,119.184 41.5,120C 39.9386,120.941 38.6053,122.108 37.5,123.5C 38.09,124.799 39.09,125.632 40.5,126C 38.0566,127.959 36.3899,127.292 35.5,124C 35.8333,123 36.1667,122 36.5,121C 35.1667,121.333 33.8333,121.667 32.5,122C 29.3596,118.188 26.3596,114.355 23.5,110.5C 21.9925,108.819 20.9925,106.819 20.5,104.5C 19.96,101.607 19.6267,98.9401 19.5,96.5 Z"/></g>
<g><path style="opacity:1" fill="#1d1b1c" d="M 84.5,107.5 C 84.2786,110.279 84.612,112.946 85.5,115.5C 84.8333,115.5 84.5,115.833 84.5,116.5C 82.9719,116.517 82.4719,117.184 83,118.5C 84.6171,119.851 85.7838,121.518 86.5,123.5C 90.3548,125.007 90.0214,125.674 85.5,125.5C 75.8474,120.671 65.6808,117.338 55,115.5C 52.1187,116.028 49.2854,116.694 46.5,117.5C 48.5833,111.41 52.9167,107.577 59.5,106C 67.9664,104.281 76.2997,104.781 84.5,107.5 Z"/></g>
<g><path style="opacity:1" fill="#191819" d="M 94.5,110.5 C 102.105,112.484 109.772,114.318 117.5,116C 123.673,117.169 129.507,116.336 135,113.5C 135.692,114.025 136.192,114.692 136.5,115.5C 132.674,121.496 127.174,124.163 120,123.5C 110.398,122.971 101.232,120.971 92.5,117.5C 93.675,117.719 94.675,117.386 95.5,116.5C 93.4476,114.613 93.1142,112.613 94.5,110.5 Z"/></g>
<g><path style="opacity:1" fill="#1a191a" d="M 23.5,110.5 C 26.3596,114.355 29.3596,118.188 32.5,122C 33.8333,121.667 35.1667,121.333 36.5,121C 36.1667,122 35.8333,123 35.5,124C 36.3899,127.292 38.0566,127.959 40.5,126C 39.09,125.632 38.09,124.799 37.5,123.5C 38.6053,122.108 39.9386,120.941 41.5,120C 40.1772,119.184 39.5106,118.017 39.5,116.5C 43.5259,120.195 47.5259,123.862 51.5,127.5C 49.1396,125.989 46.6396,124.656 44,123.5C 43.5,124 43,124.5 42.5,125C 43.7932,125.49 45.1266,125.657 46.5,125.5C 46.33,126.822 46.6634,127.989 47.5,129C 46.5,129.333 45.5,129.667 44.5,130C 46.348,131.518 47.848,133.351 49,135.5C 49.3333,134.833 49.6667,134.167 50,133.5C 51.0363,135.299 51.2029,136.966 50.5,138.5C 38.7819,131.782 29.7819,122.449 23.5,110.5 Z"/></g>
<g><path style="opacity:1" fill="#1c1a18" d="M 84.5,107.5 C 84.8333,107.5 85.1667,107.5 85.5,107.5C 85.238,108.978 85.5713,110.311 86.5,111.5C 89.2641,113.803 91.2641,113.136 92.5,109.5C 93.4916,109.328 94.1583,109.662 94.5,110.5C 93.1142,112.613 93.4476,114.613 95.5,116.5C 94.675,117.386 93.675,117.719 92.5,117.5C 90.4884,116.986 88.4884,116.82 86.5,117C 88.9252,118.213 91.2585,119.379 93.5,120.5C 93.5,120.833 93.5,121.167 93.5,121.5C 92.9569,121.56 92.6236,121.893 92.5,122.5C 93.7113,123.874 94.7113,125.374 95.5,127C 95.3552,127.772 95.0219,128.439 94.5,129C 97.9624,128.412 100.296,129.912 101.5,133.5C 95.8489,131.341 90.5156,128.674 85.5,125.5C 90.0214,125.674 90.3548,125.007 86.5,123.5C 85.7838,121.518 84.6171,119.851 83,118.5C 82.4719,117.184 82.9719,116.517 84.5,116.5C 85.1667,116.5 85.5,116.167 85.5,115.5C 84.612,112.946 84.2786,110.279 84.5,107.5 Z"/></g>
<g><path style="opacity:1" fill="#1f1d1e" d="M 149.5,119.5 C 145.909,123.92 141.743,127.92 137,131.5C 135.942,128.628 134.442,126.628 132.5,125.5C 133.18,124.14 133.847,122.807 134.5,121.5C 135.5,119.833 136.833,118.5 138.5,117.5C 141.889,115.275 144.389,112.275 146,108.5C 147.518,110.348 149.351,111.848 151.5,113C 149.956,113.29 148.623,113.956 147.5,115C 150.411,115.698 151.077,117.198 149.5,119.5 Z"/></g>
<g><path style="opacity:1" fill="#191718" d="M 149.5,119.5 C 140.75,134.205 127.75,140.372 110.5,138C 107.16,136.997 104.16,135.497 101.5,133.5C 106.5,135.827 111.834,137.16 117.5,137.5C 120.876,137.812 123.876,136.978 126.5,135C 123.049,134.654 120.216,133.154 118,130.5C 117.127,130.735 116.293,131.069 115.5,131.5C 114.636,129.803 113.303,128.637 111.5,128C 107.346,127.337 103.346,126.171 99.5,124.5C 98.5581,124.608 97.7247,124.941 97,125.5C 96.34,123.676 95.1733,122.343 93.5,121.5C 93.5,121.167 93.5,120.833 93.5,120.5C 101.278,124.148 109.445,126.481 118,127.5C 120.925,127.477 123.759,126.977 126.5,126C 129.329,124.644 131.996,123.144 134.5,121.5C 133.847,122.807 133.18,124.14 132.5,125.5C 134.442,126.628 135.942,128.628 137,131.5C 141.743,127.92 145.909,123.92 149.5,119.5 Z"/></g>
<g><path style="opacity:1" fill="#1f1e1f" d="M 93.5,121.5 C 95.1733,122.343 96.34,123.676 97,125.5C 97.7247,124.941 98.5581,124.608 99.5,124.5C 103.346,126.171 107.346,127.337 111.5,128C 113.303,128.637 114.636,129.803 115.5,131.5C 116.293,131.069 117.127,130.735 118,130.5C 120.216,133.154 123.049,134.654 126.5,135C 123.876,136.978 120.876,137.812 117.5,137.5C 111.834,137.16 106.5,135.827 101.5,133.5C 100.296,129.912 97.9624,128.412 94.5,129C 95.0219,128.439 95.3552,127.772 95.5,127C 94.7113,125.374 93.7113,123.874 92.5,122.5C 92.6236,121.893 92.9569,121.56 93.5,121.5 Z"/></g>
<g><path style="opacity:1" fill="#1c1b1c" d="M 51.5,127.5 C 66.9202,137.191 83.5869,140.857 101.5,138.5C 105.035,138.606 106.868,140.273 107,143.5C 105.284,143.589 103.451,143.256 101.5,142.5C 100.452,143.383 99.2853,144.05 98,144.5C 96.6998,143.293 95.1998,142.626 93.5,142.5C 93.4802,144.143 94.1468,145.476 95.5,146.5C 93.1161,147.011 91.1161,148.011 89.5,149.5C 80.33,149.753 71.6633,148.086 63.5,144.5C 67.3765,144.517 68.0432,143.351 65.5,141C 68.9153,139.857 69.2486,138.19 66.5,136C 65.2068,135.51 63.8734,135.343 62.5,135.5C 62.719,136.675 62.3857,137.675 61.5,138.5C 60.5745,137.359 59.7412,137.359 59,138.5C 58.3828,137.551 58.5494,136.718 59.5,136C 57.6541,133.908 55.3208,132.574 52.5,132C 53.5,131.667 54.5,131.333 55.5,131C 53.6763,130.34 52.343,129.173 51.5,127.5 Z"/></g>
<g><path style="opacity:1" fill="#1e1d1e" d="M 51.5,127.5 C 52.343,129.173 53.6763,130.34 55.5,131C 54.5,131.333 53.5,131.667 52.5,132C 55.3208,132.574 57.6541,133.908 59.5,136C 58.5494,136.718 58.3828,137.551 59,138.5C 59.7412,137.359 60.5745,137.359 61.5,138.5C 62.3857,137.675 62.719,136.675 62.5,135.5C 63.8734,135.343 65.2068,135.51 66.5,136C 69.2486,138.19 68.9153,139.857 65.5,141C 68.0432,143.351 67.3765,144.517 63.5,144.5C 58.5572,143.639 54.2238,141.639 50.5,138.5C 51.2029,136.966 51.0363,135.299 50,133.5C 49.6667,134.167 49.3333,134.833 49,135.5C 47.848,133.351 46.348,131.518 44.5,130C 45.5,129.667 46.5,129.333 47.5,129C 46.6634,127.989 46.33,126.822 46.5,125.5C 45.1266,125.657 43.7932,125.49 42.5,125C 43,124.5 43.5,124 44,123.5C 46.6396,124.656 49.1396,125.989 51.5,127.5 Z"/></g>
<g><path style="opacity:1" fill="#1c1a1a" d="M 101.5,138.5 C 101.735,137.903 102.235,137.57 103,137.5C 108.119,139.092 112.952,141.259 117.5,144C 108.587,147.875 99.2533,149.708 89.5,149.5C 91.1161,148.011 93.1161,147.011 95.5,146.5C 94.1468,145.476 93.4802,144.143 93.5,142.5C 95.1998,142.626 96.6998,143.293 98,144.5C 99.2853,144.05 100.452,143.383 101.5,142.5C 103.451,143.256 105.284,143.589 107,143.5C 106.868,140.273 105.035,138.606 101.5,138.5 Z"/></g>
<g><path style="opacity:0.282" fill="#d4a864" d="M -0.5,153.5 C 7.5,153.5 15.5,153.5 23.5,153.5C 23.6655,157.514 23.4988,161.514 23,165.5C 21.8761,161.196 19.3761,158.196 15.5,156.5C 18.3245,156.081 20.4912,157.081 22,159.5C 22.4935,157.866 22.6602,156.199 22.5,154.5C 15.3134,154.175 8.31337,154.509 1.5,155.5C 0.833333,155.5 0.166667,155.5 -0.5,155.5C -0.5,154.833 -0.5,154.167 -0.5,153.5 Z"/></g>
<g><path style="opacity:1" fill="#dcaa58" d="M 165.5,169.5 C 164.517,165.702 164.183,161.702 164.5,157.5C 162.508,157.328 160.842,157.995 159.5,159.5C 158.833,168.658 158.167,177.658 157.5,186.5C 157.666,176.494 157.5,166.494 157,156.5C 155.795,155.929 154.628,155.262 153.5,154.5C 161.5,153.167 169.5,153.167 177.5,154.5C 177.464,157.281 177.798,160.114 178.5,163C 178.37,164.059 177.87,164.892 177,165.5C 175.909,159.034 172.075,156.034 165.5,156.5C 165.5,160.833 165.5,165.167 165.5,169.5 Z"/></g>
<g><path style="opacity:0.922" fill="#d4a75a" d="M 137.5,163.5 C 136.325,163.719 135.325,163.386 134.5,162.5C 135.681,160.802 135.681,159.135 134.5,157.5C 133.914,157.709 133.414,158.043 133,158.5C 132.333,161.167 132.333,163.833 133,166.5C 134.122,168.407 134.955,170.407 135.5,172.5C 128.889,166.4 128.889,160.234 135.5,154C 139.657,151.829 143.491,152.329 147,155.5C 147.915,154.672 148.581,153.672 149,152.5C 150.762,156.684 150.928,161.017 149.5,165.5C 147.934,161.1 145.101,157.767 141,155.5C 136.539,156.647 135.373,159.314 137.5,163.5 Z"/></g>
<g><path style="opacity:1" fill="#d5a85f" d="M 43.5,156.5 C 43.38,155.414 42.7133,154.747 41.5,154.5C 40.1508,154.846 38.8175,155.179 37.5,155.5C 42.4792,151.666 47.6458,151.666 53,155.5C 53.6891,154.643 54.5224,153.977 55.5,153.5C 56.8333,157.5 56.8333,161.5 55.5,165.5C 53.7675,159.43 49.7675,156.43 43.5,156.5 Z"/></g>
<g><path style="opacity:0.969" fill="#d2a35a" d="M 125.5,156.5 C 123.833,156.5 122.167,156.5 120.5,156.5C 120.5,157.5 120.5,158.5 120.5,159.5C 119.493,158.172 118.16,157.172 116.5,156.5C 115.507,161.12 115.173,165.786 115.5,170.5C 116.822,170.67 117.989,170.337 119,169.5C 120.289,166.649 120.789,163.649 120.5,160.5C 121.788,163.7 121.788,167.033 120.5,170.5C 121.325,171.386 122.325,171.719 123.5,171.5C 123.5,170.5 123.5,169.5 123.5,168.5C 124.5,168.5 125.5,168.5 126.5,168.5C 126.084,170.752 124.751,172.252 122.5,173C 120.19,173.497 117.857,173.663 115.5,173.5C 114.881,167.83 114.214,162.163 113.5,156.5C 113.709,155.914 114.043,155.414 114.5,155C 112.527,154.505 110.527,154.338 108.5,154.5C 109.144,165.884 108.477,176.884 106.5,187.5C 107.641,177.243 107.808,166.91 107,156.5C 105.795,155.929 104.628,155.262 103.5,154.5C 109.137,153.337 114.804,153.17 120.5,154C 122.491,154.374 124.158,155.207 125.5,156.5 Z"/></g>
<g><path style="opacity:1" fill="#dfa74c" d="M 115.5,173.5 C 115.334,177.846 115.501,182.179 116,186.5C 117.205,187.071 118.372,187.738 119.5,188.5C 114.167,189.833 108.833,189.833 103.5,188.5C 104.325,187.614 105.325,187.281 106.5,187.5C 108.477,176.884 109.144,165.884 108.5,154.5C 110.527,154.338 112.527,154.505 114.5,155C 114.043,155.414 113.709,155.914 113.5,156.5C 114.214,162.163 114.881,167.83 115.5,173.5 Z"/></g>
<g><path style="opacity:1" fill="#e1a849" d="M 72.5,156.5 C 71.5084,156.328 70.8417,156.662 70.5,157.5C 69.506,167.319 69.1726,177.319 69.5,187.5C 67.8333,187.5 66.1667,187.5 64.5,187.5C 64.3335,177.161 64.5002,166.828 65,156.5C 65.8388,155.376 67.0055,154.709 68.5,154.5C 70.3545,154.34 71.6879,155.007 72.5,156.5 Z"/></g>
<g><path style="opacity:1" fill="#dea74c" d="M 125.5,156.5 C 128.917,160.311 129.251,164.311 126.5,168.5C 125.5,168.5 124.5,168.5 123.5,168.5C 123.5,169.5 123.5,170.5 123.5,171.5C 122.325,171.719 121.325,171.386 120.5,170.5C 121.788,167.033 121.788,163.7 120.5,160.5C 120.5,160.167 120.5,159.833 120.5,159.5C 120.5,158.5 120.5,157.5 120.5,156.5C 122.167,156.5 123.833,156.5 125.5,156.5 Z"/></g>
<g><path style="opacity:1" fill="#dda851" d="M 43.5,156.5 C 38.9287,160.145 36.5954,164.978 36.5,171C 36.6942,176.55 38.3609,181.55 41.5,186C 42.8721,186.402 44.2054,186.902 45.5,187.5C 49.0229,186.315 52.0229,184.315 54.5,181.5C 55.2954,185.928 53.2954,188.761 48.5,190C 35.8313,191.171 29.1646,185.337 28.5,172.5C 28.5753,167.865 29.742,163.531 32,159.5C 33.451,157.536 35.2843,156.203 37.5,155.5C 38.8175,155.179 40.1508,154.846 41.5,154.5C 42.7133,154.747 43.38,155.414 43.5,156.5 Z"/></g>
<g><path style="opacity:0.729" fill="#d5ae68" d="M 13.5,173.5 C 14.4959,173.414 15.3292,173.748 16,174.5C 16.6667,172.167 16.6667,169.833 16,167.5C 15.5831,168.756 14.7498,169.423 13.5,169.5C 16.9621,158.886 18.2954,159.553 17.5,171.5C 18.2954,183.447 16.9621,184.114 13.5,173.5 Z"/></g>
<g><path style="opacity:1" fill="#e0a84a" d="M 15.5,156.5 C 13.8561,156.286 12.3561,156.62 11,157.5C 10.5012,161.486 10.3345,165.486 10.5,169.5C 11.5,169.5 12.5,169.5 13.5,169.5C 14.7498,169.423 15.5831,168.756 16,167.5C 16.6667,169.833 16.6667,172.167 16,174.5C 15.3292,173.748 14.4959,173.414 13.5,173.5C 12.5,173.5 11.5,173.5 10.5,173.5C 10.2307,177.931 10.564,182.265 11.5,186.5C 10.6661,187.748 9.33277,188.415 7.5,188.5C 5.54533,188.276 3.87867,187.609 2.5,186.5C 3.63899,176.911 3.80566,167.244 3,157.5C 2.28281,156.956 1.78281,156.289 1.5,155.5C 8.31337,154.509 15.3134,154.175 22.5,154.5C 22.6602,156.199 22.4935,157.866 22,159.5C 20.4912,157.081 18.3245,156.081 15.5,156.5 Z"/></g>
<g><path style="opacity:1" fill="#dfa74b" d="M 137.5,163.5 C 142.254,165.539 146.254,168.539 149.5,172.5C 150.221,175.817 150.388,179.151 150,182.5C 148.989,181.663 147.822,181.33 146.5,181.5C 143.149,178.152 139.482,175.152 135.5,172.5C 134.955,170.407 134.122,168.407 133,166.5C 132.333,163.833 132.333,161.167 133,158.5C 133.414,158.043 133.914,157.709 134.5,157.5C 135.681,159.135 135.681,160.802 134.5,162.5C 135.325,163.386 136.325,163.719 137.5,163.5 Z"/></g>
<g><path style="opacity:1" fill="#dfa74d" d="M 165.5,169.5 C 165.435,169.938 165.601,170.272 166,170.5C 168.78,168.199 170.447,165.199 171,161.5C 171.5,162 172,162.5 172.5,163C 171.45,168.804 171.283,174.637 172,180.5C 171.667,180.833 171.333,181.167 171,181.5C 170.265,179.129 169.432,176.795 168.5,174.5C 167.675,173.614 166.675,173.281 165.5,173.5C 165.5,177.833 165.5,182.167 165.5,186.5C 164.666,187.748 163.333,188.415 161.5,188.5C 159.667,188.415 158.334,187.748 157.5,186.5C 158.167,177.658 158.833,168.658 159.5,159.5C 160.842,157.995 162.508,157.328 164.5,157.5C 164.183,161.702 164.517,165.702 165.5,169.5 Z"/></g>
<g><path style="opacity:1" fill="#dea852" d="M 87.5,153.5 C 92.544,153.173 97.544,153.506 102.5,154.5C 101.24,155.382 100.074,156.382 99,157.5C 98.3333,166.833 98.3333,176.167 99,185.5C 99.8996,186.77 101.066,187.77 102.5,188.5C 97.5,189.833 92.5,189.833 87.5,188.5C 88.9337,187.77 90.1004,186.77 91,185.5C 91.6667,176.167 91.6667,166.833 91,157.5C 89.3732,156.468 88.2066,155.134 87.5,153.5 Z"/></g>
<g><path style="opacity:0.98" fill="#d2a65d" d="M 149.5,172.5 C 152.202,177.446 152.035,182.446 149,187.5C 144.562,191.017 139.895,191.351 135,188.5C 133.715,188.95 132.548,189.617 131.5,190.5C 130.167,185.833 130.167,181.167 131.5,176.5C 132.948,178.667 134.115,181 135,183.5C 140.266,189.385 144.099,188.718 146.5,181.5C 147.822,181.33 148.989,181.663 150,182.5C 150.388,179.151 150.221,175.817 149.5,172.5 Z"/></g>
<g><path style="opacity:1" fill="#daaa61" d="M 72.5,156.5 C 71.6879,155.007 70.3545,154.34 68.5,154.5C 67.0055,154.709 65.8388,155.376 65,156.5C 64.5002,166.828 64.3335,177.161 64.5,187.5C 66.1667,187.5 67.8333,187.5 69.5,187.5C 69.1726,177.319 69.506,167.319 70.5,157.5C 70.3335,166.839 70.5002,176.173 71,185.5C 73.8773,186.83 76.7107,186.664 79.5,185C 81.6362,182.1 83.3029,178.934 84.5,175.5C 85.4676,180.145 85.4676,184.812 84.5,189.5C 75.8078,189.831 67.1411,189.498 58.5,188.5C 59.6283,187.738 60.7949,187.071 62,186.5C 62.8322,176.483 62.6656,166.483 61.5,156.5C 60.3279,156.081 59.3279,155.415 58.5,154.5C 63.8333,153.167 69.1667,153.167 74.5,154.5C 74.1445,155.522 73.4778,156.189 72.5,156.5 Z"/></g>
<g><path style="opacity:0.59" fill="#d8ab62" d="M -0.5,189.5 C -0.5,188.833 -0.5,188.167 -0.5,187.5C 0.791047,187.737 1.79105,187.404 2.5,186.5C 3.87867,187.609 5.54533,188.276 7.5,188.5C 9.33277,188.415 10.6661,187.748 11.5,186.5C 13.8568,186.663 16.1902,186.497 18.5,186C 21.2728,183.617 23.4395,180.783 25,177.5C 25.3568,181.51 25.1901,185.51 24.5,189.5C 15.9568,189.576 7.62343,189.576 -0.5,189.5 Z"/></g>
<g><path style="opacity:0.7" fill="#dbae69" d="M 179.5,177.5 C 179.5,180.5 179.5,183.5 179.5,186.5C 178.596,187.209 178.263,188.209 178.5,189.5C 170.14,189.831 161.807,189.498 153.5,188.5C 154.766,187.638 156.099,186.971 157.5,186.5C 158.334,187.748 159.667,188.415 161.5,188.5C 163.333,188.415 164.666,187.748 165.5,186.5C 168.649,186.789 171.649,186.289 174.5,185C 176.267,182.456 177.934,179.956 179.5,177.5 Z"/></g>
<g><path style="opacity:0.984" fill="#171718" d="M 54.5,206.5 C 51.8333,206.5 49.1667,206.5 46.5,206.5C 45.4884,205.128 44.4884,203.795 43.5,202.5C 44.4302,196.036 47.9302,193.369 54,194.5C 54.6667,196.167 54.6667,197.833 54,199.5C 52.4348,196.106 50.4348,195.772 48,198.5C 46.6902,202.284 47.8569,204.618 51.5,205.5C 51.6399,203.876 50.9733,202.71 49.5,202C 51.8333,201.333 54.1667,201.333 56.5,202C 54.9632,203.11 54.2965,204.61 54.5,206.5 Z"/></g>
<g><path style="opacity:0.984" fill="#131315" d="M 102.5,206.5 C 100.167,206.5 97.8333,206.5 95.5,206.5C 93.6878,204.539 92.6878,202.206 92.5,199.5C 95.3775,193.892 99.2108,193.226 104,197.5C 104.932,200.823 104.432,203.823 102.5,206.5 Z M 97.5,196.5 C 98.5,196.5 99.5,196.5 100.5,196.5C 102.3,200.09 101.633,203.09 98.5,205.5C 96.312,202.705 95.9786,199.705 97.5,196.5 Z"/></g>
<g><path style="opacity:0.949" fill="#121314" d="M 92.5,199.5 C 86.334,194.798 84.1673,196.464 86,204.5C 88.0445,205.772 89.8778,205.439 91.5,203.5C 91.8333,203.833 92.1667,204.167 92.5,204.5C 91.7573,205.182 91.0906,205.849 90.5,206.5C 88.5,206.5 86.5,206.5 84.5,206.5C 80.9849,203.393 80.6516,199.893 83.5,196C 86.3872,194.55 89.2206,194.05 92,194.5C 92.4935,196.134 92.6602,197.801 92.5,199.5 Z"/></g>
<g><path style="opacity:0.996" fill="#171718" d="M 123.5,199.5 C 126.033,201.914 126.033,204.247 123.5,206.5C 121.167,206.5 118.833,206.5 116.5,206.5C 116.442,202.299 117.442,201.799 119.5,205C 120.635,205.749 121.635,205.583 122.5,204.5C 120.613,202.96 118.78,201.293 117,199.5C 116.685,198.092 117.018,196.759 118,195.5C 120.093,194.754 122.093,194.421 124,194.5C 124.78,196.387 124.613,198.054 123.5,199.5 Z M 123.5,199.5 C 122.027,198.928 120.693,198.095 119.5,197C 121.945,196.09 123.278,196.924 123.5,199.5 Z"/></g>
<g><path style="opacity:0.877" fill="#181819" d="M 32.5,206.5 C 29.1667,206.5 25.8333,206.5 22.5,206.5C 23.2163,203.717 23.883,200.884 24.5,198C 24.2409,196.739 23.5742,195.739 22.5,195C 24.5787,194.192 26.5787,194.359 28.5,195.5C 27.5827,198.758 27.2493,202.091 27.5,205.5C 29.9124,205.756 31.5791,204.756 32.5,202.5C 32.9059,203.557 32.9059,204.891 32.5,206.5 Z"/></g>
<g><path style="opacity:0.996" fill="#161718" d="M 77.5,206.5 C 72.1667,206.5 66.8333,206.5 61.5,206.5C 63.1368,204.876 62.8034,203.876 60.5,203.5C 58.1966,203.876 57.8632,204.876 59.5,206.5C 58.1667,206.5 56.8333,206.5 55.5,206.5C 57.4867,202.527 59.4867,198.527 61.5,194.5C 63.2619,198.362 65.2619,202.028 67.5,205.5C 68.7914,201.955 68.7914,198.455 67.5,195C 69.5,194.333 71.5,194.333 73.5,195C 72.5442,198.394 72.2108,201.894 72.5,205.5C 74.9124,205.756 76.5791,204.756 77.5,202.5C 77.9059,203.557 77.9059,204.891 77.5,206.5 Z M 59.5,200.5 C 60.2891,200.783 60.9558,201.283 61.5,202C 60.184,202.528 59.5173,202.028 59.5,200.5 Z"/></g>
<g><path style="opacity:0.731" fill="#19191a" d="M 115.5,206.5 C 114.833,206.5 114.167,206.5 113.5,206.5C 112.158,203.834 110.325,201.501 108,199.5C 107.667,200.167 107.333,200.833 107,201.5C 106.689,199.444 106.189,197.444 105.5,195.5C 106.167,195.167 106.833,194.833 107.5,194.5C 110.104,195.269 111.938,196.936 113,199.5C 113.72,197.888 113.554,196.388 112.5,195C 113.944,194.219 115.277,194.386 116.5,195.5C 115.574,199.094 115.241,202.76 115.5,206.5 Z"/></g>
<g><path style="opacity:0.755" fill="#191919" d="M 40.5,197.5 C 39.791,196.596 38.791,196.263 37.5,196.5C 37.1307,198.993 37.7973,199.66 39.5,198.5C 40.6664,200.166 40.6664,201.833 39.5,203.5C 38.8076,202.975 38.3076,202.308 38,201.5C 37.51,202.793 37.3433,204.127 37.5,205.5C 39.9468,205.385 41.9468,204.385 43.5,202.5C 43.1667,203.833 42.8333,205.167 42.5,206.5C 39.5,206.5 36.5,206.5 33.5,206.5C 34.8268,202.864 34.8268,199.197 33.5,195.5C 36.4281,194.516 39.4281,194.183 42.5,194.5C 42.6567,195.873 42.49,197.207 42,198.5C 41.6174,197.944 41.1174,197.611 40.5,197.5 Z M 40.5,197.5 C 39.8333,197.5 39.5,197.833 39.5,198.5C 37.7973,199.66 37.1307,198.993 37.5,196.5C 38.791,196.263 39.791,196.596 40.5,197.5 Z"/></g>
<g><path style="opacity:1" fill="#191a1a" d="M 154.5,206.5 C 152.5,206.5 150.5,206.5 148.5,206.5C 149.751,203.207 149.751,199.874 148.5,196.5C 147.808,197.025 147.308,197.692 147,198.5C 146.51,197.207 146.343,195.873 146.5,194.5C 149.833,194.5 153.167,194.5 156.5,194.5C 156.657,195.873 156.49,197.207 156,198.5C 155.692,197.692 155.192,197.025 154.5,196.5C 153.249,199.874 153.249,203.207 154.5,206.5 Z"/></g>
<g><path style="opacity:0.039" fill="#141517" d="M 109.5,206.5 C 108.167,206.5 106.833,206.5 105.5,206.5C 106.09,205.234 106.59,203.901 107,202.5C 107.662,203.984 108.496,205.317 109.5,206.5 Z"/></g>
<g><path style="opacity:0.2" fill="#1e1e1f" d="M 147.5,206.5 C 144.167,206.5 140.833,206.5 137.5,206.5C 138.758,202.877 138.758,199.21 137.5,195.5C 136.914,195.709 136.414,196.043 136,196.5C 135.752,199.919 135.252,203.253 134.5,206.5C 132.5,206.5 130.5,206.5 128.5,206.5C 126.958,202.874 125.958,199.041 125.5,195C 127.579,194.192 129.579,194.359 131.5,195.5C 130.583,198.758 130.249,202.091 130.5,205.5C 131.822,205.67 132.989,205.337 134,204.5C 135.004,201.007 134.504,197.841 132.5,195C 136.167,194.333 139.833,194.333 143.5,195C 142.209,198.455 142.209,201.955 143.5,205.5C 144.814,204.687 145.981,203.687 147,202.5C 147.49,203.793 147.657,205.127 147.5,206.5 Z"/></g>
</svg>
