<?xml version="1.0" encoding="UTF-8"?>
<!DOCTYPE svg PUBLIC "-//W3C//DTD SVG 1.1//EN" "http://www.w3.org/Graphics/SVG/1.1/DTD/svg11.dtd">
<svg xmlns="http://www.w3.org/2000/svg" version="1.1" width="9015px" height="10392px" style="shape-rendering:geometricPrecision; text-rendering:geometricPrecision; image-rendering:optimizeQuality; fill-rule:evenodd; clip-rule:evenodd" xmlns:xlink="http://www.w3.org/1999/xlink">
<g><path style="opacity:1" fill="#fefefe" d="M 4419.5,-0.5 C 4477.5,-0.5 4535.5,-0.5 4593.5,-0.5C 5127.94,12.6811 5636.94,132.848 6120.5,360C 6465.36,524.425 6778.03,735.092 7058.5,992C 7073.37,1006.03 7088.03,1020.2 7102.5,1034.5C 7103.91,1036.91 7105.91,1038.58 7108.5,1039.5C 7114.5,1044.83 7120.17,1050.5 7125.5,1056.5C 7127.24,1059.24 7129.57,1061.24 7132.5,1062.5C 7158.17,1087.5 7183.5,1112.83 7208.5,1138.5C 7211.44,1143.11 7215.1,1147.11 7219.5,1150.5C 7224.5,1154.83 7229.17,1159.5 7233.5,1164.5C 7235.43,1168.1 7238.1,1171.1 7241.5,1173.5C 7327.99,1263.8 7409.49,1358.14 7486,1456.5C 7786.3,1844.42 8003.3,2276.42 8137,2752.5C 8265.97,3224.4 8302.64,3703.4 8247,4189.5C 8184.83,4714.01 8020.17,5203.34 7753,5657.5C 7656.96,5819.18 7549.63,5972.85 7431,6118.5C 7432.41,6122.32 7434.08,6125.98 7436,6129.5C 7350.73,6246.56 7255.9,6356.06 7151.5,6458C 7053.43,6552.79 6946.76,6636.12 6831.5,6708C 6595.68,6851.27 6339.68,6931.93 6063.5,6950C 5912.63,6959.8 5762.29,6954.46 5612.5,6934C 5508.74,6900.28 5407.07,6861.28 5307.5,6817C 5165.1,6753.13 5024.43,6685.47 4885.5,6614C 4678.48,6506.16 4471.15,6398.82 4263.5,6292C 4088.37,6202.6 3910.7,6118.93 3730.5,6041C 3588.3,5980.04 3442.97,5927.37 3294.5,5883C 3182.44,5849.82 3068.44,5825.82 2952.5,5811C 2853.64,5798.7 2754.64,5797.36 2655.5,5807C 2615.04,5811.41 2575.04,5818.41 2535.5,5828C 2491.25,5851.62 2448.59,5877.62 2407.5,5906C 2406.5,5906.67 2405.5,5906.67 2404.5,5906C 2397.63,5899.3 2390.96,5892.46 2384.5,5885.5C 2380.11,5880.11 2375.11,5875.44 2369.5,5871.5C 2365.2,5867.7 2361.04,5863.7 2357,5859.5C 2531.35,5586.39 2778.52,5417.56 3098.5,5353C 3222.72,5329.27 3348.06,5319.27 3474.5,5323C 3605.36,5326.82 3735.36,5339.49 3864.5,5361C 4027.41,5388.61 4188.74,5423.45 4348.5,5465.5C 4349.16,5504.93 4349.83,5544.26 4350.5,5583.5C 4352.83,5586.5 4355.5,5589.17 4358.5,5591.5C 4362.56,5596.56 4367.23,5600.9 4372.5,5604.5C 4376.17,5608.83 4380.17,5612.83 4384.5,5616.5C 4388.56,5621.56 4393.23,5625.9 4398.5,5629.5C 4401.83,5633.5 4405.5,5637.17 4409.5,5640.5C 4413.56,5645.56 4418.23,5649.9 4423.5,5653.5C 4427.17,5657.83 4431.17,5661.83 4435.5,5665.5C 4439.56,5670.56 4444.23,5674.9 4449.5,5678.5C 4452.83,5682.5 4456.5,5686.17 4460.5,5689.5C 4464.56,5694.56 4469.23,5698.9 4474.5,5702.5C 4478.17,5706.83 4482.17,5710.83 4486.5,5714.5C 4490.21,5720.57 4493.87,5720.24 4497.5,5713.5C 4499.6,5711.5 4501.6,5709.34 4503.5,5707C 4506.07,5706.1 4508.4,5704.77 4510.5,5703C 4516.25,5695.92 4522.58,5689.59 4529.5,5684C 4530.5,5683.67 4531.5,5683.33 4532.5,5683C 4534.25,5679.58 4536.92,5677.25 4540.5,5676C 4542.13,5673.37 4544.13,5671.04 4546.5,5669C 4549.96,5666.13 4553.63,5663.46 4557.5,5661C 4559.13,5658.37 4561.13,5656.04 4563.5,5654C 4566.96,5651.13 4570.63,5648.46 4574.5,5646C 4576.13,5643.37 4578.13,5641.04 4580.5,5639C 4583.96,5636.13 4587.63,5633.46 4591.5,5631C 4593.13,5628.37 4595.13,5626.04 4597.5,5624C 4600.96,5621.13 4604.63,5618.46 4608.5,5616C 4610.58,5612.25 4613.58,5609.58 4617.5,5608C 4619.75,5604.09 4622.91,5601.25 4627,5599.5C 4627.62,5597.88 4628.62,5596.55 4630,5595.5C 4630.17,5578 4630.67,5560.66 4631.5,5543.5C 4832.63,5603.26 5033.96,5662.76 5235.5,5722C 5401.95,5770.95 5569.95,5813.95 5739.5,5851C 5854.46,5875.72 5970.46,5893.72 6087.5,5905C 6188.16,5914.68 6288.83,5914.85 6389.5,5905.5C 6394.77,5905.81 6399.77,5905.14 6404.5,5903.5C 6494.1,5893.44 6580.1,5870.27 6662.5,5834C 6708.61,5812.46 6751.95,5786.63 6792.5,5756.5C 6808.64,5771.73 6824.98,5786.73 6841.5,5801.5C 6842.61,5802.72 6842.78,5804.06 6842,5805.5C 6708.11,6016.3 6517.61,6144.13 6270.5,6189C 6177.15,6204.92 6083.15,6210.92 5988.5,6207C 5869.48,6201.71 5751.48,6187.71 5634.5,6165C 5492.86,6137.17 5352.52,6103.84 5213.5,6065C 5011.71,6007.55 4810.38,5948.55 4609.5,5888C 4447.67,5839.79 4284.67,5795.79 4120.5,5756C 3957.88,5716.61 3793.55,5686.61 3627.5,5666C 3618.52,5664.67 3609.52,5664 3600.5,5664C 3713.93,5689.92 3825.27,5722.92 3934.5,5763C 4065.02,5811.51 4193.69,5864.51 4320.5,5922C 4452.29,5982.06 4583.95,6042.39 4715.5,6103C 4870.07,6173.86 5027.07,6238.86 5186.5,6298C 5350.26,6358.19 5517.92,6404.19 5689.5,6436C 5769.53,6450.89 5850.2,6460.23 5931.5,6464C 6101.24,6468.72 6262.91,6435.05 6416.5,6363C 6509.54,6318.5 6596.21,6264.5 6676.5,6201C 6720.51,6165.83 6763.18,6128.99 6804.5,6090.5C 6811.44,6085.22 6817.78,6079.22 6823.5,6072.5C 6837.17,6058.17 6851.17,6044.17 6865.5,6030.5C 6870.56,6026.44 6874.9,6021.77 6878.5,6016.5C 6969.27,5920.1 7053.27,5818.43 7130.5,5711.5C 7131.17,5710.17 7131.83,5710.17 7132.5,5711.5C 7134.14,5714.3 7135.97,5716.97 7138,5719.5C 7469.33,5277.23 7676.67,4781.23 7760,4231.5C 7827.88,3760.33 7796.21,3296 7665,2838.5C 7529.44,2379.87 7306.77,1971.2 6997,1612.5C 6962.37,1573.36 6927.2,1534.7 6891.5,1496.5C 6890.92,1494.25 6889.59,1492.58 6887.5,1491.5C 6878.83,1483.5 6870.5,1475.17 6862.5,1466.5C 6859.56,1461.89 6855.9,1457.89 6851.5,1454.5C 6839.5,1443.17 6827.83,1431.5 6816.5,1419.5C 6812.44,1414.44 6807.77,1410.1 6802.5,1406.5C 6795.83,1400.5 6789.5,1394.17 6783.5,1387.5C 6781.1,1384.1 6778.1,1381.43 6774.5,1379.5C 6437.56,1060.54 6049.22,822.035 5609.5,664C 5149.25,502.677 4676.25,444.677 4190.5,490C 3598.33,549.272 3061.66,751.272 2580.5,1096C 2131.38,1422.73 1785.21,1835.23 1542,2333.5C 1312.57,2813.63 1205.24,3319.96 1220,3852.5C 1238.12,4404.06 1384.79,4918.39 1660,5395.5C 1791.62,5620.96 1947.79,5828.29 2128.5,6017.5C 2131.1,6021.77 2134.43,6025.44 2138.5,6028.5C 2165.17,6054.5 2191.5,6080.83 2217.5,6107.5C 2219.57,6110.57 2222.24,6112.91 2225.5,6114.5C 2570.1,6444.13 2968.77,6688.96 3421.5,6849C 3888.68,7009.65 4368.01,7064.31 4859.5,7013C 4971.73,7000.96 5083.06,6983.29 5193.5,6960C 5195.83,6959.33 5198.17,6959.33 5200.5,6960C 5420.87,7049.4 5641.21,7138.9 5861.5,7228.5C 5861.83,7229.67 5862.17,7230.83 5862.5,7232C 5861.92,7240.73 5861.26,7249.4 5860.5,7258C 5345.43,7453.87 4812.76,7534.54 4262.5,7500C 3671.46,7460.77 3120.13,7293.1 2608.5,6997C 2351.57,6846.96 2115.23,6668.96 1899.5,6463C 1889.96,6453.63 1880.63,6444.13 1871.5,6434.5C 1864.11,6426.11 1856.11,6418.44 1847.5,6411.5C 1843.5,6408.17 1839.83,6404.5 1836.5,6400.5C 1834.17,6396.17 1830.83,6392.83 1826.5,6390.5C 1821.56,6383.89 1815.89,6377.89 1809.5,6372.5C 1801.17,6364.83 1793.17,6356.83 1785.5,6348.5C 1784.58,6345.91 1782.91,6343.91 1780.5,6342.5C 1495.42,6045.05 1265.25,5709.05 1090,5334.5C 846.601,4807.52 730.601,4253.52 742,3672.5C 755.58,3088.84 896.58,2538.17 1165,2020.5C 1319.06,1726.96 1508.06,1458.29 1732,1214.5C 1746.7,1198.97 1761.53,1183.63 1776.5,1168.5C 1780.23,1165.77 1783.23,1162.44 1785.5,1158.5C 1790.17,1153.17 1795.17,1148.17 1800.5,1143.5C 1807.89,1137.11 1814.56,1130.11 1820.5,1122.5C 1827.5,1114.83 1834.83,1107.5 1842.5,1100.5C 1855.78,1088.89 1868.45,1076.55 1880.5,1063.5C 1882.83,1060.5 1885.5,1057.83 1888.5,1055.5C 1894.78,1050.89 1900.44,1045.56 1905.5,1039.5C 1991.35,956.633 2081.02,878.467 2174.5,805C 2583.18,484.333 3040.51,256.666 3546.5,122C 3832.9,47.3955 4123.9,6.56215 4419.5,-0.5 Z M 2687.5,1885.5 C 2711.5,1884.21 2735.17,1886.38 2758.5,1892C 2775.1,1896.6 2787.6,1906.43 2796,1921.5C 2804.52,1936.21 2811.69,1951.54 2817.5,1967.5C 2786.28,2042.28 2754.78,2116.94 2723,2191.5C 2699.17,2173.01 2678.84,2151.34 2662,2126.5C 2634.57,2072.02 2623.57,2014.35 2629,1953.5C 2633.08,1931.84 2642.58,1913.01 2657.5,1897C 2666.4,1890.12 2676.4,1886.28 2687.5,1885.5 Z M 6328.5,1885.5 C 6344.26,1884.92 6359.93,1885.76 6375.5,1888C 6389.71,1892.87 6400.21,1902.04 6407,1915.5C 6415.81,1929.61 6420.81,1944.94 6422,1961.5C 6425.62,2018.35 6414.95,2072.35 6390,2123.5C 6381.88,2136.73 6372.55,2149.06 6362,2160.5C 6348.3,2173.21 6334.3,2185.54 6320,2197.5C 6290.5,2121.67 6261,2045.83 6231.5,1970C 6239.03,1948.72 6249.19,1928.88 6262,1910.5C 6270,1901.42 6279.83,1895.25 6291.5,1892C 6303.82,1888.95 6316.16,1886.78 6328.5,1885.5 Z M 2837.5,2241.5 C 2817.26,2239.02 2797.59,2234.18 2778.5,2227C 2777.09,2226.63 2776.09,2225.8 2775.5,2224.5C 2785.11,2196.01 2795.11,2167.67 2805.5,2139.5C 2816.77,2173.31 2827.44,2207.31 2837.5,2241.5 Z M 6215.5,2139.5 C 6226.97,2170.91 6237.3,2202.91 6246.5,2235.5C 6224.75,2239.88 6202.92,2243.88 6181,2247.5C 6180.17,2247.17 6179.33,2246.83 6178.5,2246.5C 6191.13,2210.91 6203.47,2175.24 6215.5,2139.5 Z M 2743.5,2316.5 C 2786.72,2344.52 2832.89,2366.52 2882,2382.5C 3000.64,2761.42 3119.47,3140.26 3238.5,3519C 2934.83,3518.52 2631.17,3517.69 2327.5,3516.5C 2465.97,3116.44 2604.63,2716.44 2743.5,2316.5 Z M 6276.5,2334.5 C 6277.5,2334.47 6278.16,2334.97 6278.5,2336C 6402.14,2730.43 6525.48,3124.93 6648.5,3519.5C 6344.83,3518.68 6041.17,3517.52 5737.5,3516C 5867.89,3142.17 5997.89,2768.17 6127.5,2394C 6127.91,2393.05 6128.57,2392.39 6129.5,2392C 6181.53,2380.16 6230.53,2361 6276.5,2334.5 Z"/></g>
<g><path style="opacity:0.008" fill="#9f9e9e" d="M 7102.5,1034.5 C 7105.09,1035.42 7107.09,1037.09 7108.5,1039.5C 7105.91,1038.58 7103.91,1036.91 7102.5,1034.5 Z"/></g>
<g><path style="opacity:1" fill="#cccccc" d="M 1905.5,1039.5 C 1900.44,1045.56 1894.78,1050.89 1888.5,1055.5C 1893.56,1049.44 1899.22,1044.11 1905.5,1039.5 Z"/></g>
<g><path style="opacity:0.008" fill="#9e9e9e" d="M 7125.5,1056.5 C 7128.43,1057.76 7130.76,1059.76 7132.5,1062.5C 7129.57,1061.24 7127.24,1059.24 7125.5,1056.5 Z"/></g>
<g><path style="opacity:0.988" fill="#c7c7c7" d="M 1880.5,1063.5 C 1868.45,1076.55 1855.78,1088.89 1842.5,1100.5C 1854.55,1087.45 1867.22,1075.11 1880.5,1063.5 Z"/></g>
<g><path style="opacity:0.878" fill="#b0b0b0" d="M 1820.5,1122.5 C 1814.56,1130.11 1807.89,1137.11 1800.5,1143.5C 1806.44,1135.89 1813.11,1128.89 1820.5,1122.5 Z"/></g>
<g><path style="opacity:0.961" fill="#aaaaaa" d="M 7208.5,1138.5 C 7212.9,1141.89 7216.56,1145.89 7219.5,1150.5C 7215.1,1147.11 7211.44,1143.11 7208.5,1138.5 Z"/></g>
<g><path style="opacity:0.875" fill="#b0b0b0" d="M 1785.5,1158.5 C 1783.23,1162.44 1780.23,1165.77 1776.5,1168.5C 1778.77,1164.56 1781.77,1161.23 1785.5,1158.5 Z"/></g>
<g><path style="opacity:0.965" fill="#acabab" d="M 7233.5,1164.5 C 7236.9,1166.9 7239.57,1169.9 7241.5,1173.5C 7238.1,1171.1 7235.43,1168.1 7233.5,1164.5 Z"/></g>
<g><path style="opacity:0.998" fill="#e1a746" d="M 4631.5,5543.5 C 4630.67,5560.66 4630.17,5578 4630,5595.5C 4628.62,5596.55 4627.62,5597.88 4627,5599.5C 4622.91,5601.25 4619.75,5604.09 4617.5,5608C 4613.58,5609.58 4610.58,5612.25 4608.5,5616C 4604.63,5618.46 4600.96,5621.13 4597.5,5624C 4595.13,5626.04 4593.13,5628.37 4591.5,5631C 4587.63,5633.46 4583.96,5636.13 4580.5,5639C 4578.13,5641.04 4576.13,5643.37 4574.5,5646C 4570.63,5648.46 4566.96,5651.13 4563.5,5654C 4561.13,5656.04 4559.13,5658.37 4557.5,5661C 4553.63,5663.46 4549.96,5666.13 4546.5,5669C 4544.13,5671.04 4542.13,5673.37 4540.5,5676C 4536.92,5677.25 4534.25,5679.58 4532.5,5683C 4531.5,5683.33 4530.5,5683.67 4529.5,5684C 4522.58,5689.59 4516.25,5695.92 4510.5,5703C 4508.4,5704.77 4506.07,5706.1 4503.5,5707C 4501.6,5709.34 4499.6,5711.5 4497.5,5713.5C 4495.26,5714.39 4493.26,5715.72 4491.5,5717.5C 4490.06,5716.05 4488.39,5715.05 4486.5,5714.5C 4482.17,5710.83 4478.17,5706.83 4474.5,5702.5C 4470.44,5697.44 4465.77,5693.1 4460.5,5689.5C 4456.5,5686.17 4452.83,5682.5 4449.5,5678.5C 4445.44,5673.44 4440.77,5669.1 4435.5,5665.5C 4431.17,5661.83 4427.17,5657.83 4423.5,5653.5C 4419.44,5648.44 4414.77,5644.1 4409.5,5640.5C 4405.5,5637.17 4401.83,5633.5 4398.5,5629.5C 4394.44,5624.44 4389.77,5620.1 4384.5,5616.5C 4380.17,5612.83 4376.17,5608.83 4372.5,5604.5C 4368.44,5599.44 4363.77,5595.1 4358.5,5591.5C 4355.5,5589.17 4352.83,5586.5 4350.5,5583.5C 4350.67,5544.17 4350.5,5504.83 4350,5465.5C 4349.62,5464.94 4349.12,5464.61 4348.5,5464.5C 4348.83,4387.83 4348.5,3311.17 4347.5,2234.5C 4303.96,2210.88 4267.96,2178.71 4239.5,2138C 4089.78,2144.9 3943.44,2170.9 3800.5,2216C 3776.1,2223.8 3751.77,2231.8 3727.5,2240C 3642.47,2270.12 3557.13,2299.46 3471.5,2328C 3373.75,2359.42 3273.75,2380.08 3171.5,2390C 3110.72,2397.46 3049.72,2401.62 2988.5,2402.5C 3132.72,2774.61 3277.22,3146.61 3422,3518.5C 3473.76,3519.86 3525.59,3520.69 3577.5,3521C 3487.23,3642.87 3376.89,3741.87 3246.5,3818C 3038.48,3933.86 2818.15,3965.86 2585.5,3914C 2465.63,3884.74 2355.29,3835.08 2254.5,3765C 2155.97,3695.97 2070.64,3613.14 1998.5,3516.5C 2053.5,3516.34 2108.5,3516.01 2163.5,3515.5C 2337.89,3102.38 2512.56,2689.38 2687.5,2276.5C 2654.26,2251.09 2624.43,2222.09 2598,2189.5C 2559.69,2134.91 2539.53,2074.07 2537.5,2007C 2537.2,1971.7 2546.03,1938.87 2564,1908.5C 2582.03,1876.8 2604.19,1848.3 2630.5,1823C 2663.94,1797.97 2701.61,1787.3 2743.5,1791C 2766.89,1793.28 2789.56,1798.61 2811.5,1807C 2825.89,1812.44 2838.06,1820.94 2848,1832.5C 2856.7,1847 2859.7,1862.66 2857,1879.5C 2855.64,1890.62 2853.64,1901.62 2851,1912.5C 2843.91,1939.02 2836.74,1965.52 2829.5,1992C 2863.3,2079.75 2897.3,2167.42 2931.5,2255C 3026.01,2261.83 3119.34,2254.17 3211.5,2232C 3281.25,2215.75 3349.25,2194.08 3415.5,2167C 3460.66,2149.06 3505.66,2130.72 3550.5,2112C 3667.83,2060.44 3784.83,2008.11 3901.5,1955C 3972.73,1922.61 4047.06,1900.61 4124.5,1889C 4148.76,1885.95 4173.1,1883.62 4197.5,1882C 4222.74,1800.27 4272.74,1738.77 4347.5,1697.5C 4348.33,1580.83 4348.83,1464.17 4349,1347.5C 4352.97,1289.22 4381.14,1247.39 4433.5,1222C 4493.61,1199.49 4546.78,1210.33 4593,1254.5C 4615.95,1279.65 4628.61,1309.31 4631,1343.5C 4631.17,1461.5 4631.67,1579.5 4632.5,1697.5C 4705.97,1738.05 4755.64,1798.38 4781.5,1878.5C 4783.77,1879.31 4786.1,1879.81 4788.5,1880C 4885.11,1878.32 4979.11,1892.99 5070.5,1924C 5098.5,1934.17 5126.17,1945.17 5153.5,1957C 5276.36,2013.1 5399.69,2068.1 5523.5,2122C 5597.73,2153.44 5673.06,2182.11 5749.5,2208C 5836.43,2235.65 5925.43,2251.99 6016.5,2257C 6046.52,2257.89 6076.52,2257.55 6106.5,2256C 6144.39,2167.68 6181.89,2079.18 6219,1990.5C 6219.67,1988.5 6219.67,1986.5 6219,1984.5C 6209.03,1951.91 6200.69,1918.91 6194,1885.5C 6186.9,1847.86 6201.07,1822.03 6236.5,1808C 6275.53,1791.61 6315.86,1786.95 6357.5,1794C 6388.56,1800.44 6414.73,1815.27 6436,1838.5C 6462.08,1867.95 6483.42,1900.61 6500,1936.5C 6510.77,1965.22 6514.77,1994.89 6512,2025.5C 6506.89,2087.18 6486.23,2142.84 6450,2192.5C 6435.27,2210.24 6419.43,2227.07 6402.5,2243C 6386.13,2256.84 6369.79,2270.68 6353.5,2284.5C 6513.46,2696.09 6673.13,3107.75 6832.5,3519.5C 6884.5,3519.86 6936.5,3520.36 6988.5,3521C 6898.23,3642.87 6787.89,3741.87 6657.5,3818C 6439.73,3938.92 6210.06,3968.59 5968.5,3907C 5829.93,3867.9 5705.6,3802.9 5595.5,3712C 5526.04,3653.71 5464.04,3588.54 5409.5,3516.5C 5464.5,3516.34 5519.5,3516.01 5574.5,3515.5C 5731.37,3144.26 5888.37,2773.09 6045.5,2402C 5928.64,2398.42 5812.97,2384.76 5698.5,2361C 5654.98,2350.83 5611.98,2338.83 5569.5,2325C 5494.87,2300.12 5420.53,2274.46 5346.5,2248C 5250.25,2213.14 5151.92,2185.81 5051.5,2166C 4949.83,2147.28 4847.33,2136.78 4744,2134.5C 4722.6,2164.57 4697.1,2190.73 4667.5,2213C 4656.23,2220.76 4644.56,2227.93 4632.5,2234.5C 4631.5,3337.5 4631.17,4440.5 4631.5,5543.5 Z M 2687.5,1885.5 C 2676.4,1886.28 2666.4,1890.12 2657.5,1897C 2642.58,1913.01 2633.08,1931.84 2629,1953.5C 2623.57,2014.35 2634.57,2072.02 2662,2126.5C 2678.84,2151.34 2699.17,2173.01 2723,2191.5C 2754.78,2116.94 2786.28,2042.28 2817.5,1967.5C 2811.69,1951.54 2804.52,1936.21 2796,1921.5C 2787.6,1906.43 2775.1,1896.6 2758.5,1892C 2735.17,1886.38 2711.5,1884.21 2687.5,1885.5 Z M 6328.5,1885.5 C 6316.16,1886.78 6303.82,1888.95 6291.5,1892C 6279.83,1895.25 6270,1901.42 6262,1910.5C 6249.19,1928.88 6239.03,1948.72 6231.5,1970C 6261,2045.83 6290.5,2121.67 6320,2197.5C 6334.3,2185.54 6348.3,2173.21 6362,2160.5C 6372.55,2149.06 6381.88,2136.73 6390,2123.5C 6414.95,2072.35 6425.62,2018.35 6422,1961.5C 6420.81,1944.94 6415.81,1929.61 6407,1915.5C 6400.21,1902.04 6389.71,1892.87 6375.5,1888C 6359.93,1885.76 6344.26,1884.92 6328.5,1885.5 Z M 2837.5,2241.5 C 2827.44,2207.31 2816.77,2173.31 2805.5,2139.5C 2795.11,2167.67 2785.11,2196.01 2775.5,2224.5C 2776.09,2225.8 2777.09,2226.63 2778.5,2227C 2797.59,2234.18 2817.26,2239.02 2837.5,2241.5 Z M 6215.5,2139.5 C 6203.47,2175.24 6191.13,2210.91 6178.5,2246.5C 6179.33,2246.83 6180.17,2247.17 6181,2247.5C 6202.92,2243.88 6224.75,2239.88 6246.5,2235.5C 6237.3,2202.91 6226.97,2170.91 6215.5,2139.5 Z M 2743.5,2316.5 C 2604.63,2716.44 2465.97,3116.44 2327.5,3516.5C 2631.17,3517.69 2934.83,3518.52 3238.5,3519C 3119.47,3140.26 3000.64,2761.42 2882,2382.5C 2832.89,2366.52 2786.72,2344.52 2743.5,2316.5 Z M 6276.5,2334.5 C 6230.53,2361 6181.53,2380.16 6129.5,2392C 6128.57,2392.39 6127.91,2393.05 6127.5,2394C 5997.89,2768.17 5867.89,3142.17 5737.5,3516C 6041.17,3517.52 6344.83,3518.68 6648.5,3519.5C 6525.48,3124.93 6402.14,2730.43 6278.5,2336C 6278.16,2334.97 6277.5,2334.47 6276.5,2334.5 Z"/></g>
<g><path style="opacity:0.973" fill="#adadad" d="M 6774.5,1379.5 C 6778.1,1381.43 6781.1,1384.1 6783.5,1387.5C 6779.9,1385.57 6776.9,1382.9 6774.5,1379.5 Z"/></g>
<g><path style="opacity:0.957" fill="#a9a8a8" d="M 6802.5,1406.5 C 6807.77,1410.1 6812.44,1414.44 6816.5,1419.5C 6811.23,1415.9 6806.56,1411.56 6802.5,1406.5 Z"/></g>
<g><path style="opacity:0.008" fill="#9f9e9e" d="M 6851.5,1454.5 C 6855.9,1457.89 6859.56,1461.89 6862.5,1466.5C 6858.1,1463.11 6854.44,1459.11 6851.5,1454.5 Z"/></g>
<g><path style="opacity:0.008" fill="#9f9f9f" d="M 6887.5,1491.5 C 6889.59,1492.58 6890.92,1494.25 6891.5,1496.5C 6889.41,1495.42 6888.08,1493.75 6887.5,1491.5 Z"/></g>
<g><path style="opacity:1" fill="#ebc689" d="M 4348.5,5464.5 C 4349.12,5464.61 4349.62,5464.94 4350,5465.5C 4350.5,5504.83 4350.67,5544.17 4350.5,5583.5C 4349.83,5544.26 4349.16,5504.93 4348.5,5465.5C 4348.5,5465.17 4348.5,5464.83 4348.5,5464.5 Z"/></g>
<g><path style="opacity:1" fill="#e6c796" d="M 4358.5,5591.5 C 4363.77,5595.1 4368.44,5599.44 4372.5,5604.5C 4367.23,5600.9 4362.56,5596.56 4358.5,5591.5 Z"/></g>
<g><path style="opacity:1" fill="#e5c897" d="M 4384.5,5616.5 C 4389.77,5620.1 4394.44,5624.44 4398.5,5629.5C 4393.23,5625.9 4388.56,5621.56 4384.5,5616.5 Z"/></g>
<g><path style="opacity:1" fill="#e6c796" d="M 4409.5,5640.5 C 4414.77,5644.1 4419.44,5648.44 4423.5,5653.5C 4418.23,5649.9 4413.56,5645.56 4409.5,5640.5 Z"/></g>
<g><path style="opacity:0.475" fill="#aaa9a9" d="M 3596.5,5662.5 C 3595.83,5662.5 3595.5,5662.83 3595.5,5663.5C 3591.15,5662.83 3586.82,5662 3582.5,5661C 3587.39,5660.54 3592.05,5661.04 3596.5,5662.5 Z"/></g>
<g><path style="opacity:1" fill="#e5c897" d="M 4435.5,5665.5 C 4440.77,5669.1 4445.44,5673.44 4449.5,5678.5C 4444.23,5674.9 4439.56,5670.56 4435.5,5665.5 Z"/></g>
<g><path style="opacity:1" fill="#e6c796" d="M 4460.5,5689.5 C 4465.77,5693.1 4470.44,5697.44 4474.5,5702.5C 4469.23,5698.9 4464.56,5694.56 4460.5,5689.5 Z"/></g>
<g><path style="opacity:1" fill="#e5c795" d="M 4497.5,5713.5 C 4493.87,5720.24 4490.21,5720.57 4486.5,5714.5C 4488.39,5715.05 4490.06,5716.05 4491.5,5717.5C 4493.26,5715.72 4495.26,5714.39 4497.5,5713.5 Z"/></g>
<g><path style="opacity:0.965" fill="#a9a9a9" d="M 2369.5,5871.5 C 2375.11,5875.44 2380.11,5880.11 2384.5,5885.5C 2378.89,5881.56 2373.89,5876.89 2369.5,5871.5 Z"/></g>
<g><path style="opacity:1" fill="#bdbdbd" d="M 6404.5,5903.5 C 6399.77,5905.14 6394.77,5905.81 6389.5,5905.5C 6394.31,5904.41 6399.31,5903.74 6404.5,5903.5 Z"/></g>
<g><path style="opacity:0.961" fill="#aaaaaa" d="M 2128.5,6017.5 C 2132.57,6020.56 2135.9,6024.23 2138.5,6028.5C 2134.43,6025.44 2131.1,6021.77 2128.5,6017.5 Z"/></g>
<g><path style="opacity:0.878" fill="#afaeae" d="M 6878.5,6016.5 C 6874.9,6021.77 6870.56,6026.44 6865.5,6030.5C 6869.1,6025.23 6873.44,6020.56 6878.5,6016.5 Z"/></g>
<g><path style="opacity:0.969" fill="#bfbfbf" d="M 6823.5,6072.5 C 6817.78,6079.22 6811.44,6085.22 6804.5,6090.5C 6810.22,6083.78 6816.56,6077.78 6823.5,6072.5 Z"/></g>
<g><path style="opacity:0.008" fill="#9e9e9e" d="M 2217.5,6107.5 C 2220.76,6109.09 2223.43,6111.43 2225.5,6114.5C 2222.24,6112.91 2219.57,6110.57 2217.5,6107.5 Z"/></g>
<g><path style="opacity:0.008" fill="#9e9e9e" d="M 1780.5,6342.5 C 1782.91,6343.91 1784.58,6345.91 1785.5,6348.5C 1783.09,6347.09 1781.42,6345.09 1780.5,6342.5 Z"/></g>
<g><path style="opacity:0.008" fill="#a3a3a3" d="M 1809.5,6372.5 C 1815.89,6377.89 1821.56,6383.89 1826.5,6390.5C 1820.11,6385.11 1814.44,6379.11 1809.5,6372.5 Z"/></g>
<g><path style="opacity:0.937" fill="#b0b0b0" d="M 1826.5,6390.5 C 1830.83,6392.83 1834.17,6396.17 1836.5,6400.5C 1832.83,6397.5 1829.5,6394.17 1826.5,6390.5 Z"/></g>
<g><path style="opacity:0.953" fill="#aaaaaa" d="M 1847.5,6411.5 C 1856.11,6418.44 1864.11,6426.11 1871.5,6434.5C 1862.89,6427.56 1854.89,6419.89 1847.5,6411.5 Z"/></g>
<g><path style="opacity:0.998" fill="#e1a746" d="M 2209.5,7718.5 C 2295.32,7715.19 2378.65,7728.03 2459.5,7757C 2472.91,7761.8 2486.24,7766.8 2499.5,7772C 2543.29,7791.39 2586.95,7811.06 2630.5,7831C 2640.97,7835.23 2651.63,7838.9 2662.5,7842C 2684.51,7847.83 2704.51,7843.83 2722.5,7830C 2744.47,7809.91 2757.97,7785.08 2763,7755.5C 2765.55,7743.35 2767.72,7731.19 2769.5,7719C 2783.16,7718.5 2796.83,7718.33 2810.5,7718.5C 2810.5,7921.17 2810.5,8123.83 2810.5,8326.5C 2796.5,8326.5 2782.5,8326.5 2768.5,8326.5C 2755.21,8250.47 2732.38,8177.47 2700,8107.5C 2661.4,8025.23 2605.56,7957.06 2532.5,7903C 2434.56,7834.82 2327.89,7816.48 2212.5,7848C 2155.92,7866.61 2105.92,7895.94 2062.5,7936C 2000.47,7994.2 1953.97,8063.03 1923,8142.5C 1883.41,8251.8 1859.41,8364.46 1851,8480.5C 1838.81,8651.62 1849.48,8821.29 1883,8989.5C 1898.39,9069.99 1924.72,9146.66 1962,9219.5C 2046.39,9372.96 2176.55,9441.8 2352.5,9426C 2448.67,9415.73 2533.01,9379.06 2605.5,9316C 2645.78,9280.05 2682.95,9241.22 2717,9199.5C 2741.14,9169.21 2764.31,9138.21 2786.5,9106.5C 2787.67,9157.16 2787.83,9207.83 2787,9258.5C 2735.87,9326.63 2676.37,9386.46 2608.5,9438C 2513.77,9506.14 2407.77,9543.14 2290.5,9549C 2179.32,9556.5 2071.32,9541.5 1966.5,9504C 1803.01,9440.16 1679.17,9331.33 1595,9177.5C 1510.33,9017.83 1468.17,8847.5 1468.5,8666.5C 1469.12,8435.92 1534.28,8225.92 1664,8036.5C 1747.82,7918.67 1855.66,7830.17 1987.5,7771C 2058.56,7740.57 2132.56,7723.07 2209.5,7718.5 Z"/></g>
<g><path style="opacity:0.997" fill="#e1a746" d="M 7013.5,7718.5 C 7092.96,7713.63 7168.3,7728.79 7239.5,7764C 7266.32,7777.91 7292.65,7792.57 7318.5,7808C 7335.35,7817.09 7352.69,7825.09 7370.5,7832C 7408.96,7844.85 7435.13,7832.35 7449,7794.5C 7457.04,7769.67 7462.88,7744.33 7466.5,7718.5C 7477.83,7718.5 7489.17,7718.5 7500.5,7718.5C 7503.83,7913.5 7507.17,8108.5 7510.5,8303.5C 7495.92,8303.82 7481.42,8303.49 7467,8302.5C 7455.99,8214.11 7429.99,8130.44 7389,8051.5C 7348.99,7978.15 7294.82,7917.32 7226.5,7869C 7161.44,7825.24 7090.11,7809.24 7012.5,7821C 6955.73,7831.45 6910.56,7859.95 6877,7906.5C 6835.09,7965.71 6821.42,8031.05 6836,8102.5C 6843.7,8137.23 6858.37,8168.57 6880,8196.5C 6911.32,8237.16 6947.82,8272.33 6989.5,8302C 7068.98,8355.91 7149.98,8407.58 7232.5,8457C 7299.28,8499.91 7362.28,8547.91 7421.5,8601C 7533.42,8705.04 7592.25,8833.88 7598,8987.5C 7605.59,9163.83 7546.09,9312.67 7419.5,9434C 7323.54,9518.55 7211.2,9557.22 7082.5,9550C 7034.74,9547.72 6988.41,9538.38 6943.5,9522C 6899.15,9504.32 6855.82,9484.32 6813.5,9462C 6793.04,9452.34 6771.54,9446.51 6749,9444.5C 6731.83,9446 6716.33,9451.84 6702.5,9462C 6685.5,9474.67 6671.67,9490.17 6661,9508.5C 6653.74,9521.69 6647.57,9535.36 6642.5,9549.5C 6630.18,9550.5 6617.85,9550.83 6605.5,9550.5C 6605.5,9329.83 6605.5,9109.17 6605.5,8888.5C 6617.83,8888.5 6630.17,8888.5 6642.5,8888.5C 6657.45,8989.85 6686.62,9086.85 6730,9179.5C 6771.63,9264.81 6830.47,9335.98 6906.5,9393C 6955.06,9428.75 7009.39,9450.42 7069.5,9458C 7188.34,9469.51 7275.5,9423.01 7331,9318.5C 7360.73,9253.4 7365.73,9186.4 7346,9117.5C 7330.97,9070.41 7306.97,9028.74 7274,8992.5C 7249.63,8966.46 7223.13,8942.96 7194.5,8922C 7135.37,8879.92 7074.37,8840.59 7011.5,8804C 6955.09,8768.8 6900.43,8731.14 6847.5,8691C 6638.24,8527.58 6564.74,8316.08 6627,8056.5C 6658.51,7949.39 6718.01,7861.56 6805.5,7793C 6867.6,7748.24 6936.93,7723.41 7013.5,7718.5 Z"/></g>
<g><path style="opacity:0.998" fill="#e1a746" d="M 5240.5,7757.5 C 5455.17,7757.33 5669.83,7757.5 5884.5,7758C 5963.62,7758.3 6041.29,7768.97 6117.5,7790C 6243.4,7826.24 6333.9,7903.74 6389,8022.5C 6422.32,8099.75 6435.99,8180.42 6430,8264.5C 6425.5,8374.4 6388.5,8471.4 6319,8555.5C 6261.17,8620.03 6190.33,8664.19 6106.5,8688C 6064.2,8699.33 6021.2,8706.66 5977.5,8710C 5906.95,8715.65 5836.28,8718.49 5765.5,8718.5C 5765.33,8893.5 5765.5,9068.5 5766,9243.5C 5766.32,9272.21 5767.65,9300.88 5770,9329.5C 5771.01,9353.24 5776.35,9375.91 5786,9397.5C 5809.82,9436.85 5844.99,9458.02 5891.5,9461C 5915.1,9463.64 5938.76,9465.14 5962.5,9465.5C 5962.5,9480.5 5962.5,9495.5 5962.5,9510.5C 5721.83,9510.5 5481.17,9510.5 5240.5,9510.5C 5240.5,9495.5 5240.5,9480.5 5240.5,9465.5C 5276.65,9466.01 5312.32,9462.18 5347.5,9454C 5388.34,9439.83 5414.84,9412 5427,9370.5C 5430.48,9353.32 5432.81,9335.99 5434,9318.5C 5435.68,9294.86 5436.68,9271.2 5437,9247.5C 5437.67,8838.5 5437.67,8429.5 5437,8020.5C 5436.96,7980.93 5433.96,7941.59 5428,7902.5C 5413.45,7847.63 5377.95,7816.46 5321.5,7809C 5294.63,7805.29 5267.63,7803.46 5240.5,7803.5C 5240.5,7788.17 5240.5,7772.83 5240.5,7757.5 Z M 5765.5,7859.5 C 5939,7845.56 6041.16,7923.89 6072,8094.5C 6087.86,8192.61 6087.19,8290.61 6070,8388.5C 6062.04,8431.05 6047.38,8471.05 6026,8508.5C 5977.33,8583.6 5907.83,8620.6 5817.5,8619.5C 5800.13,8618.99 5782.79,8617.99 5765.5,8616.5C 5765.5,8364.17 5765.5,8111.83 5765.5,7859.5 Z"/></g>
<g><path style="opacity:0.998" fill="#e1a746" d="M -0.5,7757.5 C 394.833,7757.5 790.167,7757.5 1185.5,7757.5C 1185.5,7930.5 1185.5,8103.5 1185.5,8276.5C 1171.48,8276.83 1157.48,8276.5 1143.5,8275.5C 1134.08,8211.88 1119.24,8149.55 1099,8088.5C 1062.1,7978.26 987.929,7906.76 876.5,7874C 831.929,7865.31 786.929,7860.64 741.5,7860C 674.167,7859.5 606.834,7859.33 539.5,7859.5C 539.5,8096.83 539.5,8334.17 539.5,8571.5C 582.829,8574.83 624.829,8569 665.5,8554C 710.578,8534.59 744.411,8503.09 767,8459.5C 790.019,8414.45 806.686,8367.11 817,8317.5C 828.094,8265.34 835.594,8212.68 839.5,8159.5C 853.5,8159.5 867.5,8159.5 881.5,8159.5C 881.5,8465.5 881.5,8771.5 881.5,9077.5C 867.5,9077.5 853.5,9077.5 839.5,9077.5C 834.648,8999.41 819.482,8923.41 794,8849.5C 778.159,8805.12 755.159,8765.12 725,8729.5C 701.959,8705.55 674.125,8689.72 641.5,8682C 607.989,8673.89 573.989,8670.06 539.5,8670.5C 539.333,8860.5 539.5,9050.5 540,9240.5C 540.446,9260.2 541.446,9279.86 543,9299.5C 542.504,9340.68 559.004,9372.85 592.5,9396C 614.889,9406.81 638.555,9412.15 663.5,9412C 712.531,9413.1 761.531,9412.43 810.5,9410C 967.241,9397.75 1084.41,9323.91 1162,9188.5C 1202.3,9114.55 1230.8,9036.22 1247.5,8953.5C 1260.83,8953.5 1274.17,8953.5 1287.5,8953.5C 1266.43,9139.16 1245.43,9324.83 1224.5,9510.5C 816.167,9510.5 407.833,9510.5 -0.5,9510.5C -0.5,9495.5 -0.5,9480.5 -0.5,9465.5C 25.5477,9465.96 51.5477,9465.13 77.5,9463C 104.954,9459.63 129.621,9449.63 151.5,9433C 170.321,9414.54 182.821,9392.37 189,9366.5C 193.982,9337.39 196.648,9308.06 197,9278.5C 197.167,9061 197.333,8843.5 197.5,8626C 197.333,8408.5 197.167,8191 197,7973.5C 196.826,7951.38 195.159,7929.38 192,7907.5C 181.424,7860.26 153.257,7828.76 107.5,7813C 91.5876,7807.74 75.2542,7804.74 58.5,7804C 38.8362,7803.5 19.1695,7803.33 -0.5,7803.5C -0.5,7788.17 -0.5,7772.83 -0.5,7757.5 Z"/></g>
<g><path style="opacity:0.998" fill="#e1a746" d="M 2970.5,7757.5 C 3222.5,7757.5 3474.5,7757.5 3726.5,7757.5C 3726.5,7772.83 3726.5,7788.17 3726.5,7803.5C 3701.5,7803.33 3676.5,7803.5 3651.5,7804C 3617.47,7804.83 3586.8,7815.16 3559.5,7835C 3534.21,7859.08 3519.71,7888.58 3516,7923.5C 3512.94,7954.42 3511.27,7985.42 3511,8016.5C 3510.33,8415.5 3510.33,8814.5 3511,9213.5C 3510.98,9252.03 3513.64,9290.36 3519,9328.5C 3526.37,9370.2 3550.54,9396.04 3591.5,9406C 3619.02,9409.95 3646.69,9411.95 3674.5,9412C 3725.5,9412.67 3776.5,9412.67 3827.5,9412C 3889.23,9411.9 3946.57,9396.24 3999.5,9365C 4036.62,9339.54 4068.12,9308.38 4094,9271.5C 4128.76,9219.31 4156.1,9163.31 4176,9103.5C 4199.39,9035.59 4218.89,8966.59 4234.5,8896.5C 4249.83,8896.5 4265.17,8896.5 4280.5,8896.5C 4262.94,9101.18 4245.28,9305.84 4227.5,9510.5C 3808.5,9510.5 3389.5,9510.5 2970.5,9510.5C 2970.5,9495.5 2970.5,9480.5 2970.5,9465.5C 2998.92,9466.22 3027.26,9465.05 3055.5,9462C 3110.46,9453.69 3145.3,9422.86 3160,9369.5C 3165.98,9334.77 3168.98,9299.77 3169,9264.5C 3169.17,9054.33 3169.33,8844.17 3169.5,8634C 3169.33,8423.83 3169.17,8213.67 3169,8003.5C 3168.98,7966.9 3165.98,7930.57 3160,7894.5C 3152.75,7869.84 3138.92,7849.67 3118.5,7834C 3096.53,7816.89 3071.53,7807.23 3043.5,7805C 3019.19,7803.64 2994.86,7803.14 2970.5,7803.5C 2970.5,7788.17 2970.5,7772.83 2970.5,7757.5 Z"/></g>
<g><path style="opacity:0.998" fill="#e1a746" d="M 4397.5,7757.5 C 4643.83,7757.5 4890.17,7757.5 5136.5,7757.5C 5136.5,7772.83 5136.5,7788.17 5136.5,7803.5C 5116.83,7803.33 5097.16,7803.5 5077.5,7804C 4990.9,7808.93 4945.4,7854.76 4941,7941.5C 4939.4,7962.81 4938.4,7984.14 4938,8005.5C 4937.83,8215.17 4937.67,8424.83 4937.5,8634.5C 4937.67,8844.17 4937.83,9053.83 4938,9263.5C 4938.15,9298.7 4940.81,9333.7 4946,9368.5C 4958.61,9411.12 4985.78,9440.28 5027.5,9456C 5046.7,9461.98 5066.37,9464.98 5086.5,9465C 5103.16,9465.5 5119.83,9465.67 5136.5,9465.5C 5136.5,9480.5 5136.5,9495.5 5136.5,9510.5C 4890.17,9510.5 4643.83,9510.5 4397.5,9510.5C 4397.5,9495.5 4397.5,9480.5 4397.5,9465.5C 4425.92,9466.2 4454.26,9465.03 4482.5,9462C 4537.89,9453.6 4572.72,9422.43 4587,9368.5C 4590.12,9353.99 4592.12,9339.32 4593,9324.5C 4594.67,9301.2 4595.67,9277.86 4596,9254.5C 4596.17,9047.67 4596.33,8840.83 4596.5,8634C 4596.33,8427.17 4596.17,8220.33 4596,8013.5C 4595.67,7989.47 4594.67,7965.47 4593,7941.5C 4593.93,7882.81 4568.09,7840.98 4515.5,7816C 4501.01,7810.29 4486.01,7806.63 4470.5,7805C 4446.19,7803.64 4421.86,7803.14 4397.5,7803.5C 4397.5,7788.17 4397.5,7772.83 4397.5,7757.5 Z"/></g>
<g><path style="opacity:0.998" fill="#e1a746" d="M 9014.5,8953.5 C 9014.5,8956.83 9014.5,8960.17 9014.5,8963.5C 8993,9145.64 8972,9327.97 8951.5,9510.5C 8543.17,9510.5 8134.83,9510.5 7726.5,9510.5C 7726.5,9495.5 7726.5,9480.5 7726.5,9465.5C 7754.92,9466.2 7783.26,9465.03 7811.5,9462C 7868.9,9452.94 7904.06,9420.1 7917,9363.5C 7922.57,9323.71 7925.23,9283.71 7925,9243.5C 7925.67,8834.17 7925.67,8424.83 7925,8015.5C 7924.69,7991.16 7924.03,7966.82 7923,7942.5C 7920.69,7865.19 7881.52,7819.69 7805.5,7806C 7798.87,7805.03 7792.2,7804.36 7785.5,7804C 7765.84,7803.5 7746.17,7803.33 7726.5,7803.5C 7726.5,7788.17 7726.5,7772.83 7726.5,7757.5C 8121.83,7757.5 8517.17,7757.5 8912.5,7757.5C 8912.5,7930.5 8912.5,8103.5 8912.5,8276.5C 8898.5,8276.5 8884.5,8276.5 8870.5,8276.5C 8861.53,8214.29 8847.36,8153.29 8828,8093.5C 8793.46,7985.63 8722.63,7913.47 8615.5,7877C 8585.94,7869.55 8555.94,7864.89 8525.5,7863C 8506.85,7861.63 8488.19,7860.63 8469.5,7860C 8401.83,7859.5 8334.17,7859.33 8266.5,7859.5C 8266.5,8096.83 8266.5,8334.17 8266.5,8571.5C 8307.94,8574.61 8348.27,8569.45 8387.5,8556C 8433.59,8537.91 8468.43,8507.07 8492,8463.5C 8518.28,8413.33 8536.61,8360.33 8547,8304.5C 8556.7,8256.59 8563.2,8208.26 8566.5,8159.5C 8580.5,8159.5 8594.5,8159.5 8608.5,8159.5C 8608.5,8465.5 8608.5,8771.5 8608.5,9077.5C 8594.5,9077.5 8580.5,9077.5 8566.5,9077.5C 8561.86,9000.13 8547.03,8924.8 8522,8851.5C 8506.27,8807.86 8483.94,8768.19 8455,8732.5C 8432.32,8708.19 8404.82,8691.69 8372.5,8683C 8337.73,8674.19 8302.39,8670.03 8266.5,8670.5C 8266.33,8857.5 8266.5,9044.5 8267,9231.5C 8267.5,9257.21 8268.84,9282.88 8271,9308.5C 8272.75,9346.85 8289.58,9376.35 8321.5,9397C 8343.69,9407.14 8367.02,9412.14 8391.5,9412C 8427.5,9412.67 8463.5,9412.67 8499.5,9412C 8680.18,9410.07 8813.01,9330.24 8898,9172.5C 8933.39,9103.33 8959.06,9030.67 8975,8954.5C 8988.09,8953.51 9001.25,8953.18 9014.5,8953.5 Z"/></g>
<g><path style="opacity:0.72" fill="#adacac" d="M 6243.5,9816.5 C 6239.5,9816.5 6235.5,9816.5 6231.5,9816.5C 6231.74,9817.79 6231.4,9818.79 6230.5,9819.5C 6230.5,9818.17 6230.5,9816.83 6230.5,9815.5C 6235.03,9815.18 6239.37,9815.52 6243.5,9816.5 Z"/></g>
<g><path style="opacity:1" fill="#fdfdfd" d="M 2747.5,9816.5 C 2752.17,9816.5 2756.83,9816.5 2761.5,9816.5C 2761.5,9880.83 2761.5,9945.17 2761.5,10009.5C 2756.83,10009.5 2752.17,10009.5 2747.5,10009.5C 2734,9967.98 2712,9931.81 2681.5,9901C 2626.38,9851.14 2563.38,9837.81 2492.5,9861C 2458.39,9876.78 2433.22,9901.61 2417,9935.5C 2405.44,9960.72 2397.44,9987.05 2393,10014.5C 2380.59,10085.1 2381.92,10155.4 2397,10225.5C 2403.56,10257.4 2416.72,10286.1 2436.5,10311.5C 2439.5,10316.5 2443.5,10320.5 2448.5,10323.5C 2485.29,10353 2527.29,10364.9 2574.5,10359C 2594.7,10356.2 2614.37,10351.4 2633.5,10344.5C 2634.83,10324.3 2635.5,10303.8 2635.5,10283C 2635.5,10262.3 2635.17,10241.8 2634.5,10221.5C 2634.14,10210 2632.31,10198.6 2629,10187.5C 2623.88,10178.8 2616.71,10172.3 2607.5,10168C 2600.39,10165.2 2593.06,10163.4 2585.5,10162.5C 2579.36,10161.5 2573.02,10161.2 2566.5,10161.5C 2566.5,10157.2 2566.5,10152.8 2566.5,10148.5C 2651.83,10148.5 2737.17,10148.5 2822.5,10148.5C 2822.5,10152.8 2822.5,10157.2 2822.5,10161.5C 2821.21,10161.3 2820.21,10161.6 2819.5,10162.5C 2806.05,10163.9 2793.05,10167.4 2780.5,10173C 2772.72,10178.8 2767.22,10186.3 2764,10195.5C 2762.87,10245.1 2762.04,10294.8 2761.5,10344.5C 2700.01,10373.7 2635.34,10389.3 2567.5,10391.5C 2551.5,10391.5 2535.5,10391.5 2519.5,10391.5C 2419.64,10386.3 2341.14,10343 2284,10261.5C 2260.26,10223.6 2246.93,10182.3 2244,10137.5C 2236.06,10023.2 2277.9,9932.4 2369.5,9865C 2421.13,9831.05 2477.96,9814.55 2540,9815.5C 2567.25,9815.23 2594.08,9818.4 2620.5,9825C 2642.2,9831.68 2663.54,9839.35 2684.5,9848C 2693.26,9851.42 2702.26,9853.92 2711.5,9855.5C 2720.63,9854.52 2728.13,9850.52 2734,9843.5C 2739.57,9835.03 2744.07,9826.03 2747.5,9816.5 Z"/></g>
<g><path style="opacity:0.086" fill="#909090" d="M 2747.5,9816.5 C 2752.31,9815.51 2757.31,9815.18 2762.5,9815.5C 2762.5,9880.5 2762.5,9945.5 2762.5,10010.5C 2757.31,10010.8 2752.31,10010.5 2747.5,10009.5C 2752.17,10009.5 2756.83,10009.5 2761.5,10009.5C 2761.5,9945.17 2761.5,9880.83 2761.5,9816.5C 2756.83,9816.5 2752.17,9816.5 2747.5,9816.5 Z"/></g>
<g><path style="opacity:1" fill="#fcfcfc" d="M 4611.5,9819.5 C 4612.4,9818.79 4612.74,9817.79 4612.5,9816.5C 4617.5,9816.5 4622.5,9816.5 4627.5,9816.5C 4627.5,9879.83 4627.5,9943.17 4627.5,10006.5C 4621.87,10007 4616.53,10006.4 4611.5,10004.5C 4603.02,9967.88 4586.85,9935.21 4563,9906.5C 4513.64,9855.54 4455.14,9841.04 4387.5,9863C 4339.9,9883.26 4307.4,9917.76 4290,9966.5C 4268.84,10028.3 4262.5,10091.6 4271,10156.5C 4275.32,10200.1 4287.32,10241.5 4307,10280.5C 4333.44,10324.9 4372.6,10348.7 4424.5,10352C 4469.43,10355.8 4510.43,10345.1 4547.5,10320C 4556.66,10313 4565.66,10305.8 4574.5,10298.5C 4575.24,10298.6 4575.91,10298.5 4576.5,10298C 4583.43,10291.6 4589.76,10284.7 4595.5,10277.5C 4602.53,10269.5 4609.53,10261.5 4616.5,10253.5C 4617.5,10269.3 4617.83,10285.3 4617.5,10301.5C 4591.38,10330.7 4560.72,10353.9 4525.5,10371C 4496.15,10382.8 4465.82,10389.6 4434.5,10391.5C 4420.5,10391.5 4406.5,10391.5 4392.5,10391.5C 4325.24,10388.8 4265.91,10366 4214.5,10323C 4164.19,10274.2 4135.36,10214.7 4128,10144.5C 4120.57,10043.2 4153.4,9957.75 4226.5,9888C 4304.66,9821.3 4393.66,9800.96 4493.5,9827C 4518.2,9834.68 4542.53,9843.34 4566.5,9853C 4585.08,9858.79 4598.58,9852.96 4607,9835.5C 4608.82,9830.22 4610.32,9824.88 4611.5,9819.5 Z"/></g>
<g><path style="opacity:0.329" fill="#9c9c9c" d="M 4611.5,10004.5 C 4616.53,10006.4 4621.87,10007 4627.5,10006.5C 4627.5,9943.17 4627.5,9879.83 4627.5,9816.5C 4622.5,9816.5 4617.5,9816.5 4612.5,9816.5C 4612.74,9817.79 4612.4,9818.79 4611.5,9819.5C 4611.5,9818.17 4611.5,9816.83 4611.5,9815.5C 4617.17,9815.5 4622.83,9815.5 4628.5,9815.5C 4628.5,9879.5 4628.5,9943.5 4628.5,10007.5C 4622.83,10007.5 4617.17,10007.5 4611.5,10007.5C 4611.5,10006.5 4611.5,10005.5 4611.5,10004.5 Z"/></g>
<g><path style="opacity:1" fill="#fcfcfc" d="M 6230.5,9819.5 C 6231.4,9818.79 6231.74,9817.79 6231.5,9816.5C 6235.5,9816.5 6239.5,9816.5 6243.5,9816.5C 6244.93,9870.16 6245.93,9923.82 6246.5,9977.5C 6246.5,9984.83 6246.5,9992.17 6246.5,9999.5C 6241.5,9999.5 6236.5,9999.5 6231.5,9999.5C 6231.74,9998.21 6231.4,9997.21 6230.5,9996.5C 6224.27,9959.37 6208.93,9926.71 6184.5,9898.5C 6181.17,9893.17 6176.83,9888.83 6171.5,9885.5C 6150.76,9866.46 6126.43,9854.3 6098.5,9849C 6075.55,9845.29 6053.55,9848.29 6032.5,9858C 5999.49,9877.85 5987.99,9906.35 5998,9943.5C 6003.62,9954.43 6010.45,9964.43 6018.5,9973.5C 6019.58,9975.59 6021.25,9976.92 6023.5,9977.5C 6034.59,9987.22 6046.59,9995.72 6059.5,10003C 6086.52,10017.8 6113.85,10032.2 6141.5,10046C 6171.22,10062.2 6199.22,10080.9 6225.5,10102C 6273.21,10146.8 6289.71,10201.3 6275,10265.5C 6258.86,10317.3 6226.02,10354.5 6176.5,10377C 6156.06,10384.9 6135.06,10389.7 6113.5,10391.5C 6101.83,10391.5 6090.17,10391.5 6078.5,10391.5C 6046.68,10387.7 6016.35,10378.6 5987.5,10364C 5965.61,10353.9 5947.11,10358.1 5932,10376.5C 5928.89,10381.1 5926.06,10385.7 5923.5,10390.5C 5919.17,10390.5 5914.83,10390.5 5910.5,10390.5C 5910.5,10321.8 5910.5,10253.2 5910.5,10184.5C 5914.83,10184.5 5919.17,10184.5 5923.5,10184.5C 5931.3,10229.3 5949.3,10269.3 5977.5,10304.5C 5980.5,10309.5 5984.5,10313.5 5989.5,10316.5C 6013.27,10339.7 6041.6,10354.6 6074.5,10361C 6102.58,10365.7 6128.91,10361 6153.5,10347C 6191.05,10318 6199.21,10282.1 6178,10239.5C 6170.55,10229.1 6162.05,10219.6 6152.5,10211C 6140.02,10201.6 6127.02,10192.9 6113.5,10185C 6070.87,10163.7 6029.54,10140.4 5989.5,10115C 5958.71,10093.9 5935.54,10066.4 5920,10032.5C 5907.95,9998.71 5906.28,9964.37 5915,9929.5C 5921.64,9906.53 5933.14,9886.53 5949.5,9869.5C 5953.17,9866.5 5956.5,9863.17 5959.5,9859.5C 5991.22,9829.36 6029.22,9814.69 6073.5,9815.5C 6100.33,9815.57 6126,9821.07 6150.5,9832C 6166.49,9840.66 6183.15,9847.66 6200.5,9853C 6209.54,9854.06 6216.71,9850.89 6222,9843.5C 6225.34,9835.65 6228.17,9827.65 6230.5,9819.5 Z"/></g>
<g><path style="opacity:1" fill="#fdfdfd" d="M 3398.5,10378.5 C 3313.5,10378.5 3228.5,10378.5 3143.5,10378.5C 3143.5,10374.2 3143.5,10369.8 3143.5,10365.5C 3150.69,10365.8 3157.69,10365.5 3164.5,10364.5C 3175.48,10364 3185.81,10361.2 3195.5,10356C 3202.03,10350.9 3205.03,10344.3 3204.5,10336C 3204.41,10328.5 3202.91,10321.4 3200,10314.5C 3187.01,10284.3 3174.51,10254 3162.5,10223.5C 3132.01,10222.2 3101.17,10221.5 3070,10221.5C 3039,10221.5 3008.16,10221.8 2977.5,10222.5C 2967.74,10245.7 2958.24,10269 2949,10292.5C 2944.56,10305.9 2943.56,10319.6 2946,10333.5C 2950.84,10349.5 2961.68,10358.4 2978.5,10360C 2988.29,10361.7 2997.96,10363.2 3007.5,10364.5C 3008.92,10365.5 3010.59,10365.8 3012.5,10365.5C 3012.5,10369.8 3012.5,10374.2 3012.5,10378.5C 2954.17,10378.5 2895.83,10378.5 2837.5,10378.5C 2837.5,10373.8 2837.5,10369.2 2837.5,10364.5C 2859.3,10360.9 2876.8,10350.2 2890,10332.5C 2903.15,10311.9 2914.48,10290.2 2924,10267.5C 2988.06,10117.7 3052.39,9968.05 3117,9818.5C 3120.6,9816.9 3123.93,9817.23 3127,9819.5C 3197.17,9986.18 3268.17,10152.5 3340,10318.5C 3346.64,10332.6 3355.8,10344.8 3367.5,10355C 3376.99,10360.8 3387.32,10364 3398.5,10364.5C 3398.5,10369.2 3398.5,10373.8 3398.5,10378.5 Z M 3148.5,10190.5 C 3122.5,10191.2 3096.34,10191.5 3070,10191.5C 3043.49,10191.5 3017.32,10190.8 2991.5,10189.5C 3017.73,10128.7 3044.23,10068 3071,10007.5C 3096.85,10068.5 3122.68,10129.5 3148.5,10190.5 Z"/></g>
<g><path style="opacity:1" fill="#fdfdfd" d="M 5003.5,10391.5 C 4990.17,10391.5 4976.83,10391.5 4963.5,10391.5C 4845.89,10384 4765.06,10325.6 4721,10216.5C 4695.82,10143.4 4695.15,10070 4719,9996.5C 4743.23,9934.27 4784.06,9886.1 4841.5,9852C 4884.97,9829.01 4931.3,9818.84 4980.5,9821.5C 5100.36,9818.48 5186.52,9870.48 5239,9977.5C 5264.71,10040.3 5270.71,10105 5257,10171.5C 5239.98,10248.8 5198.81,10309.3 5133.5,10353C 5093.24,10376.4 5049.9,10389.2 5003.5,10391.5 Z M 4906.5,10332.5 C 4903.83,10329.2 4900.83,10326.2 4897.5,10323.5C 4874.53,10292.9 4859.7,10258.5 4853,10220.5C 4845.75,10182.2 4842.58,10143.5 4843.5,10104.5C 4842.53,10063.8 4846.03,10023.4 4854,9983.5C 4860.97,9948.9 4874.97,9917.57 4896,9889.5C 4928.94,9852.8 4969.44,9840.63 5017.5,9853C 5044.79,9860.72 5065.95,9876.55 5081,9900.5C 5103.32,9939.48 5115.99,9981.48 5119,10026.5C 5123.2,10074.8 5123.53,10123.1 5120,10171.5C 5117.35,10205.4 5110.35,10238.4 5099,10270.5C 5087.51,10302 5068.01,10327.2 5040.5,10346C 5010.09,10361.7 4978.42,10364.7 4945.5,10355C 4930.93,10350.1 4917.93,10342.6 4906.5,10332.5 Z"/></g>
<g><path style="opacity:0.686" fill="#afaeae" d="M 1444.5,9829.5 C 1350.83,9829.5 1257.17,9829.5 1163.5,9829.5C 1163.5,9833.83 1163.5,9838.17 1163.5,9842.5C 1172.02,9842.17 1180.35,9842.51 1188.5,9843.5C 1179.83,9843.5 1171.17,9843.5 1162.5,9843.5C 1162.5,9838.5 1162.5,9833.5 1162.5,9828.5C 1256.67,9828.17 1350.67,9828.5 1444.5,9829.5 Z"/></g>
<g><path style="opacity:0.686" fill="#b2b1b1" d="M 2121.5,9990.5 C 2126.17,9990.5 2130.83,9990.5 2135.5,9990.5C 2135.5,9936.83 2135.5,9883.17 2135.5,9829.5C 1988.83,9829.5 1842.17,9829.5 1695.5,9829.5C 1695.5,9833.83 1695.5,9838.17 1695.5,9842.5C 1703.35,9842.17 1711.02,9842.51 1718.5,9843.5C 1710.5,9843.5 1702.5,9843.5 1694.5,9843.5C 1694.5,9838.5 1694.5,9833.5 1694.5,9828.5C 1841.83,9828.5 1989.17,9828.5 2136.5,9828.5C 2136.5,9882.83 2136.5,9937.17 2136.5,9991.5C 2131.31,9991.82 2126.31,9991.49 2121.5,9990.5 Z"/></g>
<g><path style="opacity:0.686" fill="#aeadad" d="M 3673.5,9843.5 C 3683.99,9842.51 3694.65,9842.17 3705.5,9842.5C 3705.5,9838.17 3705.5,9833.83 3705.5,9829.5C 3611.83,9829.5 3518.17,9829.5 3424.5,9829.5C 3424.5,9833.83 3424.5,9838.17 3424.5,9842.5C 3433.02,9842.17 3441.35,9842.51 3449.5,9843.5C 3440.83,9843.5 3432.17,9843.5 3423.5,9843.5C 3423.5,9838.5 3423.5,9833.5 3423.5,9828.5C 3517.83,9828.5 3612.17,9828.5 3706.5,9828.5C 3706.5,9833.5 3706.5,9838.5 3706.5,9843.5C 3695.5,9843.5 3684.5,9843.5 3673.5,9843.5 Z"/></g>
<g><path style="opacity:0.686" fill="#aaa9a9" d="M 5674.5,9829.5 C 5732.66,9828.5 5791,9828.17 5849.5,9828.5C 5849.82,9833.69 5849.49,9838.69 5848.5,9843.5C 5848.5,9838.83 5848.5,9834.17 5848.5,9829.5C 5790.5,9829.5 5732.5,9829.5 5674.5,9829.5 Z"/></g>
<g><path style="opacity:0.686" fill="#afaeae" d="M 6576.5,9843.5 C 6584.98,9842.51 6593.65,9842.17 6602.5,9842.5C 6602.5,9838.17 6602.5,9833.83 6602.5,9829.5C 6511.83,9829.5 6421.17,9829.5 6330.5,9829.5C 6330.5,9833.83 6330.5,9838.17 6330.5,9842.5C 6335.36,9842.18 6340.03,9842.51 6344.5,9843.5C 6339.5,9843.5 6334.5,9843.5 6329.5,9843.5C 6329.5,9838.5 6329.5,9833.5 6329.5,9828.5C 6420.83,9828.5 6512.17,9828.5 6603.5,9828.5C 6603.5,9833.5 6603.5,9838.5 6603.5,9843.5C 6594.5,9843.5 6585.5,9843.5 6576.5,9843.5 Z"/></g>
<g><path style="opacity:0.686" fill="#b3b2b2" d="M 6854.5,9843.5 C 6860.31,9842.51 6866.31,9842.18 6872.5,9842.5C 6872.5,9838.17 6872.5,9833.83 6872.5,9829.5C 6812.17,9829.5 6751.83,9829.5 6691.5,9829.5C 6691.5,9833.83 6691.5,9838.17 6691.5,9842.5C 6695.37,9842.19 6699.04,9842.52 6702.5,9843.5C 6698.5,9843.5 6694.5,9843.5 6690.5,9843.5C 6690.5,9838.5 6690.5,9833.5 6690.5,9828.5C 6751.5,9828.5 6812.5,9828.5 6873.5,9828.5C 6873.5,9833.5 6873.5,9838.5 6873.5,9843.5C 6867.17,9843.5 6860.83,9843.5 6854.5,9843.5 Z"/></g>
<g><path style="opacity:0.686" fill="#afaeae" d="M 6904.5,9829.5 C 6998.33,9828.5 7092.33,9828.17 7186.5,9828.5C 7186.5,9833.5 7186.5,9838.5 7186.5,9843.5C 7175.5,9843.5 7164.5,9843.5 7153.5,9843.5C 7163.99,9842.51 7174.65,9842.17 7185.5,9842.5C 7185.5,9838.17 7185.5,9833.83 7185.5,9829.5C 7091.83,9829.5 6998.17,9829.5 6904.5,9829.5 Z"/></g>
<g><path style="opacity:0.686" fill="#acacac" d="M 7836.5,9974.5 C 7840.85,9976.35 7845.52,9977.01 7850.5,9976.5C 7850.5,9927.5 7850.5,9878.5 7850.5,9829.5C 7692.5,9829.5 7534.5,9829.5 7376.5,9829.5C 7376.5,9878.5 7376.5,9927.5 7376.5,9976.5C 7381.5,9976.5 7386.5,9976.5 7391.5,9976.5C 7386.36,9977.49 7381.03,9977.82 7375.5,9977.5C 7375.5,9927.83 7375.5,9878.17 7375.5,9828.5C 7534.17,9828.5 7692.83,9828.5 7851.5,9828.5C 7851.5,9878.17 7851.5,9927.83 7851.5,9977.5C 7846.5,9977.5 7841.5,9977.5 7836.5,9977.5C 7836.5,9976.5 7836.5,9975.5 7836.5,9974.5 Z"/></g>
<g><path style="opacity:1" fill="#fdfdfd" d="M 1444.5,9829.5 C 1444.5,9834.17 1444.5,9838.83 1444.5,9843.5C 1433.49,9843.33 1422.49,9843.5 1411.5,9844C 1395.1,9844.28 1381.94,9850.78 1372,9863.5C 1368.61,9868.68 1366.61,9874.35 1366,9880.5C 1364.35,10022.1 1364.01,10163.8 1365,10305.5C 1365.06,10333.9 1379.23,10347.7 1407.5,10347C 1435.83,10347.7 1464.17,10347.7 1492.5,10347C 1531.05,10345.1 1561.89,10329 1585,10298.5C 1598.28,10279.3 1608.95,10258.6 1617,10236.5C 1622.64,10219.8 1628.14,10203.1 1633.5,10186.5C 1639.17,10186.5 1644.83,10186.5 1650.5,10186.5C 1650.5,10188.2 1650.5,10189.8 1650.5,10191.5C 1644.74,10252.4 1638.4,10313 1631.5,10373.5C 1630.55,10374.9 1630.22,10376.6 1630.5,10378.5C 1474.83,10378.5 1319.17,10378.5 1163.5,10378.5C 1163.5,10374.2 1163.5,10369.8 1163.5,10365.5C 1171.68,10365.8 1179.68,10365.5 1187.5,10364.5C 1202.49,10363.6 1215.32,10357.9 1226,10347.5C 1230.43,10341.2 1233.1,10334.2 1234,10326.5C 1235,10318.5 1235.66,10310.5 1236,10302.5C 1236.67,10169.8 1236.67,10037.2 1236,9904.5C 1235.62,9896.14 1234.96,9887.81 1234,9879.5C 1232.94,9870.55 1229.11,9863.05 1222.5,9857C 1212.61,9848.89 1201.28,9844.39 1188.5,9843.5C 1180.35,9842.51 1172.02,9842.17 1163.5,9842.5C 1163.5,9838.17 1163.5,9833.83 1163.5,9829.5C 1257.17,9829.5 1350.83,9829.5 1444.5,9829.5 Z"/></g>
<g><path style="opacity:1" fill="#fdfdfd" d="M 2121.5,9990.5 C 2117.4,9970.44 2111.56,9950.77 2104,9931.5C 2089.44,9898.94 2064.94,9877.78 2030.5,9868C 2011.41,9863.59 1992.07,9861.09 1972.5,9860.5C 1947.01,9859.5 1921.34,9859.17 1895.5,9859.5C 1895.5,9934.5 1895.5,10009.5 1895.5,10084.5C 1902.69,10084.8 1909.69,10084.5 1916.5,10083.5C 1934.37,10082 1950.7,10076.3 1965.5,10066.5C 1969.83,10064.2 1973.17,10060.8 1975.5,10056.5C 1988.16,10038 1996.66,10017.7 2001,9995.5C 2003.39,9983.83 2005.56,9972.16 2007.5,9960.5C 2008.45,9959.08 2008.78,9957.41 2008.5,9955.5C 2013.5,9955.5 2018.5,9955.5 2023.5,9955.5C 2023.5,10051.2 2023.5,10146.8 2023.5,10242.5C 2018.5,10242.5 2013.5,10242.5 2008.5,10242.5C 2008.79,10240.3 2008.46,10238.3 2007.5,10236.5C 2004.38,10199.6 1991.54,10166.6 1969,10137.5C 1958.85,10127.5 1946.69,10121.3 1932.5,10119C 1923.88,10117.4 1915.21,10116.2 1906.5,10115.5C 1903.04,10114.5 1899.37,10114.2 1895.5,10114.5C 1895.17,10176.3 1895.5,10238 1896.5,10299.5C 1896.72,10309.8 1898.55,10319.8 1902,10329.5C 1907.49,10339 1915.66,10344.5 1926.5,10346C 1949.13,10347.6 1971.8,10347.9 1994.5,10347C 2065.38,10344 2115.54,10310.5 2145,10246.5C 2150.54,10233.1 2155.37,10219.4 2159.5,10205.5C 2164.41,10204.6 2169.41,10204.2 2174.5,10204.5C 2167.82,10260.6 2160.48,10316.6 2152.5,10372.5C 2151.54,10374.3 2151.21,10376.3 2151.5,10378.5C 1999.5,10378.5 1847.5,10378.5 1695.5,10378.5C 1695.5,10374.2 1695.5,10369.8 1695.5,10365.5C 1704.35,10365.8 1713.02,10365.5 1721.5,10364.5C 1735.64,10363 1747.8,10357.3 1758,10347.5C 1763.39,10339.3 1766.39,10330.3 1767,10320.5C 1768.64,10178.8 1768.98,10037.2 1768,9895.5C 1770,9873.99 1761.5,9858.49 1742.5,9849C 1734.74,9846.08 1726.74,9844.25 1718.5,9843.5C 1711.02,9842.51 1703.35,9842.17 1695.5,9842.5C 1695.5,9838.17 1695.5,9833.83 1695.5,9829.5C 1842.17,9829.5 1988.83,9829.5 2135.5,9829.5C 2135.5,9883.17 2135.5,9936.83 2135.5,9990.5C 2130.83,9990.5 2126.17,9990.5 2121.5,9990.5 Z"/></g>
<g><path style="opacity:1" fill="#fdfdfd" d="M 3673.5,9843.5 C 3642.54,9845.29 3626.7,9861.63 3626,9892.5C 3625.33,10029.5 3625.33,10166.5 3626,10303.5C 3625.88,10313.8 3628.21,10323.5 3633,10332.5C 3638.51,10340.2 3646.01,10344.7 3655.5,10346C 3691.5,10348 3727.5,10348 3763.5,10346C 3793.25,10343 3818.08,10330.5 3838,10308.5C 3854.84,10287.8 3867.84,10264.8 3877,10239.5C 3883.34,10222 3889.18,10204.3 3894.5,10186.5C 3900.17,10186.5 3905.83,10186.5 3911.5,10186.5C 3911.5,10188.5 3911.5,10190.5 3911.5,10192.5C 3905.82,10253.6 3899.49,10314.6 3892.5,10375.5C 3891.6,10376.2 3891.26,10377.2 3891.5,10378.5C 3735.83,10378.5 3580.17,10378.5 3424.5,10378.5C 3424.5,10374.2 3424.5,10369.8 3424.5,10365.5C 3433.35,10365.8 3442.02,10365.5 3450.5,10364.5C 3461.73,10363.1 3472.06,10359.3 3481.5,10353C 3489.02,10346.1 3493.52,10337.6 3495,10327.5C 3496,10320.5 3496.66,10313.5 3497,10306.5C 3497.67,10171.2 3497.67,10035.8 3497,9900.5C 3499.46,9866.14 3483.63,9847.14 3449.5,9843.5C 3441.35,9842.51 3433.02,9842.17 3424.5,9842.5C 3424.5,9838.17 3424.5,9833.83 3424.5,9829.5C 3518.17,9829.5 3611.83,9829.5 3705.5,9829.5C 3705.5,9833.83 3705.5,9838.17 3705.5,9842.5C 3694.65,9842.17 3683.99,9842.51 3673.5,9843.5 Z"/></g>
<g><path style="opacity:1" fill="#fdfdfd" d="M 5748.5,10167.5 C 5748.78,10168.3 5749.28,10169 5750,10169.5C 5750.83,10082.3 5750.67,9995.33 5749.5,9908.5C 5748.41,9869.92 5728.75,9848.42 5690.5,9844C 5685.18,9843.5 5679.84,9843.33 5674.5,9843.5C 5674.5,9838.83 5674.5,9834.17 5674.5,9829.5C 5732.5,9829.5 5790.5,9829.5 5848.5,9829.5C 5848.5,9834.17 5848.5,9838.83 5848.5,9843.5C 5833.42,9845.28 5818.75,9848.78 5804.5,9854C 5794.1,9862.09 5787.27,9872.59 5784,9885.5C 5781.51,9897.43 5780.01,9909.43 5779.5,9921.5C 5778.5,10077.7 5778.17,10234 5778.5,10390.5C 5774.17,10390.5 5769.83,10390.5 5765.5,10390.5C 5646.41,10239.1 5528.08,10087.1 5410.5,9934.5C 5410.44,9933.96 5410.11,9933.62 5409.5,9933.5C 5408.17,10052.7 5408.17,10171.7 5409.5,10290.5C 5408.82,10332.8 5429.16,10357.5 5470.5,10364.5C 5476.98,10365.5 5483.65,10365.8 5490.5,10365.5C 5490.5,10369.8 5490.5,10374.2 5490.5,10378.5C 5427.83,10378.5 5365.17,10378.5 5302.5,10378.5C 5302.5,10373.8 5302.5,10369.2 5302.5,10364.5C 5323.79,10365.5 5343.13,10360 5360.5,10348C 5372.01,10335.1 5378.18,10320 5379,10302.5C 5379.67,10166.2 5379.67,10029.8 5379,9893.5C 5369.31,9878.8 5357.81,9865.64 5344.5,9854C 5331.52,9846.5 5317.52,9843 5302.5,9843.5C 5302.5,9838.5 5302.5,9833.5 5302.5,9828.5C 5365.17,9828.33 5427.83,9828.5 5490.5,9829C 5576.88,9941.62 5662.88,10054.5 5748.5,10167.5 Z"/></g>
<g><path style="opacity:1" fill="#fdfdfd" d="M 6576.5,9843.5 C 6559.73,9843.03 6545.89,9849.03 6535,9861.5C 6531.13,9868.33 6528.79,9875.66 6528,9883.5C 6526.97,9894.14 6526.3,9904.81 6526,9915.5C 6525.33,10013.8 6525.33,10112.2 6526,10210.5C 6525.89,10234.4 6528.22,10258.1 6533,10281.5C 6545.62,10319.4 6571.79,10341.6 6611.5,10348C 6644.48,10352.8 6675.48,10347.1 6704.5,10331C 6736.96,10308.3 6755.8,10277.1 6761,10237.5C 6764.08,10213.9 6765.75,10190.3 6766,10166.5C 6766.67,10083.5 6766.67,10000.5 6766,9917.5C 6766.53,9900.64 6763.19,9884.64 6756,9869.5C 6750.35,9857.85 6741.19,9850.69 6728.5,9848C 6719.92,9845.89 6711.25,9844.39 6702.5,9843.5C 6699.04,9842.52 6695.37,9842.19 6691.5,9842.5C 6691.5,9838.17 6691.5,9833.83 6691.5,9829.5C 6751.83,9829.5 6812.17,9829.5 6872.5,9829.5C 6872.5,9833.83 6872.5,9838.17 6872.5,9842.5C 6866.31,9842.18 6860.31,9842.51 6854.5,9843.5C 6824.93,9846.91 6807.43,9863.24 6802,9892.5C 6801.02,9900.14 6800.36,9907.81 6800,9915.5C 6799.95,10011.5 6799.28,10107.5 6798,10203.5C 6797,10227.5 6793.67,10251.2 6788,10274.5C 6778.7,10304.1 6761.87,10328.6 6737.5,10348C 6712.42,10368.5 6683.75,10381.5 6651.5,10387C 6640.06,10388.8 6628.73,10390.3 6617.5,10391.5C 6603.5,10391.5 6589.5,10391.5 6575.5,10391.5C 6521.57,10391.1 6475.74,10371.8 6438,10333.5C 6421.17,10313.8 6410.17,10291.2 6405,10265.5C 6401.91,10251.7 6399.91,10237.7 6399,10223.5C 6398.67,10121.8 6398.33,10020.2 6398,9918.5C 6397.8,9905.47 6397.13,9892.47 6396,9879.5C 6394.29,9864.45 6386.45,9853.95 6372.5,9848C 6363.27,9845.71 6353.94,9844.21 6344.5,9843.5C 6340.03,9842.51 6335.36,9842.18 6330.5,9842.5C 6330.5,9838.17 6330.5,9833.83 6330.5,9829.5C 6421.17,9829.5 6511.83,9829.5 6602.5,9829.5C 6602.5,9833.83 6602.5,9838.17 6602.5,9842.5C 6593.65,9842.17 6584.98,9842.51 6576.5,9843.5 Z"/></g>
<g><path style="opacity:1" fill="#fefefe" d="M 6904.5,9829.5 C 6998.17,9829.5 7091.83,9829.5 7185.5,9829.5C 7185.5,9833.83 7185.5,9838.17 7185.5,9842.5C 7174.65,9842.17 7163.99,9842.51 7153.5,9843.5C 7143.04,9844.79 7133.04,9847.96 7123.5,9853C 7112.8,9861.58 7107.3,9872.74 7107,9886.5C 7105.38,10019.2 7105.04,10151.8 7106,10284.5C 7105.77,10298.3 7107.1,10312 7110,10325.5C 7117.93,10341.9 7131.1,10349.1 7149.5,10347C 7177.5,10347.7 7205.5,10347.7 7233.5,10347C 7260.2,10345.7 7284.2,10337.2 7305.5,10321.5C 7311.17,10317.8 7315.83,10313.2 7319.5,10307.5C 7338.6,10283.7 7352.76,10257 7362,10227.5C 7366.33,10214.5 7370.49,10201.5 7374.5,10188.5C 7380.21,10186.6 7386.21,10185.9 7392.5,10186.5C 7392.5,10187.5 7392.5,10188.5 7392.5,10189.5C 7386.75,10250.3 7380.41,10310.9 7373.5,10371.5C 7372.53,10373.6 7372.2,10375.9 7372.5,10378.5C 7216.5,10378.5 7060.5,10378.5 6904.5,10378.5C 6904.5,10373.8 6904.5,10369.2 6904.5,10364.5C 6919.79,10365.5 6934.79,10364 6949.5,10360C 6968.78,10351.7 6977.94,10336.8 6977,10315.5C 6977.33,10307.2 6977.67,10298.8 6978,10290.5C 6978.67,10165.8 6978.67,10041.2 6978,9916.5C 6978.13,9901.36 6976.79,9886.36 6974,9871.5C 6968.46,9859.97 6959.63,9851.8 6947.5,9847C 6933.35,9843.86 6919.02,9842.7 6904.5,9843.5C 6904.5,9838.83 6904.5,9834.17 6904.5,9829.5 Z"/></g>
<g><path style="opacity:1" fill="#fefefe" d="M 7836.5,9974.5 C 7830.58,9950.97 7822.08,9928.31 7811,9906.5C 7791.62,9877.55 7764.45,9862.22 7729.5,9860.5C 7711.67,9859.5 7693.67,9859.17 7675.5,9859.5C 7675.17,10010.7 7675.5,10161.7 7676.5,10312.5C 7676.76,10343.8 7692.43,10361.1 7723.5,10364.5C 7731.98,10365.5 7740.65,10365.8 7749.5,10365.5C 7749.5,10369.8 7749.5,10374.2 7749.5,10378.5C 7658.17,10378.5 7566.83,10378.5 7475.5,10378.5C 7475.5,10374.2 7475.5,10369.8 7475.5,10365.5C 7484.35,10365.8 7493.02,10365.5 7501.5,10364.5C 7536.27,10359.7 7551.94,10339.7 7548.5,10304.5C 7549.5,10156.3 7549.83,10008 7549.5,9859.5C 7531.99,9859.17 7514.66,9859.5 7497.5,9860.5C 7460.94,9861.29 7433.44,9877.29 7415,9908.5C 7402.86,9929.77 7395.02,9952.44 7391.5,9976.5C 7386.5,9976.5 7381.5,9976.5 7376.5,9976.5C 7376.5,9927.5 7376.5,9878.5 7376.5,9829.5C 7534.5,9829.5 7692.5,9829.5 7850.5,9829.5C 7850.5,9878.5 7850.5,9927.5 7850.5,9976.5C 7845.52,9977.01 7840.85,9976.35 7836.5,9974.5 Z"/></g>
<g><path style="opacity:0.592" fill="#adabab" d="M 1972.5,9860.5 C 1947.17,9860.5 1921.83,9860.5 1896.5,9860.5C 1896.5,9934.83 1896.5,10009.2 1896.5,10083.5C 1903.17,10083.5 1909.83,10083.5 1916.5,10083.5C 1909.69,10084.5 1902.69,10084.8 1895.5,10084.5C 1895.5,10009.5 1895.5,9934.5 1895.5,9859.5C 1921.34,9859.17 1947.01,9859.5 1972.5,9860.5 Z"/></g>
<g><path style="opacity:0.761" fill="#b6b5b5" d="M 7497.5,9860.5 C 7514.66,9859.5 7531.99,9859.17 7549.5,9859.5C 7549.83,10008 7549.5,10156.3 7548.5,10304.5C 7548.5,10156.5 7548.5,10008.5 7548.5,9860.5C 7531.5,9860.5 7514.5,9860.5 7497.5,9860.5 Z"/></g>
<g><path style="opacity:0.565" fill="#a8a7a7" d="M 7729.5,9860.5 C 7711.83,9860.5 7694.17,9860.5 7676.5,9860.5C 7676.5,10011.2 7676.5,10161.8 7676.5,10312.5C 7675.5,10161.7 7675.17,10010.7 7675.5,9859.5C 7693.67,9859.17 7711.67,9859.5 7729.5,9860.5 Z"/></g>
<g><path style="opacity:0.859" fill="#acabab" d="M 5959.5,9859.5 C 5956.5,9863.17 5953.17,9866.5 5949.5,9869.5C 5951.83,9865.17 5955.17,9861.83 5959.5,9859.5 Z"/></g>
<g><path style="opacity:0.976" fill="#a7a6a6" d="M 6171.5,9885.5 C 6176.83,9888.83 6181.17,9893.17 6184.5,9898.5C 6179.83,9894.5 6175.5,9890.17 6171.5,9885.5 Z"/></g>
<g><path style="opacity:0.008" fill="#828282" d="M 5749.5,9908.5 C 5750.67,9995.33 5750.83,10082.3 5750,10169.5C 5749.28,10169 5748.78,10168.3 5748.5,10167.5C 5749.5,10081.3 5749.83,9995 5749.5,9908.5 Z"/></g>
<g><path style="opacity:0.965" fill="#dbdbdb" d="M 5779.5,9921.5 C 5779.5,10078.2 5779.5,10234.8 5779.5,10391.5C 5774.83,10391.5 5770.17,10391.5 5765.5,10391.5C 5765.5,10391.2 5765.5,10390.8 5765.5,10390.5C 5769.83,10390.5 5774.17,10390.5 5778.5,10390.5C 5778.17,10234 5778.5,10077.7 5779.5,9921.5 Z"/></g>
<g><path style="opacity:0.977" fill="#e0e0e0" d="M 5410.5,9934.5 C 5409.5,10053 5409.17,10171.7 5409.5,10290.5C 5408.17,10171.7 5408.17,10052.7 5409.5,9933.5C 5410.11,9933.62 5410.44,9933.96 5410.5,9934.5 Z"/></g>
<g><path style="opacity:0.29" fill="#999999" d="M 2007.5,10236.5 C 2008.46,10238.3 2008.79,10240.3 2008.5,10242.5C 2013.5,10242.5 2018.5,10242.5 2023.5,10242.5C 2023.5,10146.8 2023.5,10051.2 2023.5,9955.5C 2018.5,9955.5 2013.5,9955.5 2008.5,9955.5C 2008.78,9957.41 2008.45,9959.08 2007.5,9960.5C 2007.5,9958.5 2007.5,9956.5 2007.5,9954.5C 2013.17,9954.5 2018.83,9954.5 2024.5,9954.5C 2024.5,10050.8 2024.5,10147.2 2024.5,10243.5C 2018.83,10243.5 2013.17,10243.5 2007.5,10243.5C 2007.5,10241.2 2007.5,10238.8 2007.5,10236.5 Z"/></g>
<g><path style="opacity:0.008" fill="#9b9b9b" d="M 6018.5,9973.5 C 6020.75,9974.08 6022.42,9975.41 6023.5,9977.5C 6021.25,9976.92 6019.58,9975.59 6018.5,9973.5 Z"/></g>
<g><path style="opacity:0.791" fill="#acabab" d="M 6246.5,9977.5 C 6247.49,9984.98 6247.83,9992.65 6247.5,10000.5C 6241.83,10000.5 6236.17,10000.5 6230.5,10000.5C 6230.5,9999.17 6230.5,9997.83 6230.5,9996.5C 6231.4,9997.21 6231.74,9998.21 6231.5,9999.5C 6236.5,9999.5 6241.5,9999.5 6246.5,9999.5C 6246.5,9992.17 6246.5,9984.83 6246.5,9977.5 Z"/></g>
<g><path style="opacity:0.906" fill="#bab9b9" d="M 1975.5,10056.5 C 1973.17,10060.8 1969.83,10064.2 1965.5,10066.5C 1968.5,10062.8 1971.83,10059.5 1975.5,10056.5 Z"/></g>
<g><path style="opacity:0.592" fill="#aba9a9" d="M 1906.5,10115.5 C 1903.17,10115.5 1899.83,10115.5 1896.5,10115.5C 1896.5,10176.8 1896.5,10238.2 1896.5,10299.5C 1895.5,10238 1895.17,10176.3 1895.5,10114.5C 1899.37,10114.2 1903.04,10114.5 1906.5,10115.5 Z"/></g>
<g><path style="opacity:0.702" fill="#afafaf" d="M 2819.5,10162.5 C 2820.21,10161.6 2821.21,10161.3 2822.5,10161.5C 2822.5,10157.2 2822.5,10152.8 2822.5,10148.5C 2737.17,10148.5 2651.83,10148.5 2566.5,10148.5C 2566.5,10152.8 2566.5,10157.2 2566.5,10161.5C 2573.02,10161.2 2579.36,10161.5 2585.5,10162.5C 2578.83,10162.5 2572.17,10162.5 2565.5,10162.5C 2565.5,10157.5 2565.5,10152.5 2565.5,10147.5C 2651.5,10147.5 2737.5,10147.5 2823.5,10147.5C 2823.5,10152.5 2823.5,10157.5 2823.5,10162.5C 2822.17,10162.5 2820.83,10162.5 2819.5,10162.5 Z"/></g>
<g><path style="opacity:0.992" fill="#e6e5e5" d="M 5923.5,10184.5 C 5919.17,10184.5 5914.83,10184.5 5910.5,10184.5C 5910.5,10253.2 5910.5,10321.8 5910.5,10390.5C 5914.83,10390.5 5919.17,10390.5 5923.5,10390.5C 5923.5,10390.8 5923.5,10391.2 5923.5,10391.5C 5918.83,10391.5 5914.17,10391.5 5909.5,10391.5C 5909.5,10322.2 5909.5,10252.8 5909.5,10183.5C 5914.36,10183.2 5919.03,10183.5 5923.5,10184.5 Z"/></g>
<g><path style="opacity:0.722" fill="#abaaaa" d="M 1633.5,10186.5 C 1639.31,10185.5 1645.31,10185.2 1651.5,10185.5C 1651.79,10187.7 1651.46,10189.7 1650.5,10191.5C 1650.5,10189.8 1650.5,10188.2 1650.5,10186.5C 1644.83,10186.5 1639.17,10186.5 1633.5,10186.5 Z"/></g>
<g><path style="opacity:0.722" fill="#adacac" d="M 3894.5,10186.5 C 3900.31,10185.5 3906.31,10185.2 3912.5,10185.5C 3912.8,10188.1 3912.47,10190.4 3911.5,10192.5C 3911.5,10190.5 3911.5,10188.5 3911.5,10186.5C 3905.83,10186.5 3900.17,10186.5 3894.5,10186.5 Z"/></g>
<g><path style="opacity:0.722" fill="#abaaaa" d="M 7392.5,10189.5 C 7392.5,10188.5 7392.5,10187.5 7392.5,10186.5C 7386.21,10185.9 7380.21,10186.6 7374.5,10188.5C 7374.5,10187.5 7374.5,10186.5 7374.5,10185.5C 7380.83,10185.5 7387.17,10185.5 7393.5,10185.5C 7393.77,10187.1 7393.43,10188.4 7392.5,10189.5 Z"/></g>
<g><path style="opacity:0.737" fill="#b2b1b1" d="M 2991.5,10189.5 C 3017.32,10190.8 3043.49,10191.5 3070,10191.5C 3096.34,10191.5 3122.5,10191.2 3148.5,10190.5C 3149.04,10190.6 3149.38,10190.9 3149.5,10191.5C 3096.5,10192.5 3043.5,10192.8 2990.5,10192.5C 2990.26,10191.2 2990.6,10190.2 2991.5,10189.5 Z"/></g>
<g><path style="opacity:0.722" fill="#adacac" d="M 2174.5,10204.5 C 2169.41,10204.2 2164.41,10204.6 2159.5,10205.5C 2161.74,10204.2 2164.41,10203.5 2167.5,10203.5C 2170.61,10203.4 2172.95,10203.8 2174.5,10204.5 Z"/></g>
<g><path style="opacity:0.765" fill="#b4b4b4" d="M 2977.5,10222.5 C 3008.16,10221.8 3039,10221.5 3070,10221.5C 3101.17,10221.5 3132.01,10222.2 3162.5,10223.5C 3100.9,10222.5 3039.24,10222.2 2977.5,10222.5 Z"/></g>
<g><path style="opacity:0.977" fill="#e1e1e1" d="M 2634.5,10221.5 C 2635.17,10241.8 2635.5,10262.3 2635.5,10283C 2635.5,10303.8 2634.83,10324.3 2633.5,10344.5C 2634.49,10303.6 2634.83,10262.6 2634.5,10221.5 Z"/></g>
<g><path style="opacity:0.816" fill="#b9b9b9" d="M 4617.5,10301.5 C 4617.83,10285.3 4617.5,10269.3 4616.5,10253.5C 4616.78,10252.7 4617.28,10252 4618,10251.5C 4618.83,10268.3 4618.66,10285 4617.5,10301.5 Z"/></g>
<g><path style="opacity:0.969" fill="#bebebe" d="M 4595.5,10277.5 C 4589.76,10284.7 4583.43,10291.6 4576.5,10298C 4575.91,10298.5 4575.24,10298.6 4574.5,10298.5C 4581.17,10291.2 4588.17,10284.2 4595.5,10277.5 Z"/></g>
<g><path style="opacity:0.98" fill="#a9a9a9" d="M 5977.5,10304.5 C 5981.83,10308.2 5985.83,10312.2 5989.5,10316.5C 5984.5,10313.5 5980.5,10309.5 5977.5,10304.5 Z"/></g>
<g><path style="opacity:0.976" fill="#a6a6a6" d="M 2436.5,10311.5 C 2440.83,10315.2 2444.83,10319.2 2448.5,10323.5C 2443.5,10320.5 2439.5,10316.5 2436.5,10311.5 Z"/></g>
<g><path style="opacity:0.851" fill="#b2b2b2" d="M 7319.5,10307.5 C 7315.83,10313.2 7311.17,10317.8 7305.5,10321.5C 7309.83,10316.5 7314.5,10311.8 7319.5,10307.5 Z"/></g>
<g><path style="opacity:0.976" fill="#adadad" d="M 4897.5,10323.5 C 4900.83,10326.2 4903.83,10329.2 4906.5,10332.5C 4902.5,10330.5 4899.5,10327.5 4897.5,10323.5 Z"/></g>
<g><path style="opacity:0.78" fill="#b7b7b7" d="M 1187.5,10364.5 C 1179.68,10365.5 1171.68,10365.8 1163.5,10365.5C 1163.5,10369.8 1163.5,10374.2 1163.5,10378.5C 1319.17,10378.5 1474.83,10378.5 1630.5,10378.5C 1630.22,10376.6 1630.55,10374.9 1631.5,10373.5C 1631.5,10375.5 1631.5,10377.5 1631.5,10379.5C 1475.17,10379.5 1318.83,10379.5 1162.5,10379.5C 1162.5,10374.5 1162.5,10369.5 1162.5,10364.5C 1170.83,10364.5 1179.17,10364.5 1187.5,10364.5 Z"/></g>
<g><path style="opacity:0.78" fill="#b6b6b6" d="M 1721.5,10364.5 C 1713.02,10365.5 1704.35,10365.8 1695.5,10365.5C 1695.5,10369.8 1695.5,10374.2 1695.5,10378.5C 1847.5,10378.5 1999.5,10378.5 2151.5,10378.5C 2151.21,10376.3 2151.54,10374.3 2152.5,10372.5C 2152.5,10374.8 2152.5,10377.2 2152.5,10379.5C 1999.83,10379.5 1847.17,10379.5 1694.5,10379.5C 1694.5,10374.5 1694.5,10369.5 1694.5,10364.5C 1703.5,10364.5 1712.5,10364.5 1721.5,10364.5 Z"/></g>
<g><path style="opacity:0.78" fill="#b5b5b5" d="M 2837.5,10364.5 C 2837.5,10369.2 2837.5,10373.8 2837.5,10378.5C 2895.83,10378.5 2954.17,10378.5 3012.5,10378.5C 3012.5,10374.2 3012.5,10369.8 3012.5,10365.5C 3010.59,10365.8 3008.92,10365.5 3007.5,10364.5C 3009.5,10364.5 3011.5,10364.5 3013.5,10364.5C 3013.5,10369.5 3013.5,10374.5 3013.5,10379.5C 2954.5,10379.5 2895.5,10379.5 2836.5,10379.5C 2836.18,10374.3 2836.51,10369.3 2837.5,10364.5 Z"/></g>
<g><path style="opacity:0.78" fill="#b7b7b7" d="M 3164.5,10364.5 C 3157.69,10365.5 3150.69,10365.8 3143.5,10365.5C 3143.5,10369.8 3143.5,10374.2 3143.5,10378.5C 3228.5,10378.5 3313.5,10378.5 3398.5,10378.5C 3313.33,10379.5 3228,10379.8 3142.5,10379.5C 3142.5,10374.5 3142.5,10369.5 3142.5,10364.5C 3149.83,10364.5 3157.17,10364.5 3164.5,10364.5 Z"/></g>
<g><path style="opacity:0.78" fill="#b7b6b6" d="M 3450.5,10364.5 C 3442.02,10365.5 3433.35,10365.8 3424.5,10365.5C 3424.5,10369.8 3424.5,10374.2 3424.5,10378.5C 3580.17,10378.5 3735.83,10378.5 3891.5,10378.5C 3891.26,10377.2 3891.6,10376.2 3892.5,10375.5C 3892.5,10376.8 3892.5,10378.2 3892.5,10379.5C 3736.17,10379.5 3579.83,10379.5 3423.5,10379.5C 3423.5,10374.5 3423.5,10369.5 3423.5,10364.5C 3432.5,10364.5 3441.5,10364.5 3450.5,10364.5 Z"/></g>
<g><path style="opacity:0.78" fill="#b6b6b6" d="M 5470.5,10364.5 C 5477.5,10364.5 5484.5,10364.5 5491.5,10364.5C 5491.5,10369.5 5491.5,10374.5 5491.5,10379.5C 5428.33,10379.8 5365.33,10379.5 5302.5,10378.5C 5365.17,10378.5 5427.83,10378.5 5490.5,10378.5C 5490.5,10374.2 5490.5,10369.8 5490.5,10365.5C 5483.65,10365.8 5476.98,10365.5 5470.5,10364.5 Z"/></g>
<g><path style="opacity:0.78" fill="#b6b6b6" d="M 7373.5,10371.5 C 7373.5,10374.2 7373.5,10376.8 7373.5,10379.5C 7217,10379.8 7060.67,10379.5 6904.5,10378.5C 7060.5,10378.5 7216.5,10378.5 7372.5,10378.5C 7372.2,10375.9 7372.53,10373.6 7373.5,10371.5 Z"/></g>
<g><path style="opacity:0.78" fill="#b6b6b6" d="M 7501.5,10364.5 C 7493.02,10365.5 7484.35,10365.8 7475.5,10365.5C 7475.5,10369.8 7475.5,10374.2 7475.5,10378.5C 7566.83,10378.5 7658.17,10378.5 7749.5,10378.5C 7749.5,10374.2 7749.5,10369.8 7749.5,10365.5C 7740.65,10365.8 7731.98,10365.5 7723.5,10364.5C 7732.5,10364.5 7741.5,10364.5 7750.5,10364.5C 7750.5,10369.5 7750.5,10374.5 7750.5,10379.5C 7658.5,10379.5 7566.5,10379.5 7474.5,10379.5C 7474.5,10374.5 7474.5,10369.5 7474.5,10364.5C 7483.5,10364.5 7492.5,10364.5 7501.5,10364.5 Z"/></g>
</svg>
