<?xml version="1.0" encoding="UTF-8"?>
<!DOCTYPE svg PUBLIC "-//W3C//DTD SVG 1.1//EN" "http://www.w3.org/Graphics/SVG/1.1/DTD/svg11.dtd">
<svg xmlns="http://www.w3.org/2000/svg" version="1.1" width="9015px" height="10392px" style="shape-rendering:geometricPrecision; text-rendering:geometricPrecision; image-rendering:optimizeQuality; fill-rule:evenodd; clip-rule:evenodd" xmlns:xlink="http://www.w3.org/1999/xlink">
<g><path style="opacity:0.999" fill="#1f1d1d" d="M 4419.5,-0.5 C 4477.5,-0.5 4535.5,-0.5 4593.5,-0.5C 5175.07,14.0584 5724.4,154.225 6241.5,420C 6764.9,693.301 7202.06,1068.47 7553,1545.5C 7867.75,1977.92 8081.08,2457.25 8193,2983.5C 8298.6,3495.1 8298.94,4006.77 8194,4518.5C 8088.7,5017.61 7891.36,5475.61 7602,5892.5C 7547.69,5969.82 7490.69,6045.15 7431,6118.5C 7431.99,6122.13 7433.82,6125.47 7436.5,6128.5C 7351.07,6245.89 7256.07,6355.73 7151.5,6458C 7045.08,6561.13 6928.42,6650.46 6801.5,6726C 6568.69,6860.71 6317.69,6935.71 6048.5,6951C 5902.61,6959.45 5757.28,6953.79 5612.5,6934C 5493.24,6894.8 5376.57,6849.14 5262.5,6797C 5135.46,6738.98 5009.79,6677.98 4885.5,6614C 4678.48,6506.16 4471.15,6398.82 4263.5,6292C 4088.37,6202.6 3910.7,6118.93 3730.5,6041C 3588.3,5980.04 3442.97,5927.37 3294.5,5883C 3170.51,5846 3044.18,5820.67 2915.5,5807C 2805.36,5795.52 2695.69,5798.85 2586.5,5817C 2570.44,5820.08 2554.44,5823.41 2538.5,5827C 2493.04,5850.55 2449.37,5876.89 2407.5,5906C 2406.5,5906.67 2405.5,5906.67 2404.5,5906C 2388.36,5890.86 2372.53,5875.36 2357,5859.5C 2523.06,5598.05 2757.89,5431.88 3061.5,5361C 3197.57,5331.33 3335.24,5318.66 3474.5,5323C 3605.36,5326.82 3735.36,5339.49 3864.5,5361C 4027.41,5388.61 4188.74,5423.45 4348.5,5465.5C 4349.33,5504.76 4349.83,5544.1 4350,5583.5C 4396.71,5629.38 4443.88,5674.71 4491.5,5719.5C 4537.82,5679.02 4583.98,5638.35 4630,5597.5C 4630.17,5579.66 4630.67,5562 4631.5,5544.5C 4858.51,5610.89 5085.51,5677.39 5312.5,5744C 5453.68,5784.21 5596.01,5819.88 5739.5,5851C 5850.84,5875 5963.17,5892.67 6076.5,5904C 6186.89,5915.59 6297.22,5915.25 6407.5,5903C 6507.07,5891.78 6601.73,5864.11 6691.5,5820C 6725.86,5801.83 6758.52,5781.17 6789.5,5758C 6790.76,5757.02 6792.09,5756.68 6793.5,5757C 6810.3,5772.06 6826.63,5787.56 6842.5,5803.5C 6702.41,6025.15 6501.74,6155.32 6240.5,6194C 6156.91,6206.01 6072.91,6210.35 5988.5,6207C 5862.33,6201.27 5737.33,6185.94 5613.5,6161C 5469.16,6131.83 5326.16,6097.16 5184.5,6057C 5119.44,6038.54 5054.44,6019.87 4989.5,6001C 4778.82,5937.11 4567.48,5875.44 4355.5,5816C 4198.97,5772.76 4040.97,5735.76 3881.5,5705C 3788.42,5687.04 3694.75,5673.37 3600.5,5664C 3705.26,5687.94 3808.26,5717.94 3909.5,5754C 4027.1,5796.75 4143.1,5843.42 4257.5,5894C 4423.74,5969.12 4589.74,6044.79 4755.5,6121C 4905.93,6189.59 5058.93,6251.92 5214.5,6308C 5362.31,6360.94 5513.31,6402.27 5667.5,6432C 5746.55,6447.17 5826.21,6457.51 5906.5,6463C 6107.07,6472.69 6295.74,6430.02 6472.5,6335C 6573.99,6279.16 6667.99,6212.83 6754.5,6136C 6845.69,6054.16 6929.85,5965.99 7007,5871.5C 7049.86,5819.43 7091.03,5766.1 7130.5,5711.5C 7131.17,5710.17 7131.83,5710.17 7132.5,5711.5C 7134.14,5714.3 7135.97,5716.97 7138,5719.5C 7465.14,5282.98 7671.47,4793.65 7757,4251.5C 7830.69,3760.44 7796.35,3277.1 7654,2801.5C 7525.51,2385.4 7324.51,2010.4 7051,1676.5C 6709.39,1264.22 6292.89,951.724 5801.5,739C 5351.6,548.456 4882.26,461.123 4393.5,477C 3828.29,497.941 3302.96,652.275 2817.5,940C 2383.28,1201.34 2026.78,1544.18 1748,1968.5C 1466.32,2402.79 1296.32,2878.12 1238,3394.5C 1185.59,3884.15 1239.26,4361.82 1399,4827.5C 1545.72,5243.55 1765.05,5614.55 2057,5940.5C 2385.66,6303.78 2775.5,6581.61 3226.5,6774C 3713.63,6977.02 4220.63,7060.02 4747.5,7023C 4897.61,7012.17 5046.28,6991.17 5193.5,6960C 5195.83,6959.33 5198.17,6959.33 5200.5,6960C 5420.87,7049.4 5641.21,7138.9 5861.5,7228.5C 5861.83,7229.67 5862.17,7230.83 5862.5,7232C 5861.92,7240.73 5861.26,7249.4 5860.5,7258C 5369.56,7444.8 4861.56,7526.8 4336.5,7504C 3735.07,7475.94 3172.4,7314.61 2648.5,7020C 2216.14,6773.77 1845.31,6454.27 1536,6061.5C 1238.09,5679.72 1021.09,5254.39 885,4785.5C 749.913,4307.38 709.913,3821.38 765,3327.5C 833.644,2740.48 1028.31,2200.14 1349,1706.5C 1668.32,1221.84 2076.15,830.004 2572.5,531C 3083.3,227.524 3635.63,53.5244 4229.5,9C 4292.93,4.60676 4356.27,1.44009 4419.5,-0.5 Z M 2687.5,1885.5 C 2711.5,1884.21 2735.17,1886.38 2758.5,1892C 2775.1,1896.6 2787.6,1906.43 2796,1921.5C 2804.52,1936.21 2811.69,1951.54 2817.5,1967.5C 2786.28,2042.28 2754.78,2116.94 2723,2191.5C 2699.17,2173.01 2678.84,2151.34 2662,2126.5C 2634.57,2072.02 2623.57,2014.35 2629,1953.5C 2633.08,1931.84 2642.58,1913.01 2657.5,1897C 2666.4,1890.12 2676.4,1886.28 2687.5,1885.5 Z M 6328.5,1885.5 C 6344.26,1884.92 6359.93,1885.76 6375.5,1888C 6389.71,1892.87 6400.21,1902.04 6407,1915.5C 6415.81,1929.61 6420.81,1944.94 6422,1961.5C 6425.62,2018.35 6414.95,2072.35 6390,2123.5C 6381.88,2136.73 6372.55,2149.06 6362,2160.5C 6348.3,2173.21 6334.3,2185.54 6320,2197.5C 6290.5,2121.67 6261,2045.83 6231.5,1970C 6239.03,1948.72 6249.19,1928.88 6262,1910.5C 6270,1901.42 6279.83,1895.25 6291.5,1892C 6303.82,1888.95 6316.16,1886.78 6328.5,1885.5 Z M 2837.5,2241.5 C 2817.26,2239.02 2797.59,2234.18 2778.5,2227C 2777.09,2226.63 2776.09,2225.8 2775.5,2224.5C 2785.11,2196.01 2795.11,2167.67 2805.5,2139.5C 2816.77,2173.31 2827.44,2207.31 2837.5,2241.5 Z M 6215.5,2139.5 C 6226.97,2170.91 6237.3,2202.91 6246.5,2235.5C 6224.75,2239.88 6202.92,2243.88 6181,2247.5C 6180.17,2247.17 6179.33,2246.83 6178.5,2246.5C 6191.13,2210.91 6203.47,2175.24 6215.5,2139.5 Z M 2743.5,2316.5 C 2786.72,2344.52 2832.89,2366.52 2882,2382.5C 3000.64,2761.42 3119.47,3140.26 3238.5,3519C 2934.83,3518.52 2631.17,3517.69 2327.5,3516.5C 2465.97,3116.44 2604.63,2716.44 2743.5,2316.5 Z M 6276.5,2334.5 C 6277.5,2334.47 6278.16,2334.97 6278.5,2336C 6402.14,2730.43 6525.48,3124.93 6648.5,3519.5C 6344.83,3518.68 6041.17,3517.52 5737.5,3516C 5867.89,3142.17 5997.89,2768.17 6127.5,2394C 6127.91,2393.05 6128.57,2392.39 6129.5,2392C 6181.53,2380.16 6230.53,2361 6276.5,2334.5 Z"/></g>
<g><path style="opacity:0.998" fill="#e1a746" d="M 4631.5,5544.5 C 4630.67,5562 4630.17,5579.66 4630,5597.5C 4583.98,5638.35 4537.82,5679.02 4491.5,5719.5C 4443.88,5674.71 4396.71,5629.38 4350,5583.5C 4349.83,5544.1 4349.33,5504.76 4348.5,5465.5C 4348.83,4388.5 4348.5,3311.5 4347.5,2234.5C 4303.96,2210.88 4267.96,2178.71 4239.5,2138C 4089.78,2144.9 3943.44,2170.9 3800.5,2216C 3776.1,2223.8 3751.77,2231.8 3727.5,2240C 3642.47,2270.12 3557.13,2299.46 3471.5,2328C 3373.75,2359.42 3273.75,2380.08 3171.5,2390C 3110.72,2397.46 3049.72,2401.62 2988.5,2402.5C 3132.72,2774.61 3277.22,3146.61 3422,3518.5C 3473.76,3519.86 3525.59,3520.69 3577.5,3521C 3487.23,3642.87 3376.89,3741.87 3246.5,3818C 3038.48,3933.86 2818.15,3965.86 2585.5,3914C 2465.63,3884.74 2355.29,3835.08 2254.5,3765C 2155.97,3695.97 2070.64,3613.14 1998.5,3516.5C 2053.5,3516.34 2108.5,3516.01 2163.5,3515.5C 2337.89,3102.38 2512.56,2689.38 2687.5,2276.5C 2654.26,2251.09 2624.43,2222.09 2598,2189.5C 2559.69,2134.91 2539.53,2074.07 2537.5,2007C 2537.2,1971.7 2546.03,1938.87 2564,1908.5C 2582.03,1876.8 2604.19,1848.3 2630.5,1823C 2663.94,1797.97 2701.61,1787.3 2743.5,1791C 2766.89,1793.28 2789.56,1798.61 2811.5,1807C 2825.89,1812.44 2838.06,1820.94 2848,1832.5C 2856.7,1847 2859.7,1862.66 2857,1879.5C 2855.64,1890.62 2853.64,1901.62 2851,1912.5C 2843.91,1939.02 2836.74,1965.52 2829.5,1992C 2863.3,2079.75 2897.3,2167.42 2931.5,2255C 3026.01,2261.83 3119.34,2254.17 3211.5,2232C 3281.25,2215.75 3349.25,2194.08 3415.5,2167C 3460.66,2149.06 3505.66,2130.72 3550.5,2112C 3667.83,2060.44 3784.83,2008.11 3901.5,1955C 3972.73,1922.61 4047.06,1900.61 4124.5,1889C 4148.76,1885.95 4173.1,1883.62 4197.5,1882C 4222.74,1800.27 4272.74,1738.77 4347.5,1697.5C 4348.33,1580.83 4348.83,1464.17 4349,1347.5C 4352.97,1289.22 4381.14,1247.39 4433.5,1222C 4493.61,1199.49 4546.78,1210.33 4593,1254.5C 4615.95,1279.65 4628.61,1309.31 4631,1343.5C 4631.17,1461.5 4631.67,1579.5 4632.5,1697.5C 4705.97,1738.05 4755.64,1798.38 4781.5,1878.5C 4783.77,1879.31 4786.1,1879.81 4788.5,1880C 4885.11,1878.32 4979.11,1892.99 5070.5,1924C 5098.5,1934.17 5126.17,1945.17 5153.5,1957C 5276.36,2013.1 5399.69,2068.1 5523.5,2122C 5597.73,2153.44 5673.06,2182.11 5749.5,2208C 5836.43,2235.65 5925.43,2251.99 6016.5,2257C 6046.52,2257.89 6076.52,2257.55 6106.5,2256C 6144.39,2167.68 6181.89,2079.18 6219,1990.5C 6219.67,1988.5 6219.67,1986.5 6219,1984.5C 6209.03,1951.91 6200.69,1918.91 6194,1885.5C 6186.9,1847.86 6201.07,1822.03 6236.5,1808C 6275.53,1791.61 6315.86,1786.95 6357.5,1794C 6388.56,1800.44 6414.73,1815.27 6436,1838.5C 6462.08,1867.95 6483.42,1900.61 6500,1936.5C 6510.77,1965.22 6514.77,1994.89 6512,2025.5C 6506.89,2087.18 6486.23,2142.84 6450,2192.5C 6435.27,2210.24 6419.43,2227.07 6402.5,2243C 6386.13,2256.84 6369.79,2270.68 6353.5,2284.5C 6513.46,2696.09 6673.13,3107.75 6832.5,3519.5C 6884.5,3519.86 6936.5,3520.36 6988.5,3521C 6898.23,3642.87 6787.89,3741.87 6657.5,3818C 6439.73,3938.92 6210.06,3968.59 5968.5,3907C 5829.93,3867.9 5705.6,3802.9 5595.5,3712C 5526.04,3653.71 5464.04,3588.54 5409.5,3516.5C 5464.5,3516.34 5519.5,3516.01 5574.5,3515.5C 5731.37,3144.26 5888.37,2773.09 6045.5,2402C 5928.64,2398.42 5812.97,2384.76 5698.5,2361C 5654.98,2350.83 5611.98,2338.83 5569.5,2325C 5494.87,2300.12 5420.53,2274.46 5346.5,2248C 5250.25,2213.14 5151.92,2185.81 5051.5,2166C 4949.83,2147.28 4847.33,2136.78 4744,2134.5C 4722.6,2164.57 4697.1,2190.73 4667.5,2213C 4656.23,2220.76 4644.56,2227.93 4632.5,2234.5C 4631.5,3337.83 4631.17,4441.17 4631.5,5544.5 Z M 2687.5,1885.5 C 2676.4,1886.28 2666.4,1890.12 2657.5,1897C 2642.58,1913.01 2633.08,1931.84 2629,1953.5C 2623.57,2014.35 2634.57,2072.02 2662,2126.5C 2678.84,2151.34 2699.17,2173.01 2723,2191.5C 2754.78,2116.94 2786.28,2042.28 2817.5,1967.5C 2811.69,1951.54 2804.52,1936.21 2796,1921.5C 2787.6,1906.43 2775.1,1896.6 2758.5,1892C 2735.17,1886.38 2711.5,1884.21 2687.5,1885.5 Z M 6328.5,1885.5 C 6316.16,1886.78 6303.82,1888.95 6291.5,1892C 6279.83,1895.25 6270,1901.42 6262,1910.5C 6249.19,1928.88 6239.03,1948.72 6231.5,1970C 6261,2045.83 6290.5,2121.67 6320,2197.5C 6334.3,2185.54 6348.3,2173.21 6362,2160.5C 6372.55,2149.06 6381.88,2136.73 6390,2123.5C 6414.95,2072.35 6425.62,2018.35 6422,1961.5C 6420.81,1944.94 6415.81,1929.61 6407,1915.5C 6400.21,1902.04 6389.71,1892.87 6375.5,1888C 6359.93,1885.76 6344.26,1884.92 6328.5,1885.5 Z M 2837.5,2241.5 C 2827.44,2207.31 2816.77,2173.31 2805.5,2139.5C 2795.11,2167.67 2785.11,2196.01 2775.5,2224.5C 2776.09,2225.8 2777.09,2226.63 2778.5,2227C 2797.59,2234.18 2817.26,2239.02 2837.5,2241.5 Z M 6215.5,2139.5 C 6203.47,2175.24 6191.13,2210.91 6178.5,2246.5C 6179.33,2246.83 6180.17,2247.17 6181,2247.5C 6202.92,2243.88 6224.75,2239.88 6246.5,2235.5C 6237.3,2202.91 6226.97,2170.91 6215.5,2139.5 Z M 2743.5,2316.5 C 2604.63,2716.44 2465.97,3116.44 2327.5,3516.5C 2631.17,3517.69 2934.83,3518.52 3238.5,3519C 3119.47,3140.26 3000.64,2761.42 2882,2382.5C 2832.89,2366.52 2786.72,2344.52 2743.5,2316.5 Z M 6276.5,2334.5 C 6230.53,2361 6181.53,2380.16 6129.5,2392C 6128.57,2392.39 6127.91,2393.05 6127.5,2394C 5997.89,2768.17 5867.89,3142.17 5737.5,3516C 6041.17,3517.52 6344.83,3518.68 6648.5,3519.5C 6525.48,3124.93 6402.14,2730.43 6278.5,2336C 6278.16,2334.97 6277.5,2334.47 6276.5,2334.5 Z"/></g>
<g><path style="opacity:0.998" fill="#e1a746" d="M 2209.5,7718.5 C 2295.32,7715.19 2378.65,7728.03 2459.5,7757C 2472.91,7761.8 2486.24,7766.8 2499.5,7772C 2543.29,7791.39 2586.95,7811.06 2630.5,7831C 2640.97,7835.23 2651.63,7838.9 2662.5,7842C 2684.51,7847.83 2704.51,7843.83 2722.5,7830C 2744.47,7809.91 2757.97,7785.08 2763,7755.5C 2765.55,7743.35 2767.72,7731.19 2769.5,7719C 2783.16,7718.5 2796.83,7718.33 2810.5,7718.5C 2810.5,7921.17 2810.5,8123.83 2810.5,8326.5C 2796.5,8326.5 2782.5,8326.5 2768.5,8326.5C 2755.21,8250.47 2732.38,8177.47 2700,8107.5C 2661.4,8025.23 2605.56,7957.06 2532.5,7903C 2434.56,7834.82 2327.89,7816.48 2212.5,7848C 2155.92,7866.61 2105.92,7895.94 2062.5,7936C 2000.47,7994.2 1953.97,8063.03 1923,8142.5C 1883.41,8251.8 1859.41,8364.46 1851,8480.5C 1838.81,8651.62 1849.48,8821.29 1883,8989.5C 1898.39,9069.99 1924.72,9146.66 1962,9219.5C 2046.39,9372.96 2176.55,9441.8 2352.5,9426C 2448.67,9415.73 2533.01,9379.06 2605.5,9316C 2645.78,9280.05 2682.95,9241.22 2717,9199.5C 2741.14,9169.21 2764.31,9138.21 2786.5,9106.5C 2787.67,9157.16 2787.83,9207.83 2787,9258.5C 2735.87,9326.63 2676.37,9386.46 2608.5,9438C 2513.77,9506.14 2407.77,9543.14 2290.5,9549C 2179.32,9556.5 2071.32,9541.5 1966.5,9504C 1803.01,9440.16 1679.17,9331.33 1595,9177.5C 1510.33,9017.83 1468.17,8847.5 1468.5,8666.5C 1469.12,8435.92 1534.28,8225.92 1664,8036.5C 1747.82,7918.67 1855.66,7830.17 1987.5,7771C 2058.56,7740.57 2132.56,7723.07 2209.5,7718.5 Z"/></g>
<g><path style="opacity:0.997" fill="#e1a746" d="M 7013.5,7718.5 C 7092.96,7713.63 7168.3,7728.79 7239.5,7764C 7266.32,7777.91 7292.65,7792.57 7318.5,7808C 7335.35,7817.09 7352.69,7825.09 7370.5,7832C 7408.96,7844.85 7435.13,7832.35 7449,7794.5C 7457.04,7769.67 7462.88,7744.33 7466.5,7718.5C 7477.83,7718.5 7489.17,7718.5 7500.5,7718.5C 7503.83,7913.5 7507.17,8108.5 7510.5,8303.5C 7495.92,8303.82 7481.42,8303.49 7467,8302.5C 7455.99,8214.11 7429.99,8130.44 7389,8051.5C 7348.99,7978.15 7294.82,7917.32 7226.5,7869C 7161.44,7825.24 7090.11,7809.24 7012.5,7821C 6955.73,7831.45 6910.56,7859.95 6877,7906.5C 6835.09,7965.71 6821.42,8031.05 6836,8102.5C 6843.7,8137.23 6858.37,8168.57 6880,8196.5C 6911.32,8237.16 6947.82,8272.33 6989.5,8302C 7068.98,8355.91 7149.98,8407.58 7232.5,8457C 7299.28,8499.91 7362.28,8547.91 7421.5,8601C 7533.42,8705.04 7592.25,8833.88 7598,8987.5C 7605.59,9163.83 7546.09,9312.67 7419.5,9434C 7323.54,9518.55 7211.2,9557.22 7082.5,9550C 7034.74,9547.72 6988.41,9538.38 6943.5,9522C 6899.15,9504.32 6855.82,9484.32 6813.5,9462C 6793.04,9452.34 6771.54,9446.51 6749,9444.5C 6731.83,9446 6716.33,9451.84 6702.5,9462C 6685.5,9474.67 6671.67,9490.17 6661,9508.5C 6653.74,9521.69 6647.57,9535.36 6642.5,9549.5C 6630.18,9550.5 6617.85,9550.83 6605.5,9550.5C 6605.5,9329.83 6605.5,9109.17 6605.5,8888.5C 6617.83,8888.5 6630.17,8888.5 6642.5,8888.5C 6657.45,8989.85 6686.62,9086.85 6730,9179.5C 6771.63,9264.81 6830.47,9335.98 6906.5,9393C 6955.06,9428.75 7009.39,9450.42 7069.5,9458C 7188.34,9469.51 7275.5,9423.01 7331,9318.5C 7360.73,9253.4 7365.73,9186.4 7346,9117.5C 7330.97,9070.41 7306.97,9028.74 7274,8992.5C 7249.63,8966.46 7223.13,8942.96 7194.5,8922C 7135.37,8879.92 7074.37,8840.59 7011.5,8804C 6955.09,8768.8 6900.43,8731.14 6847.5,8691C 6638.24,8527.58 6564.74,8316.08 6627,8056.5C 6658.51,7949.39 6718.01,7861.56 6805.5,7793C 6867.6,7748.24 6936.93,7723.41 7013.5,7718.5 Z"/></g>
<g><path style="opacity:0.998" fill="#e1a746" d="M 5240.5,7757.5 C 5455.17,7757.33 5669.83,7757.5 5884.5,7758C 5963.62,7758.3 6041.29,7768.97 6117.5,7790C 6243.4,7826.24 6333.9,7903.74 6389,8022.5C 6422.32,8099.75 6435.99,8180.42 6430,8264.5C 6425.5,8374.4 6388.5,8471.4 6319,8555.5C 6261.17,8620.03 6190.33,8664.19 6106.5,8688C 6064.2,8699.33 6021.2,8706.66 5977.5,8710C 5906.95,8715.65 5836.28,8718.49 5765.5,8718.5C 5765.33,8893.5 5765.5,9068.5 5766,9243.5C 5766.32,9272.21 5767.65,9300.88 5770,9329.5C 5771.01,9353.24 5776.35,9375.91 5786,9397.5C 5809.82,9436.85 5844.99,9458.02 5891.5,9461C 5915.1,9463.64 5938.76,9465.14 5962.5,9465.5C 5962.5,9480.5 5962.5,9495.5 5962.5,9510.5C 5721.83,9510.5 5481.17,9510.5 5240.5,9510.5C 5240.5,9495.5 5240.5,9480.5 5240.5,9465.5C 5276.65,9466.01 5312.32,9462.18 5347.5,9454C 5388.34,9439.83 5414.84,9412 5427,9370.5C 5430.48,9353.32 5432.81,9335.99 5434,9318.5C 5435.68,9294.86 5436.68,9271.2 5437,9247.5C 5437.67,8838.5 5437.67,8429.5 5437,8020.5C 5436.96,7980.93 5433.96,7941.59 5428,7902.5C 5413.45,7847.63 5377.95,7816.46 5321.5,7809C 5294.63,7805.29 5267.63,7803.46 5240.5,7803.5C 5240.5,7788.17 5240.5,7772.83 5240.5,7757.5 Z M 5765.5,7859.5 C 5939,7845.56 6041.16,7923.89 6072,8094.5C 6087.86,8192.61 6087.19,8290.61 6070,8388.5C 6062.04,8431.05 6047.38,8471.05 6026,8508.5C 5977.33,8583.6 5907.83,8620.6 5817.5,8619.5C 5800.13,8618.99 5782.79,8617.99 5765.5,8616.5C 5765.5,8364.17 5765.5,8111.83 5765.5,7859.5 Z"/></g>
<g><path style="opacity:0.998" fill="#e1a746" d="M -0.5,7757.5 C 394.833,7757.5 790.167,7757.5 1185.5,7757.5C 1185.5,7930.5 1185.5,8103.5 1185.5,8276.5C 1171.48,8276.83 1157.48,8276.5 1143.5,8275.5C 1134.08,8211.88 1119.24,8149.55 1099,8088.5C 1062.1,7978.26 987.929,7906.76 876.5,7874C 831.929,7865.31 786.929,7860.64 741.5,7860C 674.167,7859.5 606.834,7859.33 539.5,7859.5C 539.5,8096.83 539.5,8334.17 539.5,8571.5C 582.829,8574.83 624.829,8569 665.5,8554C 710.578,8534.59 744.411,8503.09 767,8459.5C 790.019,8414.45 806.686,8367.11 817,8317.5C 828.094,8265.34 835.594,8212.68 839.5,8159.5C 853.5,8159.5 867.5,8159.5 881.5,8159.5C 881.5,8465.5 881.5,8771.5 881.5,9077.5C 867.5,9077.5 853.5,9077.5 839.5,9077.5C 834.648,8999.41 819.482,8923.41 794,8849.5C 778.159,8805.12 755.159,8765.12 725,8729.5C 701.959,8705.55 674.125,8689.72 641.5,8682C 607.989,8673.89 573.989,8670.06 539.5,8670.5C 539.333,8860.5 539.5,9050.5 540,9240.5C 540.446,9260.2 541.446,9279.86 543,9299.5C 542.504,9340.68 559.004,9372.85 592.5,9396C 614.889,9406.81 638.555,9412.15 663.5,9412C 712.531,9413.1 761.531,9412.43 810.5,9410C 967.241,9397.75 1084.41,9323.91 1162,9188.5C 1202.3,9114.55 1230.8,9036.22 1247.5,8953.5C 1260.83,8953.5 1274.17,8953.5 1287.5,8953.5C 1266.43,9139.16 1245.43,9324.83 1224.5,9510.5C 816.167,9510.5 407.833,9510.5 -0.5,9510.5C -0.5,9495.5 -0.5,9480.5 -0.5,9465.5C 25.5477,9465.96 51.5477,9465.13 77.5,9463C 104.954,9459.63 129.621,9449.63 151.5,9433C 170.321,9414.54 182.821,9392.37 189,9366.5C 193.982,9337.39 196.648,9308.06 197,9278.5C 197.167,9061 197.333,8843.5 197.5,8626C 197.333,8408.5 197.167,8191 197,7973.5C 196.826,7951.38 195.159,7929.38 192,7907.5C 181.424,7860.26 153.257,7828.76 107.5,7813C 91.5876,7807.74 75.2542,7804.74 58.5,7804C 38.8362,7803.5 19.1695,7803.33 -0.5,7803.5C -0.5,7788.17 -0.5,7772.83 -0.5,7757.5 Z"/></g>
<g><path style="opacity:0.998" fill="#e1a746" d="M 2970.5,7757.5 C 3222.5,7757.5 3474.5,7757.5 3726.5,7757.5C 3726.5,7772.83 3726.5,7788.17 3726.5,7803.5C 3701.5,7803.33 3676.5,7803.5 3651.5,7804C 3617.47,7804.83 3586.8,7815.16 3559.5,7835C 3534.21,7859.08 3519.71,7888.58 3516,7923.5C 3512.94,7954.42 3511.27,7985.42 3511,8016.5C 3510.33,8415.5 3510.33,8814.5 3511,9213.5C 3510.98,9252.03 3513.64,9290.36 3519,9328.5C 3526.37,9370.2 3550.54,9396.04 3591.5,9406C 3619.02,9409.95 3646.69,9411.95 3674.5,9412C 3725.5,9412.67 3776.5,9412.67 3827.5,9412C 3889.23,9411.9 3946.57,9396.24 3999.5,9365C 4036.62,9339.54 4068.12,9308.38 4094,9271.5C 4128.76,9219.31 4156.1,9163.31 4176,9103.5C 4199.39,9035.59 4218.89,8966.59 4234.5,8896.5C 4249.83,8896.5 4265.17,8896.5 4280.5,8896.5C 4262.94,9101.18 4245.28,9305.84 4227.5,9510.5C 3808.5,9510.5 3389.5,9510.5 2970.5,9510.5C 2970.5,9495.5 2970.5,9480.5 2970.5,9465.5C 2998.92,9466.22 3027.26,9465.05 3055.5,9462C 3110.46,9453.69 3145.3,9422.86 3160,9369.5C 3165.98,9334.77 3168.98,9299.77 3169,9264.5C 3169.17,9054.33 3169.33,8844.17 3169.5,8634C 3169.33,8423.83 3169.17,8213.67 3169,8003.5C 3168.98,7966.9 3165.98,7930.57 3160,7894.5C 3152.75,7869.84 3138.92,7849.67 3118.5,7834C 3096.53,7816.89 3071.53,7807.23 3043.5,7805C 3019.19,7803.64 2994.86,7803.14 2970.5,7803.5C 2970.5,7788.17 2970.5,7772.83 2970.5,7757.5 Z"/></g>
<g><path style="opacity:0.998" fill="#e1a746" d="M 4397.5,7757.5 C 4643.83,7757.5 4890.17,7757.5 5136.5,7757.5C 5136.5,7772.83 5136.5,7788.17 5136.5,7803.5C 5116.83,7803.33 5097.16,7803.5 5077.5,7804C 4990.9,7808.93 4945.4,7854.76 4941,7941.5C 4939.4,7962.81 4938.4,7984.14 4938,8005.5C 4937.83,8215.17 4937.67,8424.83 4937.5,8634.5C 4937.67,8844.17 4937.83,9053.83 4938,9263.5C 4938.15,9298.7 4940.81,9333.7 4946,9368.5C 4958.61,9411.12 4985.78,9440.28 5027.5,9456C 5046.7,9461.98 5066.37,9464.98 5086.5,9465C 5103.16,9465.5 5119.83,9465.67 5136.5,9465.5C 5136.5,9480.5 5136.5,9495.5 5136.5,9510.5C 4890.17,9510.5 4643.83,9510.5 4397.5,9510.5C 4397.5,9495.5 4397.5,9480.5 4397.5,9465.5C 4425.92,9466.2 4454.26,9465.03 4482.5,9462C 4537.89,9453.6 4572.72,9422.43 4587,9368.5C 4590.12,9353.99 4592.12,9339.32 4593,9324.5C 4594.67,9301.2 4595.67,9277.86 4596,9254.5C 4596.17,9047.67 4596.33,8840.83 4596.5,8634C 4596.33,8427.17 4596.17,8220.33 4596,8013.5C 4595.67,7989.47 4594.67,7965.47 4593,7941.5C 4593.93,7882.81 4568.09,7840.98 4515.5,7816C 4501.01,7810.29 4486.01,7806.63 4470.5,7805C 4446.19,7803.64 4421.86,7803.14 4397.5,7803.5C 4397.5,7788.17 4397.5,7772.83 4397.5,7757.5 Z"/></g>
<g><path style="opacity:0.998" fill="#e1a746" d="M 9014.5,8953.5 C 9014.5,8956.83 9014.5,8960.17 9014.5,8963.5C 8993,9145.64 8972,9327.97 8951.5,9510.5C 8543.17,9510.5 8134.83,9510.5 7726.5,9510.5C 7726.5,9495.5 7726.5,9480.5 7726.5,9465.5C 7754.92,9466.2 7783.26,9465.03 7811.5,9462C 7868.9,9452.94 7904.06,9420.1 7917,9363.5C 7922.57,9323.71 7925.23,9283.71 7925,9243.5C 7925.67,8834.17 7925.67,8424.83 7925,8015.5C 7924.69,7991.16 7924.03,7966.82 7923,7942.5C 7920.69,7865.19 7881.52,7819.69 7805.5,7806C 7798.87,7805.03 7792.2,7804.36 7785.5,7804C 7765.84,7803.5 7746.17,7803.33 7726.5,7803.5C 7726.5,7788.17 7726.5,7772.83 7726.5,7757.5C 8121.83,7757.5 8517.17,7757.5 8912.5,7757.5C 8912.5,7930.5 8912.5,8103.5 8912.5,8276.5C 8898.5,8276.5 8884.5,8276.5 8870.5,8276.5C 8861.53,8214.29 8847.36,8153.29 8828,8093.5C 8793.46,7985.63 8722.63,7913.47 8615.5,7877C 8585.94,7869.55 8555.94,7864.89 8525.5,7863C 8506.85,7861.63 8488.19,7860.63 8469.5,7860C 8401.83,7859.5 8334.17,7859.33 8266.5,7859.5C 8266.5,8096.83 8266.5,8334.17 8266.5,8571.5C 8307.94,8574.61 8348.27,8569.45 8387.5,8556C 8433.59,8537.91 8468.43,8507.07 8492,8463.5C 8518.28,8413.33 8536.61,8360.33 8547,8304.5C 8556.7,8256.59 8563.2,8208.26 8566.5,8159.5C 8580.5,8159.5 8594.5,8159.5 8608.5,8159.5C 8608.5,8465.5 8608.5,8771.5 8608.5,9077.5C 8594.5,9077.5 8580.5,9077.5 8566.5,9077.5C 8561.86,9000.13 8547.03,8924.8 8522,8851.5C 8506.27,8807.86 8483.94,8768.19 8455,8732.5C 8432.32,8708.19 8404.82,8691.69 8372.5,8683C 8337.73,8674.19 8302.39,8670.03 8266.5,8670.5C 8266.33,8857.5 8266.5,9044.5 8267,9231.5C 8267.5,9257.21 8268.84,9282.88 8271,9308.5C 8272.75,9346.85 8289.58,9376.35 8321.5,9397C 8343.69,9407.14 8367.02,9412.14 8391.5,9412C 8427.5,9412.67 8463.5,9412.67 8499.5,9412C 8680.18,9410.07 8813.01,9330.24 8898,9172.5C 8933.39,9103.33 8959.06,9030.67 8975,8954.5C 8988.09,8953.51 9001.25,8953.18 9014.5,8953.5 Z"/></g>
<g><path style="opacity:0.995" fill="#1f1d1d" d="M 2567.5,10391.5 C 2551.5,10391.5 2535.5,10391.5 2519.5,10391.5C 2419.64,10386.3 2341.14,10343 2284,10261.5C 2260.26,10223.6 2246.93,10182.3 2244,10137.5C 2236.38,10016.2 2282.88,9922.41 2383.5,9856C 2442.93,9822.78 2506.6,9809.78 2574.5,9817C 2590.06,9818.38 2605.39,9821.04 2620.5,9825C 2642.2,9831.68 2663.54,9839.35 2684.5,9848C 2693.26,9851.42 2702.26,9853.92 2711.5,9855.5C 2720.63,9854.52 2728.13,9850.52 2734,9843.5C 2739.55,9835.06 2744.05,9826.06 2747.5,9816.5C 2752.46,9815.51 2757.46,9815.17 2762.5,9815.5C 2762.5,9880.5 2762.5,9945.5 2762.5,10010.5C 2757.46,10010.8 2752.46,10010.5 2747.5,10009.5C 2735.41,9972.97 2716.91,9940.3 2692,9911.5C 2638.85,9855.92 2575.02,9838.08 2500.5,9858C 2463.13,9872.37 2435.63,9897.53 2418,9933.5C 2408.41,9953.27 2401.41,9973.93 2397,9995.5C 2381.86,10065.9 2380.53,10136.6 2393,10207.5C 2398.21,10235.5 2407.21,10262.1 2420,10287.5C 2443.32,10327.1 2477.82,10350.6 2523.5,10358C 2561.34,10362.9 2598.01,10358.2 2633.5,10344C 2634.66,10302.9 2634.83,10261.7 2634,10220.5C 2636.81,10186.9 2621.64,10167.7 2588.5,10163C 2580.84,10162.5 2573.17,10162.3 2565.5,10162.5C 2565.5,10157.5 2565.5,10152.5 2565.5,10147.5C 2651.5,10147.5 2737.5,10147.5 2823.5,10147.5C 2823.5,10152.5 2823.5,10157.5 2823.5,10162.5C 2808.51,10163.4 2794.17,10166.9 2780.5,10173C 2770.03,10180.5 2764.2,10190.6 2763,10203.5C 2762.83,10250.5 2762.33,10297.5 2761.5,10344.5C 2700.01,10373.7 2635.34,10389.3 2567.5,10391.5 Z"/></g>
<g><path style="opacity:0.996" fill="#1f1d1d" d="M 4434.5,10391.5 C 4420.5,10391.5 4406.5,10391.5 4392.5,10391.5C 4325.24,10388.8 4265.91,10366 4214.5,10323C 4164.19,10274.2 4135.36,10214.7 4128,10144.5C 4120.57,10043.2 4153.4,9957.75 4226.5,9888C 4304.66,9821.3 4393.66,9800.96 4493.5,9827C 4518.2,9834.68 4542.53,9843.34 4566.5,9853C 4588.23,9858.88 4602.4,9851.05 4609,9829.5C 4610.29,9824.9 4611.12,9820.24 4611.5,9815.5C 4617.17,9815.5 4622.83,9815.5 4628.5,9815.5C 4628.5,9879.5 4628.5,9943.5 4628.5,10007.5C 4622.83,10007.5 4617.17,10007.5 4611.5,10007.5C 4602.46,9960.23 4580.13,9920.73 4544.5,9889C 4499.91,9853.95 4450.24,9844.28 4395.5,9860C 4349.57,9876.6 4316.4,9907.1 4296,9951.5C 4276.82,9998.24 4267.32,10046.9 4267.5,10097.5C 4267.08,10153 4276.58,10206.6 4296,10258.5C 4323.02,10321.7 4371.02,10353 4440,10352.5C 4479.38,10352.9 4515.21,10342.1 4547.5,10320C 4573.59,10299.9 4597.09,10277.1 4618,10251.5C 4618.67,10268.2 4618.67,10284.8 4618,10301.5C 4589.14,10333.5 4554.97,10358 4515.5,10375C 4489.11,10384.2 4462.11,10389.7 4434.5,10391.5 Z"/></g>
<g><path style="opacity:0.995" fill="#1f1d1d" d="M 6113.5,10391.5 C 6101.83,10391.5 6090.17,10391.5 6078.5,10391.5C 6046.68,10387.7 6016.35,10378.6 5987.5,10364C 5957.3,10352.6 5935.97,10361.8 5923.5,10391.5C 5918.83,10391.5 5914.17,10391.5 5909.5,10391.5C 5909.5,10322.2 5909.5,10252.8 5909.5,10183.5C 5914.21,10183.2 5918.88,10183.5 5923.5,10184.5C 5931.31,10227.8 5948.47,10266.8 5975,10301.5C 5993.83,10323.3 6016.33,10340.2 6042.5,10352C 6074.95,10365.1 6107.62,10365.8 6140.5,10354C 6180.89,10333.4 6196.06,10300.9 6186,10256.5C 6180.28,10241.8 6171.78,10229 6160.5,10218C 6143.87,10203.7 6125.87,10191.4 6106.5,10181C 6070.37,10163.4 6035.37,10144.1 6001.5,10123C 5972.05,10105.2 5948.21,10081.7 5930,10052.5C 5909.86,10016.4 5904.19,9978.03 5913,9937.5C 5929.63,9877.54 5967.79,9838.71 6027.5,9821C 6065.88,9811.86 6103.55,9814.19 6140.5,9828C 6156.05,9835.27 6171.72,9842.27 6187.5,9849C 6194.52,9852.26 6201.85,9853.59 6209.5,9853C 6216.58,9850.88 6221.42,9846.38 6224,9839.5C 6227.09,9831.72 6229.26,9823.72 6230.5,9815.5C 6234.83,9815.5 6239.17,9815.5 6243.5,9815.5C 6244.9,9877.16 6246.24,9938.83 6247.5,10000.5C 6241.83,10000.5 6236.17,10000.5 6230.5,10000.5C 6221.26,9935.47 6187.59,9887.97 6129.5,9858C 6098.72,9844.89 6067.72,9844.22 6036.5,9856C 6003.37,9873.43 5989.87,9900.6 5996,9937.5C 6000.98,9950.8 6008.48,9962.47 6018.5,9972.5C 6027.83,9982 6038.16,9990.17 6049.5,9997C 6085.18,10016.8 6121.18,10036.2 6157.5,10055C 6189.12,10072.3 6217.62,10093.8 6243,10119.5C 6277.32,10162.8 6287.98,10211.5 6275,10265.5C 6258.86,10317.3 6226.02,10354.5 6176.5,10377C 6156.06,10384.9 6135.06,10389.7 6113.5,10391.5 Z"/></g>
<g><path style="opacity:0.993" fill="#1f1d1d" d="M 3117.5,9817.5 C 3121.03,9816.99 3124.2,9817.66 3127,9819.5C 3197.17,9986.18 3268.17,10152.5 3340,10318.5C 3346.64,10332.6 3355.8,10344.8 3367.5,10355C 3376.99,10360.8 3387.32,10364 3398.5,10364.5C 3398.5,10369.5 3398.5,10374.5 3398.5,10379.5C 3313.17,10379.5 3227.83,10379.5 3142.5,10379.5C 3142.5,10374.5 3142.5,10369.5 3142.5,10364.5C 3157.76,10365.4 3172.76,10363.9 3187.5,10360C 3201.81,10354.2 3207.31,10343.7 3204,10328.5C 3203.07,10323.7 3201.74,10319.1 3200,10314.5C 3187.14,10284.2 3174.47,10253.9 3162,10223.5C 3100.57,10222.2 3039.07,10222.2 2977.5,10223.5C 2968.9,10243.5 2960.4,10263.5 2952,10283.5C 2945.31,10299.6 2943.31,10316.3 2946,10333.5C 2949.5,10346.3 2957.67,10354.5 2970.5,10358C 2984.65,10361.4 2998.98,10363.6 3013.5,10364.5C 3013.5,10369.5 3013.5,10374.5 3013.5,10379.5C 2954.5,10379.5 2895.5,10379.5 2836.5,10379.5C 2836.5,10374.5 2836.5,10369.5 2836.5,10364.5C 2858.73,10361.1 2876.56,10350.5 2890,10332.5C 2903.15,10311.9 2914.48,10290.2 2924,10267.5C 2988.24,10117.4 3052.74,9967.36 3117.5,9817.5 Z M 3070.5,10007.5 C 3096.72,10068.3 3122.72,10129.3 3148.5,10190.5C 3096.17,10191.5 3043.84,10191.8 2991.5,10191.5C 3017.28,10129.9 3043.61,10068.6 3070.5,10007.5 Z"/></g>
<g><path style="opacity:0.996" fill="#1f1d1d" d="M 5003.5,10391.5 C 4990.17,10391.5 4976.83,10391.5 4963.5,10391.5C 4845.89,10384 4765.06,10325.6 4721,10216.5C 4695.82,10143.4 4695.15,10070 4719,9996.5C 4743.23,9934.27 4784.06,9886.1 4841.5,9852C 4884.97,9829.01 4931.3,9818.84 4980.5,9821.5C 5100.36,9818.48 5186.52,9870.48 5239,9977.5C 5264.71,10040.3 5270.71,10105 5257,10171.5C 5239.98,10248.8 5198.81,10309.3 5133.5,10353C 5093.24,10376.4 5049.9,10389.2 5003.5,10391.5 Z M 4972.5,9848.5 C 5029.66,9845.88 5069.82,9870.54 5093,9922.5C 5105.52,9950.23 5113.52,9979.23 5117,10009.5C 5124.29,10072.2 5124.29,10134.8 5117,10197.5C 5112.52,10235.6 5100.85,10271.3 5082,10304.5C 5051.01,10351.3 5007.84,10368.8 4952.5,10357C 4922.73,10348.6 4899.9,10331.1 4884,10304.5C 4865.41,10271.2 4853.74,10235.5 4849,10197.5C 4846.51,10179.9 4844.84,10162.2 4844,10144.5C 4842.38,10102.4 4843.72,10060.4 4848,10018.5C 4852.28,9974.67 4866.28,9934.33 4890,9897.5C 4910.31,9868.93 4937.81,9852.6 4972.5,9848.5 Z"/></g>
<g><path style="opacity:0.995" fill="#1f1d1d" d="M 1162.5,9828.5 C 1256.5,9828.5 1350.5,9828.5 1444.5,9828.5C 1444.5,9833.5 1444.5,9838.5 1444.5,9843.5C 1433.49,9843.33 1422.49,9843.5 1411.5,9844C 1395.1,9844.28 1381.94,9850.78 1372,9863.5C 1368.61,9868.68 1366.61,9874.35 1366,9880.5C 1364.35,10022.1 1364.01,10163.8 1365,10305.5C 1365.06,10333.9 1379.23,10347.7 1407.5,10347C 1435.83,10347.7 1464.17,10347.7 1492.5,10347C 1531.05,10345.1 1561.89,10329 1585,10298.5C 1598.28,10279.3 1608.95,10258.6 1617,10236.5C 1622.74,10220 1628.07,10203.3 1633,10186.5C 1639.08,10185.5 1645.24,10185.2 1651.5,10185.5C 1644.76,10250.2 1638.09,10314.8 1631.5,10379.5C 1475.17,10379.5 1318.83,10379.5 1162.5,10379.5C 1162.5,10374.5 1162.5,10369.5 1162.5,10364.5C 1171.84,10364.7 1181.17,10364.5 1190.5,10364C 1205.79,10362.6 1218.29,10356.1 1228,10344.5C 1229.61,10341.6 1230.94,10338.6 1232,10335.5C 1234.56,10324.7 1235.9,10313.7 1236,10302.5C 1236.67,10169.8 1236.67,10037.2 1236,9904.5C 1235.84,9893.02 1234.5,9881.69 1232,9870.5C 1223.08,9854.27 1209.24,9845.44 1190.5,9844C 1181.17,9843.5 1171.84,9843.33 1162.5,9843.5C 1162.5,9838.5 1162.5,9833.5 1162.5,9828.5 Z"/></g>
<g><path style="opacity:0.995" fill="#1f1d1d" d="M 5779.5,10391.5 C 5774.83,10391.5 5770.17,10391.5 5765.5,10391.5C 5646.83,10239.3 5528.33,10087 5410,9934.5C 5409.33,10053.5 5409.33,10172.5 5410,10291.5C 5409.78,10310.7 5415.12,10328 5426,10343.5C 5444.6,10360.1 5466.44,10367.1 5491.5,10364.5C 5491.5,10369.5 5491.5,10374.5 5491.5,10379.5C 5428.5,10379.5 5365.5,10379.5 5302.5,10379.5C 5302.5,10374.5 5302.5,10369.5 5302.5,10364.5C 5323.79,10365.5 5343.13,10360 5360.5,10348C 5372.01,10335.1 5378.18,10320 5379,10302.5C 5379.67,10166.2 5379.67,10029.8 5379,9893.5C 5369.31,9878.8 5357.81,9865.64 5344.5,9854C 5331.52,9846.5 5317.52,9843 5302.5,9843.5C 5302.5,9838.5 5302.5,9833.5 5302.5,9828.5C 5365.17,9828.33 5427.83,9828.5 5490.5,9829C 5576.79,9941.74 5662.95,10054.6 5749,10167.5C 5749.67,10080.8 5749.67,9994.17 5749,9907.5C 5749.27,9874.8 5733.77,9854.3 5702.5,9846C 5693.27,9844.01 5683.94,9843.17 5674.5,9843.5C 5674.5,9838.5 5674.5,9833.5 5674.5,9828.5C 5732.83,9828.5 5791.17,9828.5 5849.5,9828.5C 5849.5,9833.5 5849.5,9838.5 5849.5,9843.5C 5834.06,9845.15 5819.06,9848.65 5804.5,9854C 5791.41,9864.66 5783.91,9878.5 5782,9895.5C 5780.98,9903.8 5780.32,9912.14 5780,9920.5C 5779.5,10077.5 5779.33,10234.5 5779.5,10391.5 Z"/></g>
<g><path style="opacity:0.995" fill="#1f1d1d" d="M 6904.5,9828.5 C 6998.5,9828.5 7092.5,9828.5 7186.5,9828.5C 7186.5,9833.5 7186.5,9838.5 7186.5,9843.5C 7175.49,9843.33 7164.49,9843.5 7153.5,9844C 7138.69,9844.48 7126.19,9849.98 7116,9860.5C 7111.79,9865.79 7109.12,9871.79 7108,9878.5C 7106.88,9889.47 7106.21,9900.47 7106,9911.5C 7105.33,10035.8 7105.33,10160.2 7106,10284.5C 7106.21,10295.5 7106.88,10306.5 7108,10317.5C 7110.88,10333.7 7120.38,10343.2 7136.5,10346C 7168.81,10347.6 7201.15,10347.9 7233.5,10347C 7269.37,10345.8 7298.87,10331.6 7322,10304.5C 7337.61,10284.6 7349.61,10262.6 7358,10238.5C 7364.62,10221.2 7370.12,10203.5 7374.5,10185.5C 7380.83,10185.5 7387.17,10185.5 7393.5,10185.5C 7386.47,10250.1 7379.8,10314.8 7373.5,10379.5C 7217.17,10379.5 7060.83,10379.5 6904.5,10379.5C 6904.5,10374.5 6904.5,10369.5 6904.5,10364.5C 6919.79,10365.5 6934.79,10364 6949.5,10360C 6968.78,10351.7 6977.94,10336.8 6977,10315.5C 6977.33,10307.2 6977.67,10298.8 6978,10290.5C 6978.67,10165.8 6978.67,10041.2 6978,9916.5C 6978.13,9901.36 6976.79,9886.36 6974,9871.5C 6968.46,9859.97 6959.63,9851.8 6947.5,9847C 6933.35,9843.86 6919.02,9842.7 6904.5,9843.5C 6904.5,9838.5 6904.5,9833.5 6904.5,9828.5 Z"/></g>
<g><path style="opacity:0.993" fill="#1f1d1d" d="M 1694.5,9828.5 C 1841.83,9828.5 1989.17,9828.5 2136.5,9828.5C 2136.5,9882.83 2136.5,9937.17 2136.5,9991.5C 2131.24,9991.8 2126.07,9991.47 2121,9990.5C 2116.54,9964.97 2108.54,9940.64 2097,9917.5C 2081.46,9892.31 2059.29,9875.81 2030.5,9868C 2012.44,9863.63 1994.1,9861.29 1975.5,9861C 1949.17,9860.5 1922.84,9860.33 1896.5,9860.5C 1896.5,9934.83 1896.5,10009.2 1896.5,10083.5C 1947.23,10087.7 1980.06,10065.7 1995,10017.5C 2001.28,9996.91 2005.45,9975.91 2007.5,9954.5C 2013.17,9954.5 2018.83,9954.5 2024.5,9954.5C 2024.5,10050.8 2024.5,10147.2 2024.5,10243.5C 2018.83,10243.5 2013.17,10243.5 2007.5,10243.5C 2005.82,10204 1992.99,10168.6 1969,10137.5C 1955.34,10125 1939.18,10118.2 1920.5,10117C 1912.52,10116.1 1904.52,10115.6 1896.5,10115.5C 1896.05,10181.9 1896.55,10248.2 1898,10314.5C 1901.18,10334.7 1913.01,10345.5 1933.5,10347C 1960.56,10348.1 1987.56,10347.4 2014.5,10345C 2079.33,10335.5 2123.83,10300.3 2148,10239.5C 2152.54,10227.7 2156.38,10215.7 2159.5,10203.5C 2164.84,10203.3 2170.18,10203.5 2175.5,10204C 2167.23,10262.4 2159.56,10320.9 2152.5,10379.5C 1999.83,10379.5 1847.17,10379.5 1694.5,10379.5C 1694.5,10374.5 1694.5,10369.5 1694.5,10364.5C 1703.84,10364.7 1713.17,10364.5 1722.5,10364C 1736.33,10362.7 1748.16,10357.2 1758,10347.5C 1765.26,10334.9 1768.6,10321.2 1768,10306.5C 1768.67,10169.5 1768.67,10032.5 1768,9895.5C 1768.95,9863.6 1753.45,9846.43 1721.5,9844C 1712.51,9843.5 1703.51,9843.33 1694.5,9843.5C 1694.5,9838.5 1694.5,9833.5 1694.5,9828.5 Z"/></g>
<g><path style="opacity:0.991" fill="#1f1d1d" d="M 3423.5,9828.5 C 3517.83,9828.5 3612.17,9828.5 3706.5,9828.5C 3706.5,9833.5 3706.5,9838.5 3706.5,9843.5C 3695.16,9843.33 3683.83,9843.5 3672.5,9844C 3652.13,9844.25 3637.63,9853.42 3629,9871.5C 3628.12,9874.79 3627.45,9878.12 3627,9881.5C 3625.35,10022.1 3625.02,10162.8 3626,10303.5C 3625.88,10313.8 3628.21,10323.5 3633,10332.5C 3638.51,10340.2 3646.01,10344.7 3655.5,10346C 3691.5,10348 3727.5,10348 3763.5,10346C 3793.25,10343 3818.08,10330.5 3838,10308.5C 3854.84,10287.8 3867.84,10264.8 3877,10239.5C 3883.33,10222 3889.17,10204.3 3894.5,10186.5C 3900.46,10185.5 3906.46,10185.2 3912.5,10185.5C 3906.05,10250.2 3899.39,10314.9 3892.5,10379.5C 3736.17,10379.5 3579.83,10379.5 3423.5,10379.5C 3423.5,10374.5 3423.5,10369.5 3423.5,10364.5C 3432.84,10364.7 3442.17,10364.5 3451.5,10364C 3465.33,10362.7 3477.16,10357.2 3487,10347.5C 3494.26,10334.9 3497.6,10321.2 3497,10306.5C 3497.67,10171.2 3497.67,10035.8 3497,9900.5C 3499.82,9867 3484.65,9848.17 3451.5,9844C 3442.17,9843.5 3432.84,9843.33 3423.5,9843.5C 3423.5,9838.5 3423.5,9833.5 3423.5,9828.5 Z"/></g>
<g><path style="opacity:0.996" fill="#1f1d1d" d="M 6617.5,10391.5 C 6603.5,10391.5 6589.5,10391.5 6575.5,10391.5C 6517.89,10391.1 6470.06,10369.4 6432,10326.5C 6418.42,10308.3 6409.42,10288 6405,10265.5C 6401.91,10251.7 6399.91,10237.7 6399,10223.5C 6398.67,10121.8 6398.33,10020.2 6398,9918.5C 6398,9903.42 6397,9888.42 6395,9873.5C 6389.09,9855.45 6376.59,9845.95 6357.5,9845C 6348.2,9843.93 6338.86,9843.43 6329.5,9843.5C 6329.5,9838.5 6329.5,9833.5 6329.5,9828.5C 6420.83,9828.5 6512.17,9828.5 6603.5,9828.5C 6603.5,9833.5 6603.5,9838.5 6603.5,9843.5C 6593.83,9843.33 6584.16,9843.5 6574.5,9844C 6558.39,9843.48 6545.22,9849.31 6535,9861.5C 6531.88,9866.41 6529.88,9871.75 6529,9877.5C 6527.15,9890.09 6526.15,9902.76 6526,9915.5C 6525.06,10022.8 6525.39,10130.2 6527,10237.5C 6527.17,10259.9 6531.84,10281.2 6541,10301.5C 6562.54,10334.7 6593.38,10350.7 6633.5,10349.5C 6698.84,10348.1 6740.34,10316.1 6758,10253.5C 6763.36,10224.8 6766.03,10195.8 6766,10166.5C 6766.67,10083.5 6766.67,10000.5 6766,9917.5C 6766.89,9898.47 6762.56,9880.8 6753,9864.5C 6744.95,9853.68 6734.12,9847.52 6720.5,9846C 6710.57,9844.32 6700.57,9843.49 6690.5,9843.5C 6690.5,9838.5 6690.5,9833.5 6690.5,9828.5C 6751.5,9828.5 6812.5,9828.5 6873.5,9828.5C 6873.5,9833.5 6873.5,9838.5 6873.5,9843.5C 6823.52,9841.32 6799.02,9865.32 6800,9915.5C 6799.95,10011.5 6799.28,10107.5 6798,10203.5C 6797,10227.5 6793.67,10251.2 6788,10274.5C 6778.7,10304.1 6761.87,10328.6 6737.5,10348C 6712.42,10368.5 6683.75,10381.5 6651.5,10387C 6640.06,10388.8 6628.73,10390.3 6617.5,10391.5 Z"/></g>
<g><path style="opacity:0.997" fill="#1f1d1d" d="M 7375.5,9828.5 C 7534.17,9828.5 7692.83,9828.5 7851.5,9828.5C 7851.5,9878.17 7851.5,9927.83 7851.5,9977.5C 7846.5,9977.5 7841.5,9977.5 7836.5,9977.5C 7831.27,9952.66 7822.77,9928.99 7811,9906.5C 7791.98,9877.73 7765.15,9862.57 7730.5,9861C 7712.5,9860.5 7694.5,9860.33 7676.5,9860.5C 7676.02,10015.5 7676.52,10170.5 7678,10325.5C 7680.02,10340.2 7687.52,10351 7700.5,10358C 7707.5,10361.2 7714.83,10363.2 7722.5,10364C 7731.83,10364.5 7741.16,10364.7 7750.5,10364.5C 7750.5,10369.5 7750.5,10374.5 7750.5,10379.5C 7658.5,10379.5 7566.5,10379.5 7474.5,10379.5C 7474.5,10374.5 7474.5,10369.5 7474.5,10364.5C 7493.88,10366.9 7512.21,10363.8 7529.5,10355C 7539.83,10347.8 7545.66,10338 7547,10325.5C 7548.48,10170.5 7548.98,10015.5 7548.5,9860.5C 7527.81,9860.13 7507.14,9860.63 7486.5,9862C 7460.69,9864.15 7439.85,9875.32 7424,9895.5C 7406.49,9919.67 7395.83,9946.67 7392,9976.5C 7386.59,9977.47 7381.09,9977.81 7375.5,9977.5C 7375.5,9927.83 7375.5,9878.17 7375.5,9828.5 Z"/></g>
</svg>
