<?xml version="1.0" encoding="UTF-8"?>
<!DOCTYPE svg PUBLIC "-//W3C//DTD SVG 1.1//EN" "http://www.w3.org/Graphics/SVG/1.1/DTD/svg11.dtd">
<svg xmlns="http://www.w3.org/2000/svg" version="1.1" width="138px" height="25px" style="shape-rendering:geometricPrecision; text-rendering:geometricPrecision; image-rendering:optimizeQuality; fill-rule:evenodd; clip-rule:evenodd" xmlns:xlink="http://www.w3.org/1999/xlink">
<g><path style="opacity:0.655" fill="#131110" d="M 63.5,-0.5 C 65.8333,-0.5 68.1667,-0.5 70.5,-0.5C 70.1667,0.166667 69.8333,0.833333 69.5,1.5C 69.5,2.16667 69.5,2.83333 69.5,3.5C 68.8333,3.5 68.1667,3.5 67.5,3.5C 67.6309,2.62356 67.2975,1.95689 66.5,1.5C 65.2613,1.94242 64.2613,2.60908 63.5,3.5C 62.6618,3.84171 62.3284,4.50838 62.5,5.5C 61.1667,6.16667 61.1667,6.83333 62.5,7.5C 62.5,7.83333 62.5,8.16667 62.5,8.5C 61.596,9.20895 61.2627,10.209 61.5,11.5C 61.1667,11.5 60.8333,11.5 60.5,11.5C 60.7947,9.26465 60.4614,7.26465 59.5,5.5C 60.4151,3.24595 61.7484,1.24595 63.5,-0.5 Z"/></g>
<g><path style="opacity:0.506" fill="#100f0f" d="M 70.5,-0.5 C 71.5,-0.5 72.5,-0.5 73.5,-0.5C 75.2516,1.24595 76.5849,3.24595 77.5,5.5C 76.6618,5.84171 76.3284,6.50838 76.5,7.5C 76.1667,7.5 75.8333,7.5 75.5,7.5C 75.6716,6.50838 75.3382,5.84171 74.5,5.5C 74.6716,4.50838 74.3382,3.84171 73.5,3.5C 72.4863,2.32627 71.153,1.6596 69.5,1.5C 69.8333,0.833333 70.1667,0.166667 70.5,-0.5 Z"/></g>
<g><path style="opacity:0.433" fill="#493618" d="M 63.5,3.5 C 64.7024,4.40536 66.0357,4.40536 67.5,3.5C 67.5,4.16667 67.5,4.83333 67.5,5.5C 66.7611,5.36899 66.0944,5.53566 65.5,6C 66.3366,7.01127 66.67,8.17793 66.5,9.5C 64.901,9.76781 63.5676,9.43448 62.5,8.5C 62.5,8.16667 62.5,7.83333 62.5,7.5C 62.5,6.83333 62.5,6.16667 62.5,5.5C 63.3382,5.15829 63.6716,4.49162 63.5,3.5 Z"/></g>
<g><path style="opacity:0.384" fill="#61491d" d="M 67.5,3.5 C 68.1667,3.5 68.8333,3.5 69.5,3.5C 68.9115,6.61035 68.2448,9.61035 67.5,12.5C 67.5,12.1667 67.5,11.8333 67.5,11.5C 67.5,9.5 67.5,7.5 67.5,5.5C 67.5,4.83333 67.5,4.16667 67.5,3.5 Z"/></g>
<g><path style="opacity:0.302" fill="#453318" d="M 69.5,3.5 C 70.9643,4.40536 72.2976,4.40536 73.5,3.5C 73.3284,4.49162 73.6618,5.15829 74.5,5.5C 74.5,6.83333 74.5,8.16667 74.5,9.5C 73.1667,9.5 71.8333,9.5 70.5,9.5C 70.9059,7.89083 70.9059,6.5575 70.5,5.5C 69.5258,7.74269 69.1924,10.076 69.5,12.5C 68.8333,13.8333 68.1667,13.8333 67.5,12.5C 68.2448,9.61035 68.9115,6.61035 69.5,3.5 Z"/></g>
<g><path style="opacity:0.992" fill="#181717" d="M 59.5,5.5 C 60.4614,7.26465 60.7947,9.26465 60.5,11.5C 60.1667,11.5 59.8333,11.5 59.5,11.5C 58.1667,9.5 58.1667,7.5 59.5,5.5 Z"/></g>
<g><path style="opacity:0.992" fill="#181717" d="M 77.5,5.5 C 78.8333,7.5 78.8333,9.5 77.5,11.5C 76.5655,10.4324 76.2322,9.09903 76.5,7.5C 76.3284,6.50838 76.6618,5.84171 77.5,5.5 Z"/></g>
<g><path style="opacity:0.918" fill="#171514" d="M 59.5,11.5 C 59.8333,11.5 60.1667,11.5 60.5,11.5C 60.8333,11.5 61.1667,11.5 61.5,11.5C 61.8333,13.8333 63.1667,15.1667 65.5,15.5C 67.1667,16.1667 68.8333,16.8333 70.5,17.5C 70.5,17.8333 70.5,18.1667 70.5,18.5C 70.1667,18.5 69.8333,18.5 69.5,18.5C 69.1667,18.5 68.8333,18.5 68.5,18.5C 67.8333,18.5 67.1667,18.5 66.5,18.5C 65.791,17.596 64.791,17.2627 63.5,17.5C 61.7484,15.7541 60.4151,13.7541 59.5,11.5 Z"/></g>
<g><path style="opacity:0.024" fill="#050505" d="M 61.5,11.5 C 62.391,12.1098 63.391,12.4431 64.5,12.5C 65.1667,13.1667 65.8333,13.8333 66.5,14.5C 65.8333,14.5 65.5,14.8333 65.5,15.5C 63.1667,15.1667 61.8333,13.8333 61.5,11.5 Z"/></g>
<g><path style="opacity:0.314" fill="#0a0a0a" d="M 75.5,7.5 C 75.8333,7.5 76.1667,7.5 76.5,7.5C 76.2322,9.09903 76.5655,10.4324 77.5,11.5C 77.573,13.0269 76.9063,14.0269 75.5,14.5C 75.1583,13.6618 74.4916,13.3284 73.5,13.5C 75.0808,11.8583 75.7475,9.85834 75.5,7.5 Z"/></g>
<g><path style="opacity:0.531" fill="#141313" d="M 67.5,11.5 C 67.5,11.8333 67.5,12.1667 67.5,12.5C 68.1667,13.8333 68.8333,13.8333 69.5,12.5C 70.8333,12.8333 72.1667,13.1667 73.5,13.5C 74.4916,13.3284 75.1583,13.6618 75.5,14.5C 75.5,15.1667 75.1667,15.5 74.5,15.5C 72.0504,15.702 69.717,15.3686 67.5,14.5C 67.1667,14.5 66.8333,14.5 66.5,14.5C 65.8333,13.8333 65.1667,13.1667 64.5,12.5C 65.209,11.596 66.209,11.2627 67.5,11.5 Z"/></g>
<g><path style="opacity:0.656" fill="#0d0d0d" d="M 67.5,14.5 C 69.717,15.3686 72.0504,15.702 74.5,15.5C 73.8333,16.1667 73.1667,16.8333 72.5,17.5C 71.8333,17.5 71.1667,17.5 70.5,17.5C 68.8333,16.8333 67.1667,16.1667 65.5,15.5C 66.4916,15.6716 67.1583,15.3382 67.5,14.5 Z"/></g>
<g><path style="opacity:0.282" fill="#493618" d="M 63.5,17.5 C 64.791,17.2627 65.791,17.596 66.5,18.5C 65.209,18.2627 64.209,18.596 63.5,19.5C 64.404,20.209 64.7373,21.209 64.5,22.5C 62.64,21.9285 60.9733,21.9285 59.5,22.5C 57.744,21.4479 57.0773,19.7812 57.5,17.5C 59.6112,18.3799 61.6112,18.3799 63.5,17.5 Z"/></g>
<g><path style="opacity:0.247" fill="#2a200e" d="M 72.5,17.5 C 74.8333,17.5 77.1667,17.5 79.5,17.5C 79.5,18.8333 79.5,20.1667 79.5,21.5C 78.6851,20.5707 77.8518,19.5707 77,18.5C 76.7216,19.4158 76.2216,20.0825 75.5,20.5C 74.6935,19.2719 73.6935,18.2719 72.5,17.5 Z"/></g>
<g><path style="opacity:0.263" fill="#57411c" d="M 63.5,19.5 C 64.209,18.596 65.209,18.2627 66.5,18.5C 66.7373,22.2887 67.4039,22.2887 68.5,18.5C 68.8333,18.5 69.1667,18.5 69.5,18.5C 69.8432,20.4832 69.1765,21.8166 67.5,22.5C 67.1667,22.5 66.8333,22.5 66.5,22.5C 65.8333,22.5 65.1667,22.5 64.5,22.5C 64.7373,21.209 64.404,20.209 63.5,19.5 Z M 66.5,18.5 C 67.1667,18.5 67.8333,18.5 68.5,18.5C 67.4039,22.2887 66.7373,22.2887 66.5,18.5 Z"/></g>
<g><path style="opacity:0.282" fill="#664c20" d="M 70.5,17.5 C 71.1667,17.5 71.8333,17.5 72.5,17.5C 73.6935,18.2719 74.6935,19.2719 75.5,20.5C 75.8333,21.1667 76.1667,21.8333 76.5,22.5C 75.5,22.5 74.5,22.5 73.5,22.5C 73.6716,21.5084 73.3382,20.8417 72.5,20.5C 71.7784,20.9175 71.2784,21.5842 71,22.5C 70.51,21.2068 70.3433,19.8734 70.5,18.5C 70.5,18.1667 70.5,17.8333 70.5,17.5 Z"/></g>
<g><path style="opacity:0.655" fill="#826028" d="M 79.5,21.5 C 79.1583,22.3382 78.4916,22.6716 77.5,22.5C 77.1667,22.5 76.8333,22.5 76.5,22.5C 76.1667,21.8333 75.8333,21.1667 75.5,20.5C 76.2216,20.0825 76.7216,19.4158 77,18.5C 77.8518,19.5707 78.6851,20.5707 79.5,21.5 Z"/></g>
<g><path style="opacity:0.253" fill="#070606" d="M 64.5,22.5 C 65.1667,22.5 65.8333,22.5 66.5,22.5C 66.5,23.1667 66.8333,23.5 67.5,23.5C 67.5,23.8333 67.5,24.1667 67.5,24.5C 64.8333,24.5 62.1667,24.5 59.5,24.5C 59.5,23.8333 59.5,23.1667 59.5,22.5C 60.9733,21.9285 62.64,21.9285 64.5,22.5 Z"/></g>
<g><path style="opacity:0.259" fill="#0d0805" d="M 69.5,18.5 C 69.8333,18.5 70.1667,18.5 70.5,18.5C 70.3433,19.8734 70.51,21.2068 71,22.5C 71.2784,21.5842 71.7784,20.9175 72.5,20.5C 72.3284,21.4916 72.6618,22.1583 73.5,22.5C 74.5,22.5 75.5,22.5 76.5,22.5C 76.8333,22.5 77.1667,22.5 77.5,22.5C 77.1667,23.1667 76.8333,23.8333 76.5,24.5C 73.5,24.5 70.5,24.5 67.5,24.5C 67.5,24.1667 67.5,23.8333 67.5,23.5C 67.5,23.1667 67.5,22.8333 67.5,22.5C 69.1765,21.8166 69.8432,20.4832 69.5,18.5 Z"/></g>
</svg>
