<?xml version="1.0" encoding="UTF-8"?>
<!DOCTYPE svg PUBLIC "-//W3C//DTD SVG 1.1//EN" "http://www.w3.org/Graphics/SVG/1.1/DTD/svg11.dtd">
<!-- Creator: CorelDRAW 2021 (64-Bit) -->
<svg xmlns="http://www.w3.org/2000/svg" xml:space="preserve" width="2.8in" height="1.6in" version="1.1" style="shape-rendering:geometricPrecision; text-rendering:geometricPrecision; image-rendering:optimizeQuality; fill-rule:evenodd; clip-rule:evenodd"
viewBox="0 0 2800 1600"
 xmlns:xlink="http://www.w3.org/1999/xlink"
 xmlns:xodm="http://www.corel.com/coreldraw/odm/2003">
 <defs>
  <style type="text/css">
   <![CDATA[
    .fil2 {fill:#373435;fill-rule:nonzero}
    .fil3 {fill:#ED3237;fill-rule:nonzero}
    .fil1 {fill:#890E11;fill-rule:nonzero}
    .fil0 {fill:#F1F1F2;fill-rule:nonzero}
   ]]>
  </style>
    <clipPath id="id0">
     <path d="M351.35 1128.77l2375 0 0 -974.19 -2375 0 0 974.19z"/>
    </clipPath>
 </defs>
<symbol id="Fm155-155-0" viewBox="2356.99 -3029.57 4564.11 6446.46">
 <polygon class="fil0" points="2356.99,3416.89 6921.1,3416.89 6921.1,-3029.57 2356.99,-3029.57 "/>
</symbol>
<symbol id="Fm186-186-0" viewBox="1575.88 -2896.72 5284.85 5627.43">
 <polygon class="fil0" points="1575.88,2730.7 6860.73,2730.7 6860.73,-2896.72 1575.88,-2896.72 "/>
</symbol>
<symbol id="Fm343-343-0" viewBox="3501.85 -3042.26 3412.37 4040.38">
 <polygon class="fil0" points="3501.85,998.12 6914.22,998.12 6914.22,-3042.26 3501.85,-3042.26 "/>
</symbol>
<symbol id="Fm376-376-0" viewBox="-3000.76 -2777.78 492.39 1337.7">
 <polygon class="fil1" points="-3000.76,-2777.78 -3000.76,-1440.08 -2742.24,-1686.29 -2508.36,-1440.08 -2508.36,-2777.78 "/>
</symbol>
 <g id="Layer_x0020_1">
  <metadata id="CorelCorpID_0Corel-Layer"/>
  <g id="_2779379228128">
   <image x="8027.92" y="-3240.69" width="3412.37" height="4040.38" xlink:href="1_Images\1_ImgID1.png"/>
  </g>
  <path class="fil2" d="M6695.75 4088.8l32.92 0 0 11.53 -59.03 0 44.03 -46.81c3.33,-3.61 5,-7.64 5,-11.94 0,-5.14 -1.67,-9.58 -5.28,-13.33 -3.47,-3.75 -7.5,-5.56 -12.22,-5.56 -3.89,0 -7.5,1.25 -10.97,3.75 -3.33,2.5 -5.56,6.25 -6.67,11.53l-11.39 0c1.11,-8.47 4.44,-15.14 10.14,-19.86 5.56,-4.72 12.08,-7.09 19.58,-7.09 7.64,0 14.17,2.92 19.86,8.89 5.56,5.97 8.33,13.06 8.33,21.11 0,4.03 -0.7,7.64 -2.09,10.83 -1.39,3.33 -3.89,6.94 -7.5,10.69l-24.72 26.25zm46.8 -75l71.25 0 -60.83 90.69 -9.03 -5.97 48.89 -73.19 -50.28 0 0 -11.53z"/>
  <polygon class="fil2" points="4486.67,4008.91 4530.35,4008.91 4530.35,4019.67 4497.43,4019.67 4497.43,4039.17 4530.35,4039.17 4530.35,4049.93 4497.43,4049.93 4497.43,4076.9 4530.35,4076.9 4530.35,4087.66 4486.67,4087.66 "/>
  <path class="fil2" d="M4625.78 4011.57l0 12.15c-8.48,-4.18 -16.33,-6.2 -23.42,-6.2 -9.12,0 -16.84,2.91 -23.17,8.86 -6.2,5.82 -9.37,13.17 -9.37,21.65 0,8.86 3.17,16.08 9.62,22.03 6.46,5.83 14.43,8.74 24.06,8.74 7.09,0 14.43,-2.15 22.28,-6.58l0 12.28c-7.09,3.8 -14.81,5.7 -23.17,5.7 -12.28,0 -22.66,-4.18 -31.27,-12.41 -8.73,-8.23 -13.04,-18.23 -13.04,-29.88 0,-11.39 4.31,-21.14 12.79,-29.37 8.48,-8.1 18.74,-12.15 30.76,-12.15 7.72,0 15.7,1.77 23.93,5.19z"/>
  <polygon class="fil2" points="4659.3,4008.91 4670.06,4008.91 4670.06,4076.9 4695.64,4076.9 4695.64,4087.66 4659.3,4087.66 "/>
  <polygon class="fil2" points="4725.22,4008.91 4735.98,4008.91 4735.98,4087.66 4725.22,4087.66 "/>
  <path class="fil2" d="M4774.85 4008.91l15.83 0c8.99,0 16.2,2.15 21.65,6.33 5.44,4.18 8.23,9.62 8.23,16.33 0,6.71 -2.91,12.41 -8.61,16.96 -5.82,4.56 -14.56,6.83 -26.33,6.71l0 32.41 -10.76 0 0 -78.74zm10.76 9.37l0 27.6c8.1,-0.13 14.06,-1.27 17.85,-3.42 3.93,-2.28 5.83,-5.82 5.83,-10.63 0,-3.67 -1.39,-6.83 -4.43,-9.49 -2.91,-2.66 -9.37,-4.05 -19.24,-4.05z"/>
  <path class="fil2" d="M4902.82 4017.65l-8.73 6.96c-2.28,-2.4 -4.31,-4.18 -6.2,-5.31 -1.9,-1.14 -4.56,-1.77 -8.1,-1.77 -3.93,0 -6.96,0.89 -9.37,2.66 -2.41,1.65 -3.67,3.93 -3.67,6.71 0,2.28 1.01,4.43 3.17,6.2 2.15,1.9 5.7,3.93 10.76,6.07 5.06,2.15 8.99,4.18 11.78,6.08 2.78,1.9 5.06,3.93 6.96,6.2 1.77,2.28 3.17,4.69 4.05,7.09 0.89,2.53 1.27,5.19 1.27,7.98 0,6.58 -2.41,12.15 -7.09,16.71 -4.81,4.68 -10.51,6.96 -17.34,6.96 -6.59,0 -12.41,-1.77 -17.47,-5.44 -5.06,-3.54 -8.86,-8.99 -11.65,-16.2l10.76 -3.04c3.93,8.86 9.87,13.29 17.98,13.29 3.8,0 7.09,-1.14 9.62,-3.54 2.66,-2.28 3.93,-5.19 3.93,-8.74 0,-2.15 -0.63,-4.3 -2.03,-6.46 -1.39,-2.15 -3.04,-3.93 -5.06,-5.31 -1.9,-1.39 -5.19,-2.91 -9.5,-4.81 -4.43,-1.9 -7.85,-3.55 -10.13,-5.07 -2.41,-1.52 -4.43,-3.29 -6.2,-5.31 -1.77,-2.03 -3.04,-4.18 -3.8,-6.2 -0.89,-2.02 -1.27,-4.3 -1.27,-6.58 0,-5.7 2.28,-10.51 6.83,-14.43 4.56,-3.92 10,-5.95 16.46,-5.95 4.3,0 8.61,0.89 13.04,2.78 4.43,1.9 8.1,4.69 11.01,8.48z"/>
  <polygon class="fil2" points="4936.23,4008.91 4979.91,4008.91 4979.91,4019.67 4946.99,4019.67 4946.99,4039.17 4979.91,4039.17 4979.91,4049.93 4946.99,4049.93 4946.99,4076.9 4979.91,4076.9 4979.91,4087.66 4936.23,4087.66 "/>
  <polygon class="fil2" points="5048.22,4008.91 5058.98,4008.91 5058.98,4076.9 5084.56,4076.9 5084.56,4087.66 5048.22,4087.66 "/>
  <polygon class="fil2" points="5113.51,4008.91 5157.19,4008.91 5157.19,4019.67 5124.27,4019.67 5124.27,4039.17 5157.19,4039.17 5157.19,4049.93 5124.27,4049.93 5124.27,4076.9 5157.19,4076.9 5157.19,4087.66 5113.51,4087.66 "/>
  <path class="fil2" d="M5265.15 4021.45l-7.98 7.85c-8.1,-7.85 -17.34,-11.77 -27.98,-11.77 -9.24,0 -16.96,2.91 -23.17,8.86 -6.2,5.95 -9.24,13.42 -9.24,22.28 0,7.72 3.04,14.81 8.99,21.02 5.95,6.2 14.18,9.37 24.69,9.37 15.83,0 25.7,-6.83 29.75,-20.51l-21.4 0 0 -10.76 33.68 0c0,5.31 -0.38,9.62 -1.01,12.91 -0.76,3.17 -2.28,6.71 -4.56,10.51 -2.28,3.93 -5.32,7.34 -9.11,10.38 -3.67,3.16 -7.72,5.31 -12.03,6.71 -4.3,1.26 -9.5,1.9 -15.44,1.9 -13.67,0 -24.56,-4.3 -32.66,-12.79 -8.1,-8.61 -12.15,-18.35 -12.15,-29.37 0,-11.52 4.18,-21.39 12.41,-29.5 8.35,-8.1 18.36,-12.15 30.26,-12.15 6.96,0 13.42,1.01 19.12,3.17 5.82,2.15 11.77,6.07 17.85,11.9z"/>
  <path class="fil2" d="M5335.13 4005.87l37.09 81.78 -11.14 0 -9.24 -20.13 -33.42 0 -9.11 20.13 -11.14 0 36.96 -81.78zm0 24.69l-12.66 27.98 25.32 0 -12.66 -27.98z"/>
  <polygon class="fil2" points="5402.85,4008.91 5413.61,4008.91 5413.61,4076.9 5439.18,4076.9 5439.18,4087.66 5402.85,4087.66 "/>
  <path class="fil2" d="M5567.61 4011.57l0 12.15c-8.48,-4.18 -16.33,-6.2 -23.42,-6.2 -9.12,0 -16.84,2.91 -23.17,8.86 -6.2,5.82 -9.37,13.17 -9.37,21.65 0,8.86 3.17,16.08 9.62,22.03 6.46,5.83 14.43,8.74 24.06,8.74 7.09,0 14.43,-2.15 22.28,-6.58l0 12.28c-7.09,3.8 -14.81,5.7 -23.17,5.7 -12.28,0 -22.66,-4.18 -31.27,-12.41 -8.73,-8.23 -13.04,-18.23 -13.04,-29.88 0,-11.39 4.31,-21.14 12.79,-29.37 8.48,-8.1 18.74,-12.15 30.76,-12.15 7.72,0 15.7,1.77 23.93,5.19z"/>
  <path class="fil2" d="M5596.2 4047.78c0,-11.39 4.3,-21.14 12.91,-29.24 8.48,-8.1 18.86,-12.15 30.89,-12.15 11.77,0 21.78,4.05 30.38,12.28 8.48,8.1 12.66,17.85 12.66,29.12 0,11.77 -4.18,21.9 -12.54,30.13 -8.48,8.1 -18.74,12.28 -30.89,12.28 -12.02,0 -22.28,-4.18 -30.76,-12.41 -8.48,-8.23 -12.66,-18.36 -12.66,-30zm75.45 0.51c0,-8.61 -3.17,-15.95 -9.37,-21.9 -6.33,-5.95 -14.05,-8.86 -23.17,-8.86 -8.74,0 -16.08,3.04 -22.28,9.11 -6.2,5.95 -9.37,13.29 -9.37,21.65 0,8.61 3.17,15.95 9.62,21.9 6.33,5.82 14.05,8.86 23.29,8.86 8.61,0 15.83,-3.04 22.03,-9.11 6.2,-6.07 9.24,-13.29 9.24,-21.65z"/>
  <polygon class="fil2" points="5715.56,4005.75 5773.8,4065.5 5773.8,4008.91 5784.56,4008.91 5784.56,4091.33 5726.33,4031.7 5726.33,4087.66 5715.56,4087.66 "/>
  <path class="fil2" d="M5867.84 4017.65l-8.73 6.96c-2.28,-2.4 -4.31,-4.18 -6.2,-5.31 -1.9,-1.14 -4.56,-1.77 -8.1,-1.77 -3.93,0 -6.96,0.89 -9.37,2.66 -2.41,1.65 -3.67,3.93 -3.67,6.71 0,2.28 1.01,4.43 3.17,6.2 2.15,1.9 5.7,3.93 10.76,6.07 5.06,2.15 8.99,4.18 11.78,6.08 2.78,1.9 5.06,3.93 6.96,6.2 1.77,2.28 3.17,4.69 4.05,7.09 0.89,2.53 1.27,5.19 1.27,7.98 0,6.58 -2.41,12.15 -7.09,16.71 -4.81,4.68 -10.51,6.96 -17.34,6.96 -6.59,0 -12.41,-1.77 -17.47,-5.44 -5.06,-3.54 -8.86,-8.99 -11.65,-16.2l10.76 -3.04c3.93,8.86 9.87,13.29 17.98,13.29 3.8,0 7.09,-1.14 9.62,-3.54 2.66,-2.28 3.93,-5.19 3.93,-8.74 0,-2.15 -0.63,-4.3 -2.03,-6.46 -1.39,-2.15 -3.04,-3.93 -5.06,-5.31 -1.9,-1.39 -5.19,-2.91 -9.5,-4.81 -4.43,-1.9 -7.85,-3.55 -10.13,-5.07 -2.41,-1.52 -4.43,-3.29 -6.2,-5.31 -1.77,-2.03 -3.04,-4.18 -3.8,-6.2 -0.89,-2.02 -1.27,-4.3 -1.27,-6.58 0,-5.7 2.28,-10.51 6.83,-14.43 4.56,-3.92 10,-5.95 16.46,-5.95 4.3,0 8.61,0.89 13.04,2.78 4.43,1.9 8.1,4.69 11.01,8.48z"/>
  <path class="fil2" d="M5901.75 4008.91l10.76 0 0 48.36c0,7.22 1.77,12.78 5.19,16.71 3.42,3.8 8.36,5.82 14.56,5.82 6.33,0 11.14,-1.77 14.69,-5.44 3.42,-3.55 5.19,-8.61 5.19,-15.19l0 -50.26 10.76 0 0 49.5c0,9.62 -2.79,17.34 -8.23,23.17 -5.57,5.7 -12.79,8.61 -22.03,8.61 -9.37,0 -16.84,-2.91 -22.41,-8.74 -5.7,-5.95 -8.48,-14.56 -8.48,-25.95l0 -46.59z"/>
  <polygon class="fil2" points="5999.34,4008.91 6010.1,4008.91 6010.1,4076.9 6035.67,4076.9 6035.67,4087.66 5999.34,4087.66 "/>
  <polygon class="fil2" points="6056.92,4008.91 6105.28,4008.91 6105.28,4019.67 6086.42,4019.67 6086.42,4087.66 6075.66,4087.66 6075.66,4019.67 6056.92,4019.67 "/>
  <path class="fil2" d="M4379.93 4088.15c-19.25,14.7 -69.78,-26.86 -88.39,1.86 28.48,-17.47 73.04,22.23 88.39,-1.86z"/>
  <path class="fil2" d="M4392.23 4094.36c-9.12,12.4 -20.32,18.79 -36.21,16.75 -18.07,-5.67 -47.99,-31.09 -64.48,-21.16 24.29,-15.49 43.44,8.82 68.93,11.65 10.26,1.13 18.79,-4.39 26.27,-14.65l5.48 7.41z"/>
  <path class="fil2" d="M4333.88 4113.36c-36.43,0 -65.96,-29.44 -65.96,-65.76 0,-36.32 29.53,-65.77 65.96,-65.77 36.43,0 65.96,29.44 65.96,65.77 0,14.83 -4.92,28.51 -13.22,39.51l5.37 7.57c10.49,-12.85 16.78,-29.24 16.78,-47.09 0,-41.23 -33.52,-74.65 -74.88,-74.65 -41.35,0 -74.88,33.43 -74.88,74.65 0,41.23 33.52,74.65 74.88,74.65 9.5,0 18.58,-1.76 26.94,-4.98l-13.16 -5.34c-4.44,0.94 -9.06,1.43 -13.78,1.43z"/>
  <polygon class="fil2" points="4286.75,4043.7 4300.18,4011.93 4312.38,4043.35 4308.78,4043.61 4299.91,4015.31 4290.04,4043.74 "/>
  <path class="fil2" d="M4283.81 4042.86l31.51 0.09c-8.44,11.28 -23.13,10.96 -31.51,-0.09z"/>
  <polygon class="fil2" points="4354.85,4043.7 4368.28,4011.93 4380.48,4043.35 4376.88,4043.61 4368.02,4015.31 4358.14,4043.74 "/>
  <path class="fil2" d="M4351.92 4042.86l31.5 0.09c-8.44,11.28 -23.12,10.96 -31.5,-0.09z"/>
  <path class="fil2" d="M4333.55 3996.83l0 0c1.54,0 2.81,1.26 2.81,2.81l0 84.76 -2.79 2.46 -2.83 -2.72 0 -84.5c0,-1.54 1.26,-2.81 2.81,-2.81z"/>
  <path class="fil2" d="M4333.55 4017.96c-3.34,0 -6.06,-2.71 -6.06,-6.06 0,-3.35 2.71,-6.06 6.06,-6.06 3.35,0 6.06,2.71 6.06,6.06 0,3.34 -2.71,6.06 -6.06,6.06z"/>
  <path class="fil2" d="M4331.93 4014.45c-0.58,0.86 -1.67,0.8 -2.95,0.85 -1.29,0.04 -2.78,0.19 -4.19,0.41 -1.41,0.22 -2.72,0.51 -4.05,0.89 -1.33,0.38 -2.67,0.85 -4.09,1.35 -1.42,0.5 -2.91,1.02 -4.14,1.39 -1.22,0.37 -2.19,0.57 -3.15,0.73 -0.97,0.16 -1.93,0.28 -2.8,0.37 -0.86,0.09 -1.62,0.15 -2.29,0.16 -0.67,0.01 -1.26,-0.02 -2.04,-0.19 -0.78,-0.17 -1.74,-0.5 -2.68,-0.99 -0.93,-0.5 -1.84,-1.17 -2.55,-1.78 -0.7,-0.62 -1.2,-1.17 -1.55,-1.76 -0.35,-0.59 -0.55,-1.2 -0.69,-1.73 -0.13,-0.52 -0.19,-0.96 -0.19,-1.42 0,-0.45 0.06,-0.92 0.26,-1.42 0.21,-0.5 0.56,-1.02 0.87,-1.43 0.3,-0.41 0.57,-0.7 0.87,-0.92 0.31,-0.22 0.66,-0.37 1.02,-0.45 0.37,-0.09 0.75,-0.12 1.22,-0.06 0.47,0.06 1.02,0.2 1.4,0.4 0.38,0.19 0.59,0.42 0.68,0.71 0.09,0.3 0.06,0.65 -0.05,1.13 -0.11,0.49 -0.3,1.11 -0.39,1.43 -0.08,0.32 -0.08,0.35 -0.1,0.26 -0.03,-0.08 -0.1,-0.26 -0.24,-0.57 -0.13,-0.31 -0.31,-0.74 -0.53,-1 -0.21,-0.26 -0.45,-0.35 -0.69,-0.41 -0.23,-0.06 -0.47,-0.09 -0.72,-0.1 -0.24,-0.02 -0.51,-0.02 -0.73,0.02 -0.22,0.03 -0.39,0.09 -0.57,0.28 -0.17,0.19 -0.35,0.51 -0.43,0.77 -0.09,0.26 -0.09,0.47 -0.09,0.75 0,0.28 0,0.63 0.04,0.98 0.05,0.35 0.13,0.7 0.25,1.08 0.11,0.38 0.26,0.79 0.53,1.17 0.28,0.39 0.68,0.74 1.05,1.05 0.36,0.3 0.69,0.55 1.08,0.71 0.39,0.17 0.83,0.26 1.45,0.37 0.63,0.11 1.44,0.23 2.37,0.27 0.92,0.04 1.94,-0.02 2.86,-0.14 0.93,-0.12 1.74,-0.29 2.5,-0.48 0.76,-0.19 1.47,-0.39 2.48,-0.76 1.01,-0.37 2.33,-0.89 3.43,-1.36 1.11,-0.47 2.02,-0.88 3,-1.32 0.98,-0.44 2.04,-0.91 3,-1.34 0.97,-0.44 1.85,-0.85 2.78,-1.19 0.93,-0.34 1.93,-0.6 2.93,-0.75 1,-0.15 1.99,-0.17 3.09,-0.2 1.09,-0.03 2.3,-0.06 2.89,-0.09 0.6,-0.03 0.6,-0.06 0.56,0.82 -0.04,0.88 -0.13,2.66 -0.72,3.52z"/>
  <path class="fil2" d="M4336.57 4014.45c0.58,0.86 1.67,0.8 2.95,0.85 1.29,0.04 2.78,0.19 4.19,0.41 1.4,0.22 2.72,0.51 4.05,0.89 1.33,0.38 2.67,0.85 4.09,1.35 1.41,0.5 2.91,1.02 4.14,1.39 1.23,0.37 2.2,0.57 3.16,0.73 0.97,0.16 1.93,0.28 2.8,0.37 0.86,0.09 1.62,0.15 2.29,0.16 0.67,0.01 1.26,-0.02 2.03,-0.19 0.78,-0.17 1.74,-0.5 2.68,-0.99 0.93,-0.5 1.84,-1.17 2.55,-1.78 0.7,-0.62 1.19,-1.17 1.55,-1.76 0.35,-0.59 0.56,-1.2 0.69,-1.73 0.13,-0.52 0.19,-0.96 0.19,-1.42 0,-0.45 -0.06,-0.92 -0.26,-1.42 -0.21,-0.5 -0.56,-1.02 -0.87,-1.43 -0.3,-0.41 -0.57,-0.7 -0.87,-0.92 -0.3,-0.22 -0.66,-0.37 -1.02,-0.45 -0.37,-0.09 -0.75,-0.12 -1.21,-0.06 -0.47,0.06 -1.02,0.2 -1.41,0.4 -0.38,0.19 -0.59,0.42 -0.68,0.71 -0.08,0.3 -0.06,0.65 0.06,1.13 0.11,0.49 0.3,1.11 0.38,1.43 0.09,0.32 0.08,0.35 0.11,0.26 0.04,-0.08 0.1,-0.26 0.24,-0.57 0.13,-0.31 0.32,-0.74 0.53,-1 0.21,-0.26 0.44,-0.35 0.68,-0.41 0.24,-0.06 0.47,-0.09 0.72,-0.1 0.25,-0.02 0.52,-0.02 0.74,0.02 0.22,0.03 0.39,0.09 0.57,0.28 0.17,0.19 0.35,0.51 0.43,0.77 0.09,0.26 0.09,0.47 0.09,0.75 0,0.28 0,0.63 -0.05,0.98 -0.04,0.35 -0.13,0.7 -0.24,1.08 -0.12,0.38 -0.26,0.79 -0.54,1.17 -0.27,0.39 -0.67,0.74 -1.04,1.05 -0.36,0.3 -0.7,0.55 -1.08,0.71 -0.39,0.17 -0.83,0.26 -1.46,0.37 -0.63,0.11 -1.44,0.23 -2.37,0.27 -0.91,0.04 -1.94,-0.02 -2.86,-0.14 -0.92,-0.12 -1.74,-0.29 -2.5,-0.48 -0.76,-0.19 -1.46,-0.39 -2.47,-0.76 -1.01,-0.37 -2.32,-0.89 -3.44,-1.36 -1.11,-0.47 -2.02,-0.88 -3,-1.32 -0.98,-0.44 -2.04,-0.91 -3,-1.34 -0.97,-0.44 -1.85,-0.85 -2.78,-1.19 -0.93,-0.34 -1.93,-0.6 -2.93,-0.75 -0.99,-0.15 -1.98,-0.17 -3.08,-0.2 -1.09,-0.03 -2.3,-0.06 -2.9,-0.09 -0.6,-0.03 -0.6,-0.06 -0.55,0.82 0.04,0.88 0.13,2.66 0.72,3.52z"/>
  <polygon class="fil2" points="6129.76,4084.78 6425.04,4084.78 6425.04,4076.15 6129.76,4076.15 "/>
  <polygon class="fil2" points="6155.99,4051.97 6129.76,4051.97 6129.76,4008.73 6136.68,4008.73 6136.68,4045.92 6155.99,4045.92 "/>
  <path class="fil2" d="M6222.46 4051.97l-7.49 0 -4.33 -11.19 -17.75 0 -4.33 11.19 -7.43 0 17.11 -43.24 7.09 0 17.13 43.24zm-14.13 -17.18l-6.57 -16.96 -6.57 16.96 13.15 0z"/>
  <polygon class="fil2" points="6300.76,4008.72 6287.91,4051.97 6281.05,4051.97 6272,4020.55 6262.95,4051.97 6256.09,4051.97 6243.28,4008.72 6250.66,4008.72 6259.54,4039.98 6268.6,4008.72 6275.39,4008.72 6284.45,4040.03 6293.39,4008.72 "/>
  <polygon class="fil2" points="6385.34,4014.79 6367.18,4014.79 6367.18,4027.35 6383.68,4027.35 6383.68,4033.41 6367.18,4033.41 6367.18,4051.97 6360.26,4051.97 6360.26,4008.73 6385.34,4008.73 "/>
  <polygon class="fil2" points="6414.8,4051.97 6421.71,4051.97 6421.71,4008.72 6414.8,4008.72 "/>
  <path class="fil2" d="M6483.79 4051.97l-8.76 0 -16.37 -18.27 0 18.27 -6.92 0 0 -43.24 16.26 0c6.8,0 12.34,5.54 12.34,12.33 0,6.8 -5.54,12.33 -12.34,12.33l-0.87 0 16.66 18.57zm-16.08 -37.18l-9.05 0 0 12.56 9.05 0c3.46,0 5.71,-2.83 5.71,-6.28 0,-3.45 -2.25,-6.28 -5.71,-6.28z"/>
  <polygon class="fil2" points="6552.11,4051.97 6545.19,4051.97 6545.19,4021.58 6534.47,4038.3 6528.82,4038.3 6518.09,4021.58 6518.09,4051.97 6511.18,4051.97 6511.18,4008.73 6518.09,4008.73 6531.64,4029.83 6545.31,4008.73 6552.11,4008.73 "/>
  <g id="_2779377127344">
   <g style="clip-path:url(#id0)">
    <image x="351.35" y="154.58" width="2375" height="974.19" xlink:href="1_Images\1_ImgID2.png"/>
   </g>
   <path class="fil3" d="M530.99 1047.39l24.5 0c16.25,0 29.5,3.5 39.75,10.5 10.25,7 15.25,16 15.25,26.75 0,13 -7.5,24 -22.25,32.75 23.25,8 34.75,21.5 34.75,40.75 0,13.5 -6,24.25 -18,32.5 -12.25,8 -28.25,12.25 -48.5,12.25l-25.5 0 0 -155.5zm21.25 18.75l0 46c11.75,-0.25 20.5,-2.5 26.75,-6.75 6.25,-4.25 9.25,-10.25 9.25,-17.75 0,-6.75 -2.75,-12 -8.25,-15.75 -5.75,-4 -13.25,-6 -22.5,-6 -2,0 -3.75,0 -5.25,0.25zm0 64.5l0 53.25 1.75 0c18,0 30.25,-3 37,-8.75 6.5,-6 9.75,-12 9.75,-18 0,-8 -3.75,-14.5 -11,-19.25 -7.5,-4.75 -17.5,-7.25 -30.5,-7.25l-7 0zm183.25 -28.5l21.25 0 0 100.75 -21.25 0 0 -20c-10.25,15.25 -23.25,22.75 -38.5,22.75 -13.25,0 -24.75,-5.25 -34,-15.75 -9.5,-10.25 -14.25,-23 -14.25,-38 0,-14 4.75,-26.5 14.25,-37 9.5,-10.5 20.75,-15.75 33.5,-15.75 8,0 15.5,2.25 22.5,6.5 7,4.25 12.5,10 16.5,17l0 -20.5zm3 50.5c0,-9.25 -3.25,-17 -10,-23.75 -6.5,-6.5 -14.5,-9.75 -23.75,-9.75 -9,0 -17,3.25 -23.75,9.75 -6.5,6.5 -10,14.25 -10,23 0,9.5 3.25,17.75 9.75,24.5 6.75,6.75 14.5,10 24,10 9.25,0 17.25,-3.25 23.75,-10 6.75,-6.75 10,-14.5 10,-23.75zm46.25 50.25l0 -100.75 21.25 0 0 16.75c6,-6.75 11.5,-11.75 16.5,-15 5,-3.25 10.5,-4.75 16.5,-4.75 9,0 16.75,3 23.25,9 6.25,6 9.5,13.25 9.5,21.75l0 73 -21.25 0 0 -66.75c0,-5.5 -1.75,-10 -5.25,-13.75 -3.5,-3.5 -8,-5.25 -13.5,-5.25 -7,0 -13,3 -18,9 -5.25,6 -7.75,13.25 -7.75,21.75l0 55 -21.25 0zm112.25 -158.5l21.25 0 0 102 41.25 -44.25 27.75 0 -43.25 46.5 43.75 54.25 -26.5 0 -43 -53.25 0 53.25 -21.25 0 0 -158.5zm106.75 24.75c0,-4.5 1.75,-8.25 5,-11.5 3.25,-3.25 7,-4.75 11.5,-4.75 4.5,0 8.25,1.5 11.5,4.75 3.25,3.25 4.75,7 4.75,11.5 0,4.5 -1.5,8.25 -4.75,11.5 -3.25,3.25 -7,4.75 -11.5,4.75 -4.5,0 -8.25,-1.5 -11.5,-4.75 -3.25,-3.25 -5,-7 -5,-11.5zm6 33l21.25 0 0 100.75 -21.25 0 0 -100.75zm48.75 100.75l0 -100.75 21.25 0 0 16.75c6,-6.75 11.5,-11.75 16.5,-15 5,-3.25 10.5,-4.75 16.5,-4.75 9,0 16.75,3 23.25,9 6.25,6 9.5,13.25 9.5,21.75l0 73 -21.25 0 0 -66.75c0,-5.5 -1.75,-10 -5.25,-13.75 -3.5,-3.5 -8,-5.25 -13.5,-5.25 -7,0 -13,3 -18,9 -5.25,6 -7.75,13.25 -7.75,21.75l0 55 -21.25 0zm197.25 -100.75l20.75 0 0 96.75c0,14.25 -5,26.25 -14.75,36.25 -9.75,10 -21.5,15 -35.5,15 -10.5,0 -20.25,-2.75 -29.25,-8.5 -8.75,-5.75 -15.25,-14.5 -19.5,-26.25l22 0c6.5,10.75 15.75,16.25 27.5,16.25 8,0 14.75,-2.75 20.25,-8.5 5.75,-5.75 8.5,-12.75 8.5,-20.75l0 -19c-10.25,14.75 -23.25,22.25 -38.75,22.25 -13,0 -24,-5.25 -33.75,-16 -9.5,-10.5 -14.25,-23.25 -14.25,-37.75 0,-14.5 4.75,-27 14,-37.25 9.25,-10.25 20.5,-15.5 33.25,-15.5 16.5,0 29.75,8 39.5,24.25l0 -21.25zm3 50c0,-9.5 -3.25,-17.25 -9.75,-23.75 -6.5,-6.25 -14.75,-9.5 -24.5,-9.5 -8.75,0 -16.5,3.25 -23.25,10 -6.75,6.5 -10.25,14.25 -10.25,22.75 0,9.5 3.25,17.5 10,24.25 6.75,6.75 14.75,10.25 23.75,10.25 9.5,0 17.5,-3.25 24,-10 6.75,-6.5 10,-14.5 10,-24zm118.25 50.75l0 -100.75 21.25 0 0 15.25c5,-6.25 9.75,-11 14.25,-14 4.5,-2.75 9.5,-4.25 15.5,-4.25 7.5,0 13.5,1.75 17.75,5 4.25,3.25 8,8.75 11,16 5.25,-7.25 10.5,-12.75 15.5,-16 4.75,-3.25 10.5,-5 17,-5 8,0 15,3 20.75,9 5.75,6 8.75,13 8.75,21.25l0 73.5 -21.25 0 0 -68.25c0,-11.25 -5.5,-16.75 -16.5,-16.75 -6.25,0 -11.5,2.75 -16,8.5 -4.25,5.75 -6.5,13 -6.5,21.25l0 55.25 -21.25 0 0 -65.25c0,-13.25 -5.25,-19.75 -16,-19.75 -6.5,0 -12,2.75 -16.25,8 -4.5,5.5 -6.75,12 -6.75,20l0 57 -21.25 0zm253.5 -100.75l21.25 0 0 100.75 -21.25 0 0 -20c-10.25,15.25 -23.25,22.75 -38.5,22.75 -13.25,0 -24.75,-5.25 -34,-15.75 -9.5,-10.25 -14.25,-23 -14.25,-38 0,-14 4.75,-26.5 14.25,-37 9.5,-10.5 20.75,-15.75 33.5,-15.75 8,0 15.5,2.25 22.5,6.5 7,4.25 12.5,10 16.5,17l0 -20.5zm3 50.5c0,-9.25 -3.25,-17 -10,-23.75 -6.5,-6.5 -14.5,-9.75 -23.75,-9.75 -9,0 -17,3.25 -23.75,9.75 -6.5,6.5 -10,14.25 -10,23 0,9.5 3.25,17.75 9.75,24.5 6.75,6.75 14.5,10 24,10 9.25,0 17.25,-3.25 23.75,-10 6.75,-6.75 10,-14.5 10,-23.75zm135 -108.25l20.75 0 0 158.5 -20.75 0 0 -21c-10,15.75 -23.25,23.75 -39.5,23.75 -13,0 -24.25,-5.25 -33.75,-15.75 -9.25,-10.5 -14,-23.25 -14,-38 0,-14.5 4.75,-26.75 14.5,-37.25 9.5,-10.25 20.75,-15.5 34,-15.5 8,0 15.5,2.25 22.25,6.5 7,4.5 12.5,10.25 16.5,17.25l0 -78.5zm2.5 107.75c0,-9 -3.25,-17 -10,-23.5 -6.5,-6.75 -14.5,-10 -23.75,-10 -9.5,0 -17.5,3.25 -24,9.75 -6.75,6.5 -10,14.5 -10,23.75 0,9 3.5,17 10,23.5 6.75,6.75 14.75,10.25 23.5,10.25 9.5,0 17.75,-3.25 24.25,-9.75 6.75,-6.5 10,-14.5 10,-24zm151.25 4.25l-86 0c2,10.5 6.25,18 12.75,22.75 6.75,4.75 14,7.25 21.75,7.25 12,0 22.25,-5 30.25,-15l15.5 11.75c-11.5,15 -27.25,22.5 -46.75,22.5 -15,0 -27.5,-5.25 -37.5,-15.5 -10.25,-10.25 -15.25,-23 -15.25,-38.25 0,-14.25 5.25,-26.5 15.25,-37 10.25,-10.5 22.75,-15.75 37.5,-15.75 14.5,0 27,5.25 37.25,16 10.25,10.5 15.5,24.25 15.25,41.25zm-83.75 -17l61.75 0c-6.75,-13.75 -17,-20.75 -30.25,-20.75 -14.75,0 -25.25,7 -31.5,20.75zm277.75 17l-86 0c2,10.5 6.25,18 12.75,22.75 6.75,4.75 14,7.25 21.75,7.25 12,0 22.25,-5 30.25,-15l15.5 11.75c-11.5,15 -27.25,22.5 -46.75,22.5 -15,0 -27.5,-5.25 -37.5,-15.5 -10.25,-10.25 -15.25,-23 -15.25,-38.25 0,-14.25 5.25,-26.5 15.25,-37 10.25,-10.5 22.75,-15.75 37.5,-15.75 14.5,0 27,5.25 37.25,16 10.25,10.5 15.5,24.25 15.25,41.25zm-83.75 -17l61.75 0c-6.75,-13.75 -17,-20.75 -30.25,-20.75 -14.75,0 -25.25,7 -31.5,20.75zm193 -37.25l21.25 0 0 100.75 -21.25 0 0 -20c-10.25,15.25 -23.25,22.75 -38.5,22.75 -13.25,0 -24.75,-5.25 -34,-15.75 -9.5,-10.25 -14.25,-23 -14.25,-38 0,-14 4.75,-26.5 14.25,-37 9.5,-10.5 20.75,-15.75 33.5,-15.75 8,0 15.5,2.25 22.5,6.5 7,4.25 12.5,10 16.5,17l0 -20.5zm3 50.5c0,-9.25 -3.25,-17 -10,-23.75 -6.5,-6.5 -14.5,-9.75 -23.75,-9.75 -9,0 -17,3.25 -23.75,9.75 -6.5,6.5 -10,14.25 -10,23 0,9.5 3.25,17.75 9.75,24.5 6.75,6.75 14.5,10 24,10 9.25,0 17.25,-3.25 23.75,-10 6.75,-6.75 10,-14.5 10,-23.75zm111 -38.75l-14.25 12.5c-3.5,-2.75 -6.75,-4.75 -9.5,-6 -2.75,-1.25 -5.75,-2 -9.5,-2 -8.75,0 -13,3.25 -13,9.5 0,4.5 5.5,9 16.5,13.25 11,4.25 18.75,9 23.5,14.25 4.75,5 7.25,11.25 7.25,18.5 0,8.5 -3.5,16 -10.25,22.25 -7,6.25 -15.25,9.5 -24.5,9.5 -14.25,0 -25.75,-6.5 -35,-19.75l16.75 -8c5.75,5.75 12,8.5 18.25,8.5 4.5,0 8.25,-1.25 11.5,-3.75 3.25,-2.25 5,-5 5,-8.25 0,-5.75 -5.75,-10.75 -17.25,-15.25 -11.75,-4.5 -19.75,-9 -24,-13.75 -4.5,-4.5 -6.75,-10.25 -6.75,-17 0,-8.25 3.25,-15.25 9.5,-21 6.25,-5.5 14.25,-8.25 23.75,-8.25 9.5,0 20.25,5 32,14.75zm16 -11.75l24 0 36.5 54.5 25 -54.5 22.25 0 -68 148 -22.25 0 33.25 -72.25 -50.75 -75.75z"/>
   <path class="fil3" d="M150.15 1336.67l28 66.75 30 -62.5 18.25 0 -49.25 103.5 -27.25 -64.5 -26.75 63.75 -49.5 -102.75 18.5 0 30 62.25 28 -66.5zm93.75 -28.75c0,-4.5 1.75,-8.25 5,-11.5 3.25,-3.25 7,-4.75 11.5,-4.75 4.5,0 8.25,1.5 11.5,4.75 3.25,3.25 4.75,7 4.75,11.5 0,4.5 -1.5,8.25 -4.75,11.5 -3.25,3.25 -7,4.75 -11.5,4.75 -4.5,0 -8.25,-1.5 -11.5,-4.75 -3.25,-3.25 -5,-7 -5,-11.5zm6 33l21.25 0 0 100.75 -21.25 0 0 -100.75zm59.5 -29l21.25 0 0 29 21 0 0 19.75 -21 0 0 81 -21.25 0 0 -81 -16.75 0 0 -19.75 16.75 0 0 -29zm56.25 -28.75l21.25 0 0 74c6,-6.75 11.25,-11.75 16.5,-14.75 5,-3 11.25,-4.5 18.5,-4.5 8.5,0 16,3.25 22.25,9.75 6.25,6.75 9.25,14.5 9.25,23.75l0 70.25 -21.25 0 0 -64.75c0,-6.25 -1.5,-11.5 -4.75,-15.25 -3.25,-3.75 -7.5,-5.75 -12.75,-5.75 -7.75,0 -14.25,3 -19.5,8.75 -5.5,5.75 -8.25,12.75 -8.25,21l0 56 -21.25 0 0 -158.5zm283.75 112l-86 0c2,10.5 6.25,18 12.75,22.75 6.75,4.75 14,7.25 21.75,7.25 12,0 22.25,-5 30.25,-15l15.5 11.75c-11.5,15 -27.25,22.5 -46.75,22.5 -15,0 -27.5,-5.25 -37.5,-15.5 -10.25,-10.25 -15.25,-23 -15.25,-38.25 0,-14.25 5.25,-26.5 15.25,-37 10.25,-10.5 22.75,-15.75 37.5,-15.75 14.5,0 27,5.25 37.25,16 10.25,10.5 15.5,24.25 15.25,41.25zm-83.75 -17l61.75 0c-6.75,-13.75 -17,-20.75 -30.25,-20.75 -14.75,0 -25.25,7 -31.5,20.75z"/>
   <polygon class="fil3" points="666.45,1340.92 692.2,1340.92 714.7,1369.67 736.95,1340.92 762.2,1340.92 727.2,1386.42 769.45,1441.67 743.95,1441.67 714.2,1402.92 684.45,1441.67 659.45,1441.67 701.95,1386.42 "/>
   <path class="fil3" d="M859.44 1410.92l0 24.25c-10.75,6.25 -21.25,9.25 -31.5,9.25 -14,0 -26,-5.25 -36.5,-15.75 -10.5,-10.5 -15.75,-22.5 -15.75,-36.25 0,-15.75 5.25,-28.75 15.75,-39 10.25,-10.25 23.5,-15.5 39,-15.5 9.5,0 19,2.5 29,7.25l0 23.75c-10.75,-6.75 -20.75,-10 -30.25,-10 -8.75,0 -16.5,3 -23,9.25 -6.75,6.25 -10,13.5 -10,21.75 0,9.25 3,17.25 9.25,23.75 6.25,6.25 13.75,9.5 22.75,9.5 9.25,0 19.5,-4 31.25,-12.25zm121.25 -15.75l-86 0c2,10.5 6.25,18 12.75,22.75 6.75,4.75 14,7.25 21.75,7.25 12,0 22.25,-5 30.25,-15l15.5 11.75c-11.5,15 -27.25,22.5 -46.75,22.5 -15,0 -27.5,-5.25 -37.5,-15.5 -10.25,-10.25 -15.25,-23 -15.25,-38.25 0,-14.25 5.25,-26.5 15.25,-37 10.25,-10.5 22.75,-15.75 37.5,-15.75 14.5,0 27,5.25 37.25,16 10.25,10.5 15.5,24.25 15.25,41.25zm-83.75 -17l61.75 0c-6.75,-13.75 -17,-20.75 -30.25,-20.75 -14.75,0 -25.25,7 -31.5,20.75zm111 -95l21.25 0 0 158.5 -21.25 0 0 -158.5zm54.75 0l21.25 0 0 158.5 -21.25 0 0 -158.5zm152.5 112l-86 0c2,10.5 6.25,18 12.75,22.75 6.75,4.75 14,7.25 21.75,7.25 12,0 22.25,-5 30.25,-15l15.5 11.75c-11.5,15 -27.25,22.5 -46.75,22.5 -15,0 -27.5,-5.25 -37.5,-15.5 -10.25,-10.25 -15.25,-23 -15.25,-38.25 0,-14.25 5.25,-26.5 15.25,-37 10.25,-10.5 22.75,-15.75 37.5,-15.75 14.5,0 27,5.25 37.25,16 10.25,10.5 15.5,24.25 15.25,41.25zm-83.75 -17l61.75 0c-6.75,-13.75 -17,-20.75 -30.25,-20.75 -14.75,0 -25.25,7 -31.5,20.75zm104.25 63.5l0 -100.75 21.25 0 0 16.75c6,-6.75 11.5,-11.75 16.5,-15 5,-3.25 10.5,-4.75 16.5,-4.75 9,0 16.75,3 23.25,9 6.25,6 9.5,13.25 9.5,21.75l0 73 -21.25 0 0 -66.75c0,-5.5 -1.75,-10 -5.25,-13.75 -3.5,-3.5 -8,-5.25 -13.5,-5.25 -7,0 -13,3 -18,9 -5.25,6 -7.75,13.25 -7.75,21.75l0 55 -21.25 0zm120.25 -129.75l21.25 0 0 29 21 0 0 19.75 -21 0 0 81 -21.25 0 0 -81 -16.75 0 0 -19.75 16.75 0 0 -29zm126 -4c0,-4.5 1.75,-8.25 5,-11.5 3.25,-3.25 7,-4.75 11.5,-4.75 4.5,0 8.25,1.5 11.5,4.75 3.25,3.25 4.75,7 4.75,11.5 0,4.5 -1.5,8.25 -4.75,11.5 -3.25,3.25 -7,4.75 -11.5,4.75 -4.5,0 -8.25,-1.5 -11.5,-4.75 -3.25,-3.25 -5,-7 -5,-11.5zm6 33l21.25 0 0 100.75 -21.25 0 0 -100.75zm48.75 100.75l0 -100.75 21.25 0 0 16.75c6,-6.75 11.5,-11.75 16.5,-15 5,-3.25 10.5,-4.75 16.5,-4.75 9,0 16.75,3 23.25,9 6.25,6 9.5,13.25 9.5,21.75l0 73 -21.25 0 0 -66.75c0,-5.5 -1.75,-10 -5.25,-13.75 -3.5,-3.5 -8,-5.25 -13.5,-5.25 -7,0 -13,3 -18,9 -5.25,6 -7.75,13.25 -7.75,21.75l0 55 -21.25 0zm109.5 0l0 -100.75 21.25 0 0 16.75c6,-6.75 11.5,-11.75 16.5,-15 5,-3.25 10.5,-4.75 16.5,-4.75 9,0 16.75,3 23.25,9 6.25,6 9.5,13.25 9.5,21.75l0 73 -21.25 0 0 -66.75c0,-5.5 -1.75,-10 -5.25,-13.75 -3.5,-3.5 -8,-5.25 -13.5,-5.25 -7,0 -13,3 -18,9 -5.25,6 -7.75,13.25 -7.75,21.75l0 55 -21.25 0zm107.75 -50.75c0,-14 5.5,-26.25 16.25,-37 11,-10.75 23.5,-16 37.5,-16 14.5,0 27.25,5.25 38,15.75 10.75,10.75 16.25,23 16.25,37.25 0,14.25 -5.25,26.75 -16,37.5 -10.5,10.75 -22.75,16.25 -36.75,16.25 -15,0 -27.75,-5.25 -38.75,-16 -11,-10.75 -16.5,-23.25 -16.5,-37.75zm87.5 0c0,-8.75 -3.25,-16 -9.75,-22.5 -6.5,-6.25 -14.25,-9.5 -23.25,-9.5 -9.25,0 -17,3.25 -23.75,9.75 -6.75,6.25 -10,14 -10,23 0,8.5 3.5,16 10,22.5 6.75,6.25 14.75,9.5 23.75,9.5 8.75,0 16.5,-3.25 23,-9.75 6.75,-6.75 10,-14.25 10,-23z"/>
   <polygon class="fil3" points="1871.73,1340.92 1893.98,1340.92 1922.73,1399.17 1950.98,1340.92 1973.23,1340.92 1922.73,1445.43 "/>
   <path class="fil3" d="M2068.98 1340.92l21.25 0 0 100.75 -21.25 0 0 -20c-10.25,15.25 -23.25,22.75 -38.5,22.75 -13.25,0 -24.75,-5.25 -34,-15.75 -9.5,-10.25 -14.25,-23 -14.25,-38 0,-14 4.75,-26.5 14.25,-37 9.5,-10.5 20.75,-15.75 33.5,-15.75 8,0 15.5,2.25 22.5,6.5 7,4.25 12.5,10 16.5,17l0 -20.5zm3 50.5c0,-9.25 -3.25,-17 -10,-23.75 -6.5,-6.5 -14.5,-9.75 -23.75,-9.75 -9,0 -17,3.25 -23.75,9.75 -6.5,6.5 -10,14.25 -10,23 0,9.5 3.25,17.75 9.75,24.5 6.75,6.75 14.5,10 24,10 9.25,0 17.25,-3.25 23.75,-10 6.75,-6.75 10,-14.5 10,-23.75zm57 -79.5l21.25 0 0 29 21 0 0 19.75 -21 0 0 81 -21.25 0 0 -81 -16.75 0 0 -19.75 16.75 0 0 -29zm57 -4c0,-4.5 1.75,-8.25 5,-11.5 3.25,-3.25 7,-4.75 11.5,-4.75 4.5,0 8.25,1.5 11.5,4.75 3.25,3.25 4.75,7 4.75,11.5 0,4.5 -1.5,8.25 -4.75,11.5 -3.25,3.25 -7,4.75 -11.5,4.75 -4.5,0 -8.25,-1.5 -11.5,-4.75 -3.25,-3.25 -5,-7 -5,-11.5zm6 33l21.25 0 0 100.75 -21.25 0 0 -100.75zm47 50c0,-14 5.5,-26.25 16.25,-37 11,-10.75 23.5,-16 37.5,-16 14.5,0 27.25,5.25 38,15.75 10.75,10.75 16.25,23 16.25,37.25 0,14.25 -5.25,26.75 -16,37.5 -10.5,10.75 -22.75,16.25 -36.75,16.25 -15,0 -27.75,-5.25 -38.75,-16 -11,-10.75 -16.5,-23.25 -16.5,-37.75zm87.5 0c0,-8.75 -3.25,-16 -9.75,-22.5 -6.5,-6.25 -14.25,-9.5 -23.25,-9.5 -9.25,0 -17,3.25 -23.75,9.75 -6.75,6.25 -10,14 -10,23 0,8.5 3.5,16 10,22.5 6.75,6.25 14.75,9.5 23.75,9.5 8.75,0 16.5,-3.25 23,-9.75 6.75,-6.75 10,-14.25 10,-23zm39.25 50.75l0 -100.75 21.25 0 0 16.75c6,-6.75 11.5,-11.75 16.5,-15 5,-3.25 10.5,-4.75 16.5,-4.75 9,0 16.75,3 23.25,9 6.25,6 9.5,13.25 9.5,21.75l0 73 -21.25 0 0 -66.75c0,-5.5 -1.75,-10 -5.25,-13.75 -3.5,-3.5 -8,-5.25 -13.5,-5.25 -7,0 -13,3 -18,9 -5.25,6 -7.75,13.25 -7.75,21.75l0 55 -21.25 0z"/>
  </g>
 </g>
</svg>
