<?xml version="1.0" encoding="UTF-8"?>
<!DOCTYPE svg PUBLIC "-//W3C//DTD SVG 1.1//EN" "http://www.w3.org/Graphics/SVG/1.1/DTD/svg11.dtd">
<!-- Creator: CorelDRAW 2021 (64-Bit) -->
<svg xmlns="http://www.w3.org/2000/svg" xml:space="preserve" width="2.8in" height="1.6in" version="1.1" style="shape-rendering:geometricPrecision; text-rendering:geometricPrecision; image-rendering:optimizeQuality; fill-rule:evenodd; clip-rule:evenodd"
viewBox="0 0 2800 1600"
 xmlns:xlink="http://www.w3.org/1999/xlink"
 xmlns:xodm="http://www.corel.com/coreldraw/odm/2003">
 <defs>
  <style type="text/css">
   <![CDATA[
    .str0 {stroke:#E2A847;stroke-width:10.41;stroke-miterlimit:2.61313}
    .fil4 {fill:none;fill-rule:nonzero}
    .fil5 {fill:#E2A847}
    .fil2 {fill:#373435;fill-rule:nonzero}
    .fil0 {fill:#890E11;fill-rule:nonzero}
    .fil3 {fill:#E2A847;fill-rule:nonzero}
    .fil1 {fill:#F1F1F2;fill-rule:nonzero}
   ]]>
  </style>
 </defs>
<symbol id="Fm376-376-0" viewBox="-3000.76 -2777.78 492.39 1337.7">
 <polygon class="fil0" points="-3000.76,-2777.78 -3000.76,-1440.08 -2742.24,-1686.29 -2508.36,-1440.08 -2508.36,-2777.78 "/>
</symbol>
<symbol id="Fm186-186-0" viewBox="1575.88 -2896.72 5284.85 5627.43">
 <polygon class="fil1" points="1575.88,2730.7 6860.73,2730.7 6860.73,-2896.72 1575.88,-2896.72 "/>
</symbol>
<symbol id="Fm343-343-0" viewBox="3501.85 -3042.26 3412.37 4040.38">
 <polygon class="fil1" points="3501.85,998.12 6914.22,998.12 6914.22,-3042.26 3501.85,-3042.26 "/>
</symbol>
<symbol id="Fm155-155-0" viewBox="2356.99 -3029.57 4564.11 6446.46">
 <polygon class="fil1" points="2356.99,3416.89 6921.1,3416.89 6921.1,-3029.57 2356.99,-3029.57 "/>
</symbol>
 <g id="Layer_x0020_1">
  <metadata id="CorelCorpID_0Corel-Layer"/>
  <g id="_2779074773536">
   <path class="fil2" d="M509.46 1249.17l16.93 0c9.33,0 16.24,-0.75 20.9,-2.07 4.67,-1.31 8.64,-3.57 12.09,-6.77 4.66,-4.32 8.12,-9.77 10.54,-16.16 2.25,-6.57 3.46,-14.09 3.46,-22.55 0,-8.65 -1.21,-16.16 -3.46,-22.55 -2.42,-6.39 -5.87,-11.84 -10.54,-16.16 -3.46,-3.2 -7.6,-5.45 -12.61,-6.77 -4.84,-1.5 -12.44,-2.07 -22.8,-2.07l-7.26 0 -7.26 0 0 95.09zm-20.04 19.73l0 -134.37 27.13 0c17.61,0 29.88,0.94 37.13,2.82 7.09,2.07 13.48,5.26 18.83,9.77 7.09,5.83 12.61,13.53 16.24,22.74 3.63,9.4 5.53,19.92 5.53,31.95 0,11.84 -1.9,22.55 -5.53,31.76 -3.63,9.21 -9.15,16.72 -16.24,22.74 -5.35,4.51 -11.57,7.7 -18.48,9.77 -6.91,1.88 -17.62,2.82 -32.13,2.82l-5.35 0 -27.13 0z"/>
   <path class="fil2" d="M640.35 1216.1l34.37 0 -12.61 -30.63c-0.69,-1.88 -1.56,-4.13 -2.25,-6.76 -0.87,-2.44 -1.56,-5.26 -2.42,-8.46 -0.69,3.01 -1.38,5.64 -2.07,8.27 -0.87,2.44 -1.56,4.89 -2.42,6.95l-12.61 30.63zm55.45 52.81l-13.99 -34.58 -48.89 0 -14.34 34.58 -21.07 0 59.77 -139.63 59.77 139.63 -21.25 0zm32.82 0l0 -139.63 78.43 82.13c2.24,2.26 4.31,4.7 6.56,7.33 2.24,2.63 4.49,5.64 6.91,9.02l0 -93.21 18.48 0 0 139.63 -79.98 -83.63c-2.07,-2.26 -4.15,-4.7 -6.22,-7.14 -2.07,-2.63 -3.8,-5.26 -5.7,-7.89l0 93.4 -18.48 0zm216.97 -52.81l34.38 0 -12.61 -30.63c-0.69,-1.88 -1.56,-4.13 -2.25,-6.76 -0.86,-2.44 -1.56,-5.26 -2.42,-8.46 -0.69,3.01 -1.38,5.64 -2.07,8.27 -0.87,2.44 -1.56,4.89 -2.42,6.95l-12.61 30.63zm55.45 52.81l-13.99 -34.58 -48.89 0 -14.34 34.58 -21.07 0 59.77 -139.63 59.77 139.63 -21.25 0zm52.86 -77.05l3.63 0c10.71,0 17.79,-1.31 21.25,-4.13 3.45,-2.63 5.18,-7.33 5.18,-14.28 0,-7.33 -1.9,-12.59 -5.53,-15.6 -3.8,-3.01 -10.71,-4.51 -20.9,-4.51l-3.63 0 0 38.53zm-1.21 16.91l0 60.14 -18.83 0 0 -134.37 27.99 0c8.29,0 14.51,0.56 19.17,1.69 4.49,1.13 8.29,3.19 11.57,5.82 3.8,3.2 6.74,7.52 8.81,12.59 2.07,5.07 3.11,10.71 3.11,16.91 0,10.71 -2.42,19.17 -7.09,25.18 -4.83,6.2 -11.92,9.77 -21.25,11.09l42.5 61.08 -22.63 0 -41.11 -60.14 -2.25 0zm77.91 60.14l0 -134.37 68.93 0 0 18.61 -48.89 0 0 33.64 48.89 0 0 19.17 -48.89 0 0 43.41 48.89 0 0 19.54 -68.93 0zm117.98 -52.81l34.38 0 -12.61 -30.63c-0.69,-1.88 -1.56,-4.13 -2.25,-6.76 -0.86,-2.44 -1.56,-5.26 -2.42,-8.46 -0.69,3.01 -1.38,5.64 -2.07,8.27 -0.87,2.44 -1.56,4.89 -2.42,6.95l-12.61 30.63zm55.45 52.81l-13.99 -34.58 -48.89 0 -14.34 34.58 -21.07 0 59.77 -139.63 59.77 139.63 -21.25 0z"/>
   <path class="fil2" d="M1319.24 1134.54l19.86 0 23.32 67.84c1.56,4.51 2.77,8.27 3.81,11.65 1.03,3.38 2.07,6.57 2.76,9.58 2.07,-7.14 4.15,-14.09 6.22,-20.86 0.34,-0.94 0.52,-1.5 0.52,-1.69l24.88 -71.79 26.09 73.11c1.21,3.57 2.42,7.14 3.63,10.52 1.04,3.57 2.07,7.14 2.93,10.9 0.69,-2.82 1.38,-5.83 2.42,-9.21 0.86,-3.2 2.07,-7.14 3.63,-11.65l23.15 -68.41 20.04 0 -47.85 139.63 -28.15 -76.68c-1.21,-3.38 -2.42,-6.76 -3.28,-9.96 -1.04,-3.01 -2.07,-6.01 -2.76,-8.83 -1.04,3.57 -1.9,6.95 -2.94,10.15 -0.86,3.2 -1.9,6.2 -2.93,9.02l-27.64 76.3 -47.67 -139.63z"/>
   <path class="fil2" d="M1519.19 1216.1l34.38 0 -12.61 -30.63c-0.69,-1.88 -1.56,-4.13 -2.24,-6.76 -0.87,-2.44 -1.56,-5.26 -2.42,-8.46 -0.69,3.01 -1.39,5.64 -2.07,8.27 -0.87,2.44 -1.56,4.89 -2.42,6.95l-12.61 30.63zm55.45 52.81l-13.99 -34.58 -48.89 0 -14.34 34.58 -21.07 0 59.77 -139.63 59.77 139.63 -21.25 0zm77.91 -26.87l16.06 -8.08c1.56,6.02 4.32,10.53 8.3,13.72 4.14,3.2 9.33,4.7 15.55,4.7 6.04,0 10.71,-1.88 14.34,-5.45 3.45,-3.57 5.18,-8.46 5.18,-14.47 0,-7.89 -6.05,-14.85 -18.14,-21.05 -1.56,-0.94 -2.94,-1.69 -3.8,-2.07 -13.65,-7.14 -22.63,-13.72 -27.3,-19.54 -4.49,-5.83 -6.73,-12.97 -6.73,-21.43 0,-11.09 3.45,-19.92 10.19,-26.69 6.91,-6.77 15.89,-10.15 26.95,-10.15 9.16,0 16.76,1.88 22.8,5.64 6.22,3.95 10.37,9.4 12.78,16.54l-15.72 8.83c-2.42,-4.32 -5.18,-7.33 -8.12,-9.21 -2.94,-2.07 -6.39,-3 -10.19,-3 -5.35,0 -9.67,1.5 -12.78,4.51 -3.28,3.2 -4.84,7.14 -4.84,12.41 0,8.08 7.08,15.6 20.9,22.55 1.21,0.56 1.9,0.94 2.59,1.31 12.26,6.01 20.56,12.03 25.22,17.85 4.49,5.83 6.74,13.15 6.74,21.99 0,12.59 -3.63,22.74 -11.06,30.26 -7.43,7.52 -17.27,11.28 -29.89,11.28 -10.54,0 -19.17,-2.63 -25.91,-7.89 -6.57,-5.26 -11.06,-12.78 -13.13,-22.55zm101.92 26.87l0 -134.37 20.04 0 0 49.61 60.81 0 0 -49.61 20.04 0 0 134.37 -20.04 0 0 -65.21 -60.81 0 0 65.21 -20.04 0zm129.21 0l0 -134.37 68.93 0 0 18.61 -48.89 0 0 33.64 48.89 0 0 19.17 -48.89 0 0 43.41 48.89 0 0 19.54 -68.93 0zm91.9 0l0 -134.37 20.04 0 0 114.83 44.91 0 0 19.54 -64.95 0z"/>
   <path class="fil2" d="M2087.24 1153.14l0 115.76 -20.04 0 0 -115.76 -32.82 0 0 -18.61 85.51 0 0 18.61 -32.65 0zm48.02 115.76l0 -134.37 68.93 0 0 18.61 -48.89 0 0 33.64 48.89 0 0 19.17 -48.89 0 0 43.41 48.89 0 0 19.54 -68.93 0zm111.94 -77.05l3.63 0c10.71,0 17.79,-1.31 21.24,-4.13 3.46,-2.63 5.19,-7.33 5.19,-14.28 0,-7.33 -1.9,-12.59 -5.53,-15.6 -3.8,-3.01 -10.71,-4.51 -20.9,-4.51l-3.63 0 0 38.53zm-1.21 16.91l0 60.14 -18.83 0 0 -134.37 27.98 0c8.29,0 14.51,0.56 19.18,1.69 4.49,1.13 8.29,3.19 11.57,5.82 3.8,3.2 6.74,7.52 8.81,12.59 2.07,5.07 3.11,10.71 3.11,16.91 0,10.71 -2.42,19.17 -7.09,25.18 -4.83,6.2 -11.92,9.77 -21.25,11.09l42.5 61.08 -22.63 0 -41.11 -60.14 -2.25 0z"/>
   <path class="fil3" d="M488.02 1322.5l13.69 0c6.8,0 12.37,1.72 16.63,5.07 4.26,3.35 6.39,7.71 6.39,12.98 0,4.16 -1.32,7.91 -4.16,11.15 -2.74,3.24 -7,5.47 -12.87,6.79l18.25 27.07 -9.83 0 -17.54 -25.96 -1.93 0 0 25.96 -8.62 0 0 -63.06zm8.62 7.6l0 22c12.67,0.3 19.06,-3.45 19.06,-11.05 0,-2.64 -0.71,-4.87 -2.23,-6.59 -1.52,-1.72 -3.45,-2.84 -5.88,-3.45 -2.54,-0.61 -6.19,-0.91 -10.95,-0.91zm40.05 -7.6l34.98 0 0 8.62 -26.36 0 0 15.61 26.36 0 0 8.62 -26.36 0 0 21.59 26.36 0 0 8.62 -34.98 0 0 -63.06zm68.74 -2.43l29.71 65.5 -8.92 0 -7.4 -16.12 -26.77 0 -7.3 16.12 -8.92 0 29.6 -65.5zm0 19.77l-10.14 22.41 20.28 0 -10.14 -22.41zm38.94 -17.33l8.62 0 0 54.44 20.48 0 0 8.62 -29.1 0 0 -63.06zm64.99 0l34.98 0 0 8.62 -26.36 0 0 15.61 26.36 0 0 8.62 -26.36 0 0 21.59 26.36 0 0 8.62 -34.98 0 0 -63.06zm83.65 7l-7 5.57c-1.83,-1.93 -3.45,-3.35 -4.97,-4.26 -1.52,-0.91 -3.65,-1.42 -6.49,-1.42 -3.14,0 -5.57,0.71 -7.5,2.13 -1.93,1.32 -2.94,3.14 -2.94,5.37 0,1.82 0.81,3.55 2.54,4.97 1.72,1.52 4.56,3.14 8.62,4.87 4.06,1.72 7.2,3.35 9.43,4.87 2.23,1.52 4.06,3.14 5.58,4.97 1.42,1.82 2.53,3.75 3.24,5.68 0.71,2.03 1.01,4.16 1.01,6.39 0,5.27 -1.93,9.74 -5.68,13.39 -3.85,3.75 -8.41,5.57 -13.89,5.57 -5.27,0 -9.94,-1.42 -13.99,-4.36 -4.06,-2.84 -7.1,-7.2 -9.33,-12.98l8.62 -2.43c3.14,7.1 7.91,10.65 14.4,10.65 3.04,0 5.68,-0.91 7.7,-2.84 2.13,-1.82 3.14,-4.16 3.14,-7 0,-1.72 -0.5,-3.44 -1.62,-5.17 -1.11,-1.72 -2.43,-3.14 -4.06,-4.26 -1.52,-1.11 -4.16,-2.33 -7.6,-3.85 -3.55,-1.52 -6.29,-2.84 -8.11,-4.06 -1.93,-1.22 -3.55,-2.64 -4.96,-4.26 -1.42,-1.62 -2.44,-3.35 -3.04,-4.97 -0.71,-1.62 -1.02,-3.45 -1.02,-5.27 0,-4.56 1.83,-8.42 5.48,-11.56 3.65,-3.14 8.01,-4.76 13.18,-4.76 3.45,0 6.89,0.71 10.44,2.23 3.55,1.52 6.49,3.75 8.82,6.8zm8.31 -7l38.73 0 0 8.62 -15.11 0 0 54.44 -8.62 0 0 -54.44 -15.01 0 0 -8.62z"/>
   <path class="fil3" d="M871.15 1320.06l29.71 65.5 -8.92 0 -7.4 -16.12 -26.77 0 -7.3 16.12 -8.92 0 29.6 -65.5zm0 19.77l-10.14 22.41 20.28 0 -10.14 -22.41z"/>
   <path class="fil3" d="M899.85 1322.5l38.73 0 0 8.62 -15.11 0 0 54.44 -8.62 0 0 -54.44 -15.01 0 0 -8.62zm47.56 0l34.98 0 0 8.62 -26.36 0 0 15.61 26.36 0 0 8.62 -26.36 0 0 21.59 26.36 0 0 8.62 -34.98 0 0 -63.06zm152.09 2.13l0 9.73c-6.8,-3.35 -13.08,-4.97 -18.76,-4.97 -7.3,0 -13.48,2.33 -18.55,7.1 -4.97,4.66 -7.5,10.54 -7.5,17.33 0,7.1 2.54,12.88 7.7,17.64 5.17,4.67 11.56,7 19.26,7 5.68,0 11.56,-1.72 17.85,-5.27l0 9.83c-5.68,3.04 -11.86,4.56 -18.56,4.56 -9.83,0 -18.15,-3.35 -25.04,-9.94 -7,-6.59 -10.44,-14.6 -10.44,-23.93 0,-9.13 3.45,-16.93 10.24,-23.52 6.8,-6.49 15.01,-9.73 24.64,-9.73 6.19,0 12.57,1.42 19.17,4.16zm7.6 29c0,-9.13 3.45,-16.93 10.34,-23.42 6.8,-6.49 15.11,-9.73 24.74,-9.73 9.43,0 17.44,3.24 24.33,9.83 6.8,6.49 10.14,14.3 10.14,23.32 0,9.43 -3.35,17.54 -10.04,24.13 -6.79,6.49 -15,9.83 -24.74,9.83 -9.63,0 -17.85,-3.35 -24.64,-9.94 -6.8,-6.59 -10.14,-14.7 -10.14,-24.03zm60.43 0.41c0,-6.89 -2.54,-12.78 -7.5,-17.54 -5.07,-4.77 -11.25,-7.1 -18.55,-7.1 -7,0 -12.88,2.43 -17.85,7.3 -4.97,4.77 -7.5,10.65 -7.5,17.34 0,6.89 2.54,12.78 7.71,17.54 5.07,4.67 11.25,7.1 18.65,7.1 6.89,0 12.67,-2.43 17.64,-7.3 4.97,-4.87 7.4,-10.65 7.4,-17.34zm19.87 -34.07l46.64 47.85 0 -45.32 8.62 0 0 66 -46.64 -47.76 0 44.81 -8.62 0 0 -65.6zm106.66 9.53l-7 5.57c-1.83,-1.93 -3.45,-3.35 -4.97,-4.26 -1.52,-0.91 -3.65,-1.42 -6.49,-1.42 -3.14,0 -5.57,0.71 -7.5,2.13 -1.93,1.32 -2.94,3.14 -2.94,5.37 0,1.82 0.81,3.55 2.54,4.97 1.72,1.52 4.56,3.14 8.62,4.87 4.06,1.72 7.2,3.35 9.43,4.87 2.23,1.52 4.06,3.14 5.58,4.97 1.42,1.82 2.53,3.75 3.24,5.68 0.71,2.03 1.01,4.16 1.01,6.39 0,5.27 -1.93,9.74 -5.68,13.39 -3.85,3.75 -8.41,5.57 -13.89,5.57 -5.27,0 -9.94,-1.42 -13.99,-4.36 -4.06,-2.84 -7.1,-7.2 -9.33,-12.98l8.62 -2.43c3.14,7.1 7.91,10.65 14.4,10.65 3.04,0 5.68,-0.91 7.7,-2.84 2.13,-1.82 3.14,-4.16 3.14,-7 0,-1.72 -0.5,-3.44 -1.62,-5.17 -1.11,-1.72 -2.43,-3.14 -4.06,-4.26 -1.52,-1.11 -4.16,-2.33 -7.6,-3.85 -3.55,-1.52 -6.29,-2.84 -8.11,-4.06 -1.93,-1.22 -3.55,-2.64 -4.96,-4.26 -1.42,-1.62 -2.44,-3.35 -3.04,-4.97 -0.71,-1.62 -1.02,-3.45 -1.02,-5.27 0,-4.56 1.83,-8.42 5.48,-11.56 3.65,-3.14 8.01,-4.76 13.18,-4.76 3.45,0 6.89,0.71 10.44,2.23 3.55,1.52 6.49,3.75 8.82,6.8zm8.31 -7l38.73 0 0 8.62 -15.11 0 0 54.44 -8.62 0 0 -54.44 -15.01 0 0 -8.62zm49.58 0l13.69 0c6.8,0 12.37,1.72 16.63,5.07 4.26,3.35 6.39,7.71 6.39,12.98 0,4.16 -1.32,7.91 -4.16,11.15 -2.74,3.24 -7,5.47 -12.87,6.79l18.25 27.07 -9.83 0 -17.54 -25.96 -1.93 0 0 25.96 -8.62 0 0 -63.06zm8.62 7.6l0 22c12.67,0.3 19.06,-3.45 19.06,-11.05 0,-2.64 -0.71,-4.87 -2.23,-6.59 -1.52,-1.72 -3.45,-2.84 -5.88,-3.45 -2.54,-0.61 -6.19,-0.91 -10.95,-0.91zm40.45 -7.6l8.62 0 0 38.73c0,5.78 1.42,10.24 4.16,13.39 2.74,3.04 6.69,4.66 11.66,4.66 5.07,0 8.92,-1.42 11.76,-4.36 2.74,-2.84 4.16,-6.89 4.16,-12.17l0 -40.25 8.62 0 0 39.64c0,7.7 -2.23,13.89 -6.59,18.56 -4.46,4.56 -10.24,6.89 -17.64,6.89 -7.5,0 -13.48,-2.33 -17.94,-7 -4.56,-4.76 -6.79,-11.66 -6.79,-20.78l0 -37.31zm112.54 2.13l0 9.73c-6.8,-3.35 -13.08,-4.97 -18.76,-4.97 -7.3,0 -13.48,2.33 -18.55,7.1 -4.97,4.66 -7.5,10.54 -7.5,17.33 0,7.1 2.54,12.88 7.7,17.64 5.17,4.67 11.56,7 19.26,7 5.68,0 11.56,-1.72 17.85,-5.27l0 9.83c-5.68,3.04 -11.86,4.56 -18.56,4.56 -9.83,0 -18.15,-3.35 -25.04,-9.94 -7,-6.59 -10.44,-14.6 -10.44,-23.93 0,-9.13 3.45,-16.93 10.24,-23.52 6.8,-6.49 15.01,-9.73 24.64,-9.73 6.19,0 12.57,1.42 19.17,4.16zm6.39 -2.13l38.73 0 0 8.62 -15.11 0 0 54.44 -8.62 0 0 -54.44 -15.01 0 0 -8.62zm48.06 0l8.62 0 0 63.06 -8.62 0 0 -63.06zm19.77 31.13c0,-9.13 3.45,-16.93 10.34,-23.42 6.8,-6.49 15.11,-9.73 24.74,-9.73 9.43,0 17.44,3.24 24.33,9.83 6.8,6.49 10.14,14.3 10.14,23.32 0,9.43 -3.35,17.54 -10.04,24.13 -6.79,6.49 -15,9.83 -24.74,9.83 -9.63,0 -17.85,-3.35 -24.64,-9.94 -6.8,-6.59 -10.14,-14.7 -10.14,-24.03zm60.43 0.41c0,-6.89 -2.54,-12.78 -7.5,-17.54 -5.07,-4.77 -11.25,-7.1 -18.55,-7.1 -7,0 -12.88,2.43 -17.85,7.3 -4.97,4.77 -7.5,10.65 -7.5,17.34 0,6.89 2.54,12.78 7.71,17.54 5.07,4.67 11.25,7.1 18.65,7.1 6.89,0 12.67,-2.43 17.64,-7.3 4.97,-4.87 7.4,-10.65 7.4,-17.34zm19.87 -34.07l46.64 47.85 0 -45.32 8.62 0 0 66 -46.64 -47.76 0 44.81 -8.62 0 0 -65.6zm123.9 2.54l8.62 0 0 63.06 -8.62 0 0 -63.06zm21.9 -2.54l46.64 47.85 0 -45.32 8.62 0 0 66 -46.64 -47.76 0 44.81 -8.62 0 0 -65.6zm62.86 2.54l9.13 0 19.77 44.71 20.07 -44.71 9.02 0 -29.2 65.09 -28.8 -65.09zm65.8 0l34.98 0 0 8.62 -26.36 0 0 15.61 26.36 0 0 8.62 -26.36 0 0 21.59 26.36 0 0 8.62 -34.98 0 0 -63.06zm83.65 7l-7 5.57c-1.83,-1.93 -3.45,-3.35 -4.97,-4.26 -1.52,-0.91 -3.65,-1.42 -6.49,-1.42 -3.14,0 -5.57,0.71 -7.5,2.13 -1.93,1.32 -2.94,3.14 -2.94,5.37 0,1.82 0.81,3.55 2.54,4.97 1.72,1.52 4.56,3.14 8.62,4.87 4.06,1.72 7.2,3.35 9.43,4.87 2.23,1.52 4.06,3.14 5.58,4.97 1.42,1.82 2.53,3.75 3.24,5.68 0.71,2.03 1.01,4.16 1.01,6.39 0,5.27 -1.93,9.74 -5.68,13.39 -3.85,3.75 -8.41,5.57 -13.89,5.57 -5.27,0 -9.94,-1.42 -13.99,-4.36 -4.06,-2.84 -7.1,-7.2 -9.33,-12.98l8.62 -2.43c3.14,7.1 7.91,10.65 14.4,10.65 3.04,0 5.68,-0.91 7.7,-2.84 2.13,-1.82 3.14,-4.16 3.14,-7 0,-1.72 -0.5,-3.44 -1.62,-5.17 -1.11,-1.72 -2.43,-3.14 -4.06,-4.26 -1.52,-1.11 -4.16,-2.33 -7.6,-3.85 -3.55,-1.52 -6.29,-2.84 -8.11,-4.06 -1.93,-1.22 -3.55,-2.64 -4.96,-4.26 -1.42,-1.62 -2.44,-3.35 -3.04,-4.97 -0.71,-1.62 -1.02,-3.45 -1.02,-5.27 0,-4.56 1.83,-8.42 5.48,-11.56 3.65,-3.14 8.01,-4.76 13.18,-4.76 3.45,0 6.89,0.71 10.44,2.23 3.55,1.52 6.49,3.75 8.82,6.8zm8.31 -7l38.73 0 0 8.62 -15.11 0 0 54.44 -8.62 0 0 -54.44 -15.01 0 0 -8.62zm100.28 -2.64l17.24 65.7 -8.31 0 -10.65 -40.25 -17.84 42.69 -18.05 -42.89 -10.54 40.45 -8.42 0 17.24 -65.7 19.67 47.04 19.67 -47.04zm25.45 2.64l34.98 0 0 8.62 -26.36 0 0 15.61 26.36 0 0 8.62 -26.36 0 0 21.59 26.36 0 0 8.62 -34.98 0 0 -63.06zm44.61 -2.54l46.64 47.85 0 -45.32 8.62 0 0 66 -46.64 -47.76 0 44.81 -8.62 0 0 -65.6zm64.28 2.54l38.73 0 0 8.62 -15.11 0 0 54.44 -8.62 0 0 -54.44 -15.01 0 0 -8.62z"/>
   <line class="fil4 str0" x1="1017.58" y1="1300.61" x2="1017.58" y2= "1410.83" />
   <line class="fil4 str0" x1="1761.56" y1="1301.71" x2="1761.56" y2= "1411.93" />
   <path class="fil5" d="M1392.36 918.51c16.43,0 29.75,12.4 29.75,27.7 0,15.3 -13.32,27.7 -29.75,27.7 -16.42,0 -29.74,-12.4 -29.74,-27.7 0,-15.3 13.32,-27.7 29.74,-27.7z"/>
   <path class="fil5" d="M1322.3 875.91c19.92,0 36.07,15.04 36.07,33.6 0,18.56 -16.15,33.59 -36.07,33.59 -19.93,0 -36.07,-15.04 -36.07,-33.59 0,-18.56 16.15,-33.6 36.07,-33.6z"/>
   <path class="fil5" d="M1393.98 914.86c17.4,0 31.51,13.14 31.51,29.35 0,16.21 -14.11,29.35 -31.51,29.35 -17.41,0 -31.52,-13.14 -31.52,-29.35 0,-16.21 14.11,-29.35 31.52,-29.35z"/>
   <path class="fil5" d="M1387.41 824.98c19.45,0 35.22,14.69 35.22,32.8 0,18.12 -15.78,32.81 -35.22,32.81 -19.45,0 -35.22,-14.69 -35.22,-32.81 0,-18.11 15.77,-32.8 35.22,-32.8z"/>
   <path class="fil5" d="M1478.82 325.3c20.43,0 37,15.43 37,34.46 0,19.03 -16.57,34.46 -37,34.46 -20.44,0 -37.01,-15.43 -37.01,-34.46 0,-19.04 16.57,-34.46 37.01,-34.46z"/>
   <path class="fil5" d="M1502.09 252.82c17.8,0 32.24,13.44 32.24,30.03 0,16.58 -14.44,30.02 -32.24,30.02 -17.81,0 -32.24,-13.44 -32.24,-30.02 0,-16.59 14.44,-30.03 32.24,-30.03z"/>
   <path class="fil5" d="M1575.04 283.83c9.28,0 16.81,7.01 16.81,15.66 0,8.65 -7.52,15.65 -16.81,15.65 -9.28,0 -16.81,-7.01 -16.81,-15.65 0,-8.65 7.53,-15.66 16.81,-15.66z"/>
   <path class="fil5" d="M1411.24 285.69c18.52,0 33.52,13.98 33.52,31.22 0,17.24 -15,31.22 -33.52,31.22 -18.51,0 -33.52,-13.98 -33.52,-31.22 0,-17.24 15.01,-31.22 33.52,-31.22z"/>
   <path class="fil5" d="M1454.65 204.68c14.44,0 26.16,10.91 26.16,24.36 0,13.45 -11.71,24.36 -26.16,24.36 -14.44,0 -26.16,-10.91 -26.16,-24.36 0,-13.46 11.71,-24.36 26.16,-24.36z"/>
   <path class="fil5" d="M1406.59 234.05c10.76,0 19.5,8.13 19.5,18.16 0,10.03 -8.74,18.16 -19.5,18.16 -10.77,0 -19.5,-8.13 -19.5,-18.16 0,-10.03 8.73,-18.16 19.5,-18.16z"/>
   <path class="fil5" d="M1345.02 228.8c21.51,0 38.95,16.24 38.95,36.28 0,20.04 -17.44,36.28 -38.95,36.28 -21.52,0 -38.96,-16.24 -38.96,-36.28 0,-20.04 17.44,-36.28 38.96,-36.28z"/>
   <path class="fil5" d="M1470.59 820.62c11.96,0 21.67,9.03 21.67,20.17 0,11.14 -9.7,20.18 -21.67,20.18 -11.96,0 -21.67,-9.04 -21.67,-20.18 0,-11.14 9.7,-20.17 21.67,-20.17z"/>
   <path class="fil5" d="M1428 883.79c8.67,0 15.7,6.54 15.7,14.62 0,8.07 -7.03,14.62 -15.7,14.62 -8.67,0 -15.7,-6.55 -15.7,-14.62 0,-8.07 7.03,-14.62 15.7,-14.62z"/>
   <path class="fil5" d="M1446.52 948.25c8.68,0 15.7,6.55 15.7,14.62 0,8.07 -7.03,14.62 -15.7,14.62 -8.67,0 -15.69,-6.55 -15.69,-14.62 0,-8.07 7.02,-14.62 15.69,-14.62z"/>
   <path class="fil5" d="M1338.18 956.61c12.26,0 22.19,9.25 22.19,20.67 0,11.41 -9.93,20.67 -22.19,20.67 -12.26,0 -22.19,-9.25 -22.19,-20.67 0,-11.41 9.93,-20.67 22.19,-20.67z"/>
   <path class="fil5" d="M1271.18 929.06c12.25,0 22.18,9.25 22.18,20.67 0,11.41 -9.93,20.67 -22.18,20.67 -12.26,0 -22.19,-9.25 -22.19,-20.67 0,-11.41 9.93,-20.67 22.19,-20.67z"/>
   <path class="fil5" d="M1278.75 789.28c22.38,0 40.53,16.9 40.53,37.74 0,20.85 -18.15,37.74 -40.53,37.74 -22.38,0 -40.53,-16.9 -40.53,-37.74 0,-20.85 18.15,-37.74 40.53,-37.74z"/>
   <path class="fil5" d="M1146.91 746.41c25.31,0 45.83,19.11 45.83,42.69 0,23.57 -20.52,42.69 -45.83,42.69 -25.31,0 -45.83,-19.11 -45.83,-42.69 0,-23.57 20.52,-42.69 45.83,-42.69z"/>
   <path class="fil5" d="M1217.38 799.71c9.14,0 16.55,6.9 16.55,15.41 0,8.51 -7.41,15.41 -16.55,15.41 -9.14,0 -16.55,-6.9 -16.55,-15.41 0,-8.51 7.41,-15.41 16.55,-15.41z"/>
   <path class="fil5" d="M1234.51 747.69c13.36,0 24.19,10.09 24.19,22.53 0,12.44 -10.83,22.53 -24.19,22.53 -13.36,0 -24.19,-10.09 -24.19,-22.53 0,-12.44 10.83,-22.53 24.19,-22.53z"/>
   <path class="fil5" d="M1226.15 861.56c20.74,0 37.56,15.66 37.56,34.98 0,19.32 -16.81,34.98 -37.56,34.98 -20.74,0 -37.56,-15.66 -37.56,-34.98 0,-19.32 16.81,-34.98 37.56,-34.98z"/>
   <path class="fil5" d="M1187.82 935.24c18.57,0 33.63,14.02 33.63,31.32 0,17.3 -15.06,31.32 -33.63,31.32 -18.57,0 -33.64,-14.02 -33.64,-31.32 0,-17.3 15.06,-31.32 33.64,-31.32z"/>
   <path class="fil5" d="M1133.33 872.46c21.45,0 38.85,16.2 38.85,36.18 0,19.98 -17.39,36.17 -38.85,36.17 -21.45,0 -38.84,-16.2 -38.84,-36.17 0,-19.98 17.39,-36.18 38.84,-36.18z"/>
   <path class="fil5" d="M1063.66 918.42c18.02,0 32.65,13.61 32.65,30.41 0,16.8 -14.62,30.41 -32.65,30.41 -18.03,0 -32.65,-13.61 -32.65,-30.41 0,-16.8 14.62,-30.41 32.65,-30.41z"/>
   <path class="fil5" d="M1070.81 819.2c20.13,0 36.44,15.19 36.44,33.93 0,18.74 -16.31,33.94 -36.44,33.94 -20.12,0 -36.43,-15.19 -36.43,-33.94 0,-18.74 16.31,-33.93 36.43,-33.93z"/>
   <path class="fil5" d="M1022.32 872.69c8.46,0 15.32,6.39 15.32,14.27 0,7.88 -6.86,14.27 -15.32,14.27 -8.46,0 -15.33,-6.39 -15.33,-14.27 0,-7.88 6.86,-14.27 15.33,-14.27z"/>
   <path class="fil5" d="M1035.44 730.2c22.93,0 41.52,17.32 41.52,38.68 0,21.36 -18.59,38.68 -41.52,38.68 -22.93,0 -41.53,-17.31 -41.53,-38.68 0,-21.36 18.59,-38.68 41.53,-38.68z"/>
   <path class="fil5" d="M1100.47 662.1c19.67,0 35.63,14.86 35.63,33.19 0,18.33 -15.96,33.18 -35.63,33.18 -19.67,0 -35.63,-14.85 -35.63,-33.18 0,-18.33 15.96,-33.19 35.63,-33.19z"/>
   <path class="fil5" d="M1192.06 681.83c19.67,0 35.63,14.86 35.63,33.19 0,18.33 -15.95,33.19 -35.63,33.19 -19.68,0 -35.63,-14.86 -35.63,-33.19 0,-18.33 15.95,-33.19 35.63,-33.19z"/>
   <path class="fil5" d="M1213.66 606.21c19.67,0 35.63,14.85 35.63,33.18 0,18.33 -15.96,33.19 -35.63,33.19 -19.67,0 -35.63,-14.86 -35.63,-33.19 0,-18.33 15.95,-33.18 35.63,-33.18z"/>
   <path class="fil5" d="M1140.16 615.08c14.07,0 25.48,10.62 25.48,23.72 0,13.1 -11.41,23.72 -25.48,23.72 -14.07,0 -25.48,-10.62 -25.48,-23.72 0,-13.1 11.41,-23.72 25.48,-23.72z"/>
   <path class="fil5" d="M1061.87 630.54c7.69,0 13.93,5.81 13.93,12.98 0,7.17 -6.24,12.98 -13.93,12.98 -7.7,0 -13.94,-5.81 -13.94,-12.98 0,-7.17 6.24,-12.98 13.94,-12.98z"/>
   <path class="fil5" d="M1033.76 657.74c13.69,0 24.8,10.34 24.8,23.09 0,12.75 -11.11,23.09 -24.8,23.09 -13.69,0 -24.79,-10.34 -24.79,-23.09 0,-12.75 11.1,-23.09 24.79,-23.09z"/>
   <path class="fil5" d="M1109.62 590.8c7.7,0 13.94,5.81 13.94,12.98 0,7.17 -6.24,12.98 -13.94,12.98 -7.7,0 -13.94,-5.81 -13.94,-12.98 0,-7.17 6.24,-12.98 13.94,-12.98z"/>
   <path class="fil5" d="M1142.39 499.52c7.7,0 13.94,5.81 13.94,12.98 0,7.17 -6.24,12.98 -13.94,12.98 -7.7,0 -13.94,-5.81 -13.94,-12.98 0,-7.17 6.24,-12.98 13.94,-12.98z"/>
   <path class="fil5" d="M1030.51 542.11c7.69,0 13.93,5.81 13.93,12.98 0,7.17 -6.24,12.98 -13.93,12.98 -7.7,0 -13.94,-5.81 -13.94,-12.98 0,-7.17 6.24,-12.98 13.94,-12.98z"/>
   <path class="fil5" d="M1089.96 503.65c19.67,0 35.63,14.86 35.63,33.19 0,18.33 -15.95,33.19 -35.63,33.19 -19.68,0 -35.63,-14.86 -35.63,-33.19 0,-18.33 15.95,-33.19 35.63,-33.19z"/>
   <path class="fil5" d="M1212.61 475.56c19.67,0 35.63,14.86 35.63,33.19 0,18.33 -15.95,33.19 -35.63,33.19 -19.68,0 -35.63,-14.86 -35.63,-33.19 0,-18.33 15.95,-33.19 35.63,-33.19z"/>
   <path class="fil5" d="M1165.08 540.04c16.09,0 29.14,12.15 29.14,27.14 0,14.99 -13.05,27.14 -29.14,27.14 -16.09,0 -29.15,-12.15 -29.15,-27.14 0,-14.99 13.06,-27.14 29.15,-27.14z"/>
   <path class="fil5" d="M1056.11 576.69c12.46,0 22.57,9.41 22.57,21.02 0,11.61 -10.11,21.02 -22.57,21.02 -12.46,0 -22.57,-9.41 -22.57,-21.02 0,-11.61 10.11,-21.02 22.57,-21.02z"/>
   <path class="fil5" d="M1228.96 552.33c12.46,0 22.57,9.41 22.57,21.02 0,11.61 -10.11,21.02 -22.57,21.02 -12.47,0 -22.57,-9.41 -22.57,-21.02 0,-11.61 10.1,-21.02 22.57,-21.02z"/>
   <path class="fil5" d="M1238.8 347.63c26.1,0 47.26,19.7 47.26,44.02 0,24.31 -21.16,44.02 -47.26,44.02 -26.1,0 -47.26,-19.7 -47.26,-44.02 0,-24.31 21.16,-44.02 47.26,-44.02z"/>
   <path class="fil5" d="M1098.97 402.4c20.59,0 37.27,15.54 37.27,34.71 0,19.17 -16.68,34.7 -37.27,34.7 -20.57,0 -37.26,-15.54 -37.26,-34.7 0,-19.17 16.69,-34.71 37.26,-34.71z"/>
   <path class="fil5" d="M1037.02 447.29c12.58,0 22.78,9.5 22.78,21.22 0,11.72 -10.2,21.22 -22.78,21.22 -12.58,0 -22.78,-9.5 -22.78,-21.22 0,-11.72 10.2,-21.22 22.78,-21.22z"/>
   <path class="fil5" d="M1042.36 329c20.59,0 37.27,15.54 37.27,34.71 0,19.17 -16.69,34.71 -37.27,34.71 -20.58,0 -37.26,-15.54 -37.26,-34.71 0,-19.17 16.69,-34.71 37.26,-34.71z"/>
   <path class="fil5" d="M1114.86 971.35c8.46,0 15.32,6.39 15.32,14.27 0,7.88 -6.86,14.27 -15.32,14.27 -8.46,0 -15.32,-6.39 -15.32,-14.27 0,-7.88 6.86,-14.27 15.32,-14.27z"/>
   <path class="fil5" d="M1486.63 882.53c19.83,0 35.91,14.98 35.91,33.45 0,18.47 -16.09,33.45 -35.91,33.45 -19.84,0 -35.92,-14.98 -35.92,-33.45 0,-18.47 16.08,-33.45 35.92,-33.45z"/>
   <path class="fil5" d="M1480.81 328.69c18.37,0 33.26,13.87 33.26,30.98 0,17.11 -14.89,30.98 -33.26,30.98 -18.37,0 -33.26,-13.87 -33.26,-30.98 0,-17.11 14.89,-30.98 33.26,-30.98z"/>
   <path class="fil5" d="M1502.09 251.87c18.37,0 33.26,13.87 33.26,30.98 0,17.11 -14.89,30.98 -33.26,30.98 -18.37,0 -33.26,-13.87 -33.26,-30.98 0,-17.11 14.89,-30.98 33.26,-30.98z"/>
   <path class="fil5" d="M1291.49 198.66c11.65,0 21.08,8.79 21.08,19.64 0,10.85 -9.44,19.64 -21.08,19.64 -11.64,0 -21.09,-8.79 -21.09,-19.64 0,-10.85 9.44,-19.64 21.09,-19.64z"/>
   <path class="fil5" d="M1280.4 257.57c6.69,0 12.1,5.05 12.1,11.27 0,6.22 -5.41,11.27 -12.1,11.27 -6.68,0 -12.09,-5.05 -12.09,-11.27 0,-6.22 5.42,-11.27 12.09,-11.27z"/>
   <path class="fil5" d="M1235.6 281.92c12.24,0 22.17,9.24 22.17,20.65 0,11.4 -9.93,20.65 -22.17,20.65 -12.24,0 -22.17,-9.24 -22.17,-20.65 0,-11.4 9.93,-20.65 22.17,-20.65z"/>
   <path class="fil5" d="M1190.8 294.4c7.58,0 13.72,5.72 13.72,12.78 0,7.06 -6.14,12.78 -13.72,12.78 -7.58,0 -13.72,-5.72 -13.72,-12.78 0,-7.06 6.14,-12.78 13.72,-12.78z"/>
   <path class="fil5" d="M1144.76 317.77c17.23,0 31.2,13.01 31.2,29.05 0,16.04 -13.97,29.05 -31.2,29.05 -17.22,0 -31.19,-13.01 -31.19,-29.05 0,-16.04 13.97,-29.05 31.19,-29.05z"/>
   <path class="fil5" d="M1036.35 243.32c20.58,0 37.27,15.54 37.27,34.71 0,19.17 -16.69,34.71 -37.27,34.71 -20.57,0 -37.26,-15.54 -37.26,-34.71 0,-19.17 16.69,-34.71 37.26,-34.71z"/>
   <path class="fil5" d="M1095.43 188.07c20.59,0 37.27,15.54 37.27,34.71 0,19.17 -16.69,34.71 -37.27,34.71 -20.58,0 -37.26,-15.54 -37.26,-34.71 0,-19.17 16.69,-34.71 37.26,-34.71z"/>
   <path class="fil5" d="M1220.06 199.82c20.57,0 37.26,15.54 37.26,34.71 0,19.17 -16.69,34.71 -37.26,34.71 -20.59,0 -37.27,-15.54 -37.27,-34.71 0,-19.17 16.69,-34.71 37.27,-34.71z"/>
   <path class="fil5" d="M1153.01 245.18c12.24,0 22.17,9.24 22.17,20.65 0,11.4 -9.93,20.65 -22.17,20.65 -12.25,0 -22.17,-9.24 -22.17,-20.65 0,-11.4 9.92,-20.65 22.17,-20.65z"/>
   <path class="fil5" d="M1107.06 277.22c7.58,0 13.72,5.72 13.72,12.78 0,7.06 -6.14,12.78 -13.72,12.78 -7.58,0 -13.72,-5.72 -13.72,-12.78 0,-7.06 6.14,-12.78 13.72,-12.78z"/>
   <path class="fil5" d="M1029.46 209.61c7.57,0 13.72,5.72 13.72,12.78 0,7.06 -6.15,12.78 -13.72,12.78 -7.58,0 -13.73,-5.72 -13.73,-12.78 0,-7.06 6.15,-12.78 13.73,-12.78z"/>
   <path class="fil5" d="M1323.33 318.52c18.85,0 34.13,14.24 34.13,31.8 0,17.56 -15.28,31.79 -34.13,31.79 -18.85,0 -34.13,-14.24 -34.13,-31.79 0,-17.56 15.29,-31.8 34.13,-31.8z"/>
   <path class="fil5" d="M1172.76 422.88c12.47,0 22.57,9.41 22.57,21.02 0,11.61 -10.1,21.02 -22.57,21.02 -12.47,0 -22.57,-9.41 -22.57,-21.02 0,-11.61 10.11,-21.02 22.57,-21.02z"/>
   <path class="fil5" d="M1444.1 801.06c7.04,0 17.56,-3.78 24.08,-6.87 7.02,-3.32 12.42,-7.69 17.81,-13.15l22.98 -22.42c0.82,-0.82 0.76,-0.7 1.57,-1.53l6.36 -6.02c0.16,-0.14 0.39,-0.34 0.54,-0.49 0.15,-0.15 0.37,-0.36 0.51,-0.52l18.61 -18.53c0.14,-0.15 0.35,-0.38 0.5,-0.54l1.03 -1.03c0.22,-0.2 0.87,-0.77 1.09,-0.97l74.64 -72.9c0.51,-0.48 1.31,-1.36 1.5,-1.6l1.79 -3.36c0.05,-0.37 0.19,-0.49 0.33,-0.71l-3.71 -4.55c-0.15,-0.15 -0.38,-0.35 -0.53,-0.5l-9.43 -10.18c-1.46,-1.33 -2.64,-2.09 -3.91,-3.31 -13.87,-13.27 -10.3,-11.98 -21.87,-0.27l-41.41 41.13c-0.16,0.15 -0.39,0.34 -0.54,0.49l-1.53 1.56c-0.86,0.92 -1.05,1.23 -1.94,2.19l-24.6 23.89c-0.15,0.15 -0.36,0.37 -0.51,0.52 -0.15,0.15 -0.37,0.36 -0.52,0.51 -7,6.71 -15.02,12.63 -21.26,20.02l-13.41 13.41c-0.3,0.33 -1.39,1.55 -1.47,1.63l-3.07 3.11c-1.86,2.05 -0.12,0.68 -2.48,2.67l-4.52 3.74c-0.57,0.64 -1.21,1.46 -1.85,2.27 -2.53,3.21 -5.15,4.14 -8.5,6.41l-0.79 0.65c-0.09,0.06 -0.31,0.24 -0.42,0.31 -12.53,7.39 -29.35,1.2 -33.47,-11.27 -2.59,-7.82 -3.06,-7.93 -0.28,-16.85 2.89,-9.27 12.1,-15.93 19,-22.27l29.55 -29.26c1.65,-1.77 2.9,-3 4.66,-4.63l5.33 -4.98c0.15,-0.15 0.37,-0.36 0.53,-0.5l9.57 -9c1.06,-1.16 3.38,-4.24 3.38,-5.91 0,-2.37 -7.56,-10.26 -9.59,-12.09 -1.93,-1.75 -1.52,-0.9 -3.52,-2.67l-7.02 -7.43c-2.76,-2.74 -4.46,-3.94 -7.73,-5.67l-23.18 20.16c-1.41,1.71 -1.44,1.76 -2.89,3.31l-6.31 6.07c-5.43,4.15 -9.34,9.76 -14.64,14.24l-1.12 0.95c-4.35,4.02 -7.43,8.93 -12.22,12.54l-9.59 8.97c-4.32,3.41 -11.27,14.88 -13.72,20.33 -0.43,0.97 -0.59,1.69 -0.78,2.31 -1.41,4.86 -4.28,15.29 -4.28,20.47 0,13.53 0.32,8.5 1.22,11.15 3.46,10.17 1.8,19.68 14.67,33.82l2.02 2.12c0.81,0.88 0.67,0.78 1.46,1.63 4.91,5.33 18.8,14.93 27.49,16.88l26.4 2.48z"/>
   <path class="fil5" d="M1573.07 508.04c-0.57,6.86 -9.15,10.49 -13.41,15.47l-15.13 14.8c-2.08,2.08 -2.06,3.63 -4.72,5.49 -3.85,2.68 -0.81,-1.73 -4.89,3.39l-32.73 32.34c-10.76,9.43 2.67,12.35 9.44,20.91l10.78 10.89c2.48,2.3 1.01,1.26 4.24,2.97 2.57,-1.72 2.59,-2.14 4.76,-4.52l34.86 -33.23c0.15,-0.15 0.37,-0.37 0.51,-0.52l17.13 -16.92c2.35,-2.35 2.33,-3.03 5,-5.32l31.63 -30.28c8.37,-7.29 30.02,-31.51 41.54,-41 10.19,-8.38 28.54,-6.04 35.44,5.29 4.25,6.98 4.54,12.78 2.64,20.41 -1.05,4.19 -1.11,3.28 -3.7,6.62l-33.72 34.37c-0.14,0.16 -0.35,0.38 -0.5,0.53 -4.33,4.49 -9.11,7.97 -12.97,12.83 -2.05,2.58 -21.5,17.67 -21.5,21.82 0,5.21 2.76,5.79 6.45,9.02l21.41 19.87c11.5,-7.71 20,-19.25 30.17,-28.64l19.46 -18.72c0.15,-0.15 0.36,-0.37 0.52,-0.52l11.17 -10.5c1.31,-1.35 1.81,-1.71 3.21,-2.98 12.29,-11.11 23.17,-26.24 23.17,-43.89 0,-9.07 1.09,-20.37 -2.54,-28.41 -3.23,-7.16 -5.1,-12.41 -9.51,-18.34l-8.91 -9.67c-2.03,-1.91 -6.64,-4.72 -9.19,-6.29l-4.53 -2.69c-1.94,-1.08 -4.02,-1.94 -5.7,-2.55 -16.84,-6.15 -34.74,-6.89 -51.48,-0.18l-14.91 8.83c-0.17,0.14 -0.4,0.33 -0.56,0.47l-49.85 49.2c-3.12,2.92 -8.85,9.28 -13.07,9.63z"/>
   <path class="fil5" d="M1720.16 786.17c12.58,-9.72 23.15,-26.37 23.15,-42.89 0,-9.46 1.03,-19.72 -2.48,-28.47l-2.35 -5.9c-2.83,-7.28 -7.59,-11.42 -12.3,-17.62l-21.74 -21.6c-0.15,-0.14 -0.39,-0.33 -0.56,-0.47l-9.97 -9.64c-0.15,-0.15 -0.36,-0.38 -0.5,-0.53l-9.31 -9.26c-1.39,-1.46 -1.08,-1.28 -2.58,-2.58l-15.22 -14.7c-1.77,-1.79 -1.1,-1.45 -2.75,-3.44l-21.97 -21.36c-0.15,-0.15 -0.37,-0.36 -0.52,-0.51 -0.02,-0.02 -1.33,-1.18 -1.64,-1.46 -2.62,-2.41 -3.13,-3.01 -6.09,-5.26 -3.7,-2.83 -3.2,-3.38 -5.88,-6.5l-18.03 -17.05c-3.3,-3.04 -14.81,-17.05 -18.63,-16.76 -3.82,0.3 -2.53,0.89 -3.85,1.91 -1.64,1.26 -1.41,1.21 -2.77,2.47l-12.28 11.45c-2.09,2.3 -2.74,3.52 -5.3,6.05 -2.19,2.17 -3.84,3.5 -3.84,7.51 0,0.53 8.22,7.69 9.55,9.02 1.88,1.87 2.67,2.79 4.5,4.78l4.26 4c10.78,10.08 12.12,12.28 18.87,19.87l0.82 0.79c0.12,0.1 0.38,0.28 0.52,0.39l7.3 6.12c0.15,0.15 0.35,0.38 0.5,0.54l6.6 6.81c3.09,3.37 6.07,4.76 9.42,8.13l71.34 71.04c4.25,5.96 4.58,12.8 4.58,20.19 0,3.37 -6.23,10.57 -8.87,12.8 -4.38,3.71 -13.44,6.48 -19.02,4.78l-23.69 -16.54c-0.27,-0.28 -1.59,-2.02 -2.33,-2.83 -1.62,-1.79 -2.91,-2.91 -4.64,-4.64 -3.33,-3.33 -6.32,-6.73 -9.86,-9.74 -1.46,-1.25 -1.65,-1.23 -2.84,-2.31l-7.33 -7.11c-0.86,-0.91 -0.64,-0.78 -1.48,-1.62l-8.41 -8.1c-5,-5.01 -14.87,-16 -19.86,-19.35 -7.25,1.94 -19.92,16.34 -25.92,22.58 -0.15,0.16 -0.36,0.37 -0.51,0.52l-3.5 3.73c1.12,4.8 3.31,5.89 6.65,8.82l61.18 59.53c1.31,1.29 1.81,1.83 3.17,3.03 8.13,7.19 18.17,13.14 29.01,14.32 4.92,0.54 5.44,2 10.39,2 10.72,0 13.47,-0.61 23.3,-2.49 8.96,-1.71 15.61,-6.4 22.54,-11.5l1.17 -0.9z"/>
   <path class="fil5" d="M1370.85 494.63c0,11.83 -0.31,19.58 4.11,30.96l2.79 4.43c1.95,2.79 2.61,5.06 4.74,7.65l9.91 10.72c0.16,0.15 0.37,0.36 0.52,0.51 0.16,0.15 0.37,0.37 0.52,0.52l8.02 8.48c1.37,1.22 2.02,1.78 3.27,2.92l11.41 11.29c0.16,0.14 0.39,0.33 0.56,0.47l14.3 13.56c1.25,1.38 1.74,1.88 3.03,3.16l24.94 24.58c5.41,5.76 6.24,3.63 6.79,8.69 5.45,0.59 1.07,-0.56 4.02,2.18 12.85,11.93 33.2,31.2 43.76,42.9 3.92,4.33 7.04,6.94 12.07,9.6l8.19 -8.32c0.62,-0.65 0.45,-0.55 1.52,-1.57l3.89 -3.33c1.65,-1.48 1.67,-1.61 3,-3.19l6.78 -6.63c7.39,-6.24 0.05,-10.27 -4.72,-15.24l-17.81 -17.26c-3.26,-2.83 -6.38,-6.08 -9.28,-9.29l-3.94 -4.31c-1.92,-2.02 -2.58,-2.31 -4.79,-4.5l-76.96 -75.74c-0.45,-0.52 -1.76,-2.22 -1.83,-2.29 -2.22,-2.37 -2.56,-1.45 -5.43,-3.85l-5.94 -7.47c-2.21,-3.05 -5.13,-10.66 -5.13,-13.44 0,-1.52 2.14,-7.98 2.82,-9.56 2.38,-5.57 6.91,-11.24 13.05,-12.75 19.8,-4.86 26.81,6.83 38.7,18.3l10 9.61c0.14,0.16 0.33,0.39 0.48,0.56l1.98 2.15c0.15,0.15 0.35,0.38 0.5,0.54l19.88 18.3c8.22,7.52 13.91,17.03 24.04,22.39 0.04,-0.04 0.81,-0.89 1.53,-1.56 1.35,-1.25 0.57,-0.55 1.65,-1.44l18.42 -17.7c2.45,-2.31 5.36,-4.83 6.26,-8.19 -1.52,-2.27 -3.25,-4.29 -5.18,-6.18l-27.38 -26.27c-0.15,-0.15 -0.35,-0.38 -0.5,-0.53l-10.67 -11c-0.5,-0.43 -1.19,-1.08 -1.62,-1.47 -1.2,-1.11 -2.06,-1.84 -3.13,-3.07l-15.09 -14.82c-1.43,-1.31 -1.87,-1.65 -3.24,-2.95 -2.37,-2.24 -3.81,-4.08 -6.29,-6.09 -7.44,-6.05 -23.56,-14.28 -34.21,-14.28 -20.34,0 -33.3,2.9 -48.52,15.46l-11.78 11.95c-6.66,8.53 -13.99,21.02 -13.99,32.44z"/>
   <path class="fil5" d="M1518.39 478.12c0,2.73 1.46,2.88 2.96,4.26l18.71 18.43c2.88,3.31 5.96,3.56 7.21,8.26 2.76,-0.23 2.51,0.82 5.79,-3.5l1.24 -1.85c0.26,-0.39 1.12,-1.81 1.2,-1.9 2.43,-2.78 -0.68,-1.64 4.15,-2.04 0.74,6.83 3.38,1.43 4.12,8.26 3.5,-0.08 3.33,0.11 5.71,-1.51l24.45 -24.04c6.6,-5.98 4.03,-7.52 -4.52,-23.81l-25.8 -67.79 -5 -22.13c-5.8,4.25 -3.75,10.66 -5.84,15.9l-1.35 2.14c-0.06,0.11 -0.2,0.37 -0.25,0.48 -0.41,1.04 -2.98,15.6 -7.8,26.82l-0.94 3.6c-0.2,0.68 -0.55,1.53 -0.76,2.14l-7.5 19.96c-3.67,10.57 -8.41,20.33 -14.03,29.76 -1.44,2.41 -1.76,5.01 -1.76,8.56z"/>
   <path class="fil5" d="M1557.59 737.09c-3.83,-2.56 -3.96,-4.31 -5.28,-6.16 -3.98,-5.62 -6.87,-1 -11.61,3.72 -1.25,1.25 -0.4,0.5 -1.57,1.52l-7.33 7.12c-7.58,5.59 -2.81,2.92 -6.95,7.49 -2.77,3.06 -9.69,5.46 -6.55,13.11 1.49,3.61 0.55,0.8 3.11,4.22l23.09 56.35c1.33,4.22 1.72,2.44 3.52,10.92 0.97,4.57 2.17,7.19 3.39,11.04 1.45,4.55 2.61,17.31 7.2,20.67 3.06,-6.38 2.68,-13.97 5.55,-22.31l6.84 -21.02c2.5,-6.73 5.93,-20.57 9.53,-26.57 2.38,-3.96 3.16,-8.62 5.43,-13.14 14.65,-29.14 14.22,-22.41 5.24,-33.12 -2.35,-2.8 -5.25,-4.32 -8.11,-7.37 -1.54,-1.64 -2.36,-3.02 -3.8,-4.46 -3.01,-3.01 -10.24,-8.09 -11.39,-11.3 -7.09,0.59 -6.14,6.23 -10.32,9.28z"/>
   <path class="fil5" d="M1670.06 612.25c1.7,0.4 0.48,-0.12 2.46,0.63l3.38 1.92c0.15,0.14 0.38,0.37 0.5,0.52l0.74 1.07c2.44,5.13 -3.78,5.63 -4.27,5.9 -3.43,1.93 -2.39,2.27 -3.86,4.39l24.07 24.42c7.03,7.65 9.14,1.44 28.97,-7.48l12.24 -5.3c13.92,-6.26 7.98,-2.8 19.07,-6.73 0.35,-0.13 2.26,-0.8 3.03,-1.09l37.93 -9.53c2.99,-0.7 5.23,-0.91 7.78,-1.51 -3.33,-4.97 -10.86,-5.33 -18.42,-6.34l-38.97 -11.58c-13.19,-5.06 -4,-0.46 -18.61,-7.19 -6.11,-2.82 -10.95,-5.3 -16.74,-8.02 -2.57,-1.2 -5.56,-3.3 -8.31,-4.04 -2.75,-0.74 -5.02,-0.1 -6.92,2.38 -3.91,5.11 -11.67,10.5 -16.37,15.69 -1.17,1.29 -1.45,1.92 -2.82,3.37 -3.31,3.5 -4.77,2.7 -4.89,8.52z"/>
   <path class="fil5" d="M1313.07 619.47c2.33,1.12 1.26,0.37 3.19,0.94l1.59 0.46c10.29,3.33 6.26,1.03 15.54,3.04l13.71 3.83c4.8,1.54 21.33,5.5 26.06,7.99 1.94,1.02 3.31,1.76 5.66,2.6l18.5 7.29c2.52,1.23 3.66,1.98 6.05,3.24 10.43,5.5 10.43,9.76 20.72,0.14l14.3 -13.56c1.58,-1.44 2.41,-2.24 3.68,-3.54 1.28,-1.33 1.59,-2.22 4.09,-3.13 -0.54,-6.5 -6.3,-4.83 -10.31,-10.32l5.67 -3.61c2.74,-1.63 3.84,-2.67 4.64,-5.67 -3.12,-1.13 -10.59,-10 -13.17,-12.63l-12.62 -14.2c-4.5,0 -6.86,-0.27 -11.11,2.31 -0.19,0.12 -0.44,0.29 -0.63,0.41 -1,0.66 -0.45,0.37 -1.76,1.33l-44.03 18.9c-2.11,0.57 -5.19,1.06 -7.55,1.73l-2.3 0.8c-0.24,0.09 -0.48,0.22 -0.71,0.32l-25.18 6.8c-6.45,1.17 -10.92,0.28 -14.04,4.54z"/>
   <path class="fil5" d="M1461.64 548.28c0,5.25 6.27,8.83 12.64,15.22 17.31,17.36 13.09,20.63 36.78,-3.97l6.29 -7.12c-3.49,-5.22 -3.22,-4.21 -7.26,-8.21l-13.48 -13.34c-8.53,-8.87 -5.16,-5.45 -11.23,-8.37l-15.19 15.77c-2.55,2.11 -8.54,7.26 -8.54,10.03z"/>
   <path class="fil5" d="M1628.78 713.36c3.11,0 3.43,-3.38 7.33,-7.12l4.65 -4.63c1.31,-1.31 1.78,-1.58 3.18,-3.02l1.98 -2.15c5.17,-5.15 4.38,-5.95 7.62,-6.81 0,-5.61 0.02,-4.3 -4.43,-8.98 -1.45,-1.53 -2.06,-2.16 -3.49,-3.73 -0.1,-0.11 -1.44,-1.62 -1.46,-1.64l-2.33 -1.8c-2.01,-1.43 -13.25,-12.5 -14.08,-14.8 -3.52,0 -4.2,-0.01 -7.5,1.78 -4.22,2.28 -2.77,2.48 -5.66,5.69l-10.91 10.76c-9.64,8.48 -2.17,11.42 5.91,19.52 1.55,1.56 1.93,2.15 3.55,3.68 3.69,3.49 11.7,13.24 15.64,13.24z"/>
   <path class="fil5" d="M1461.64 685.5c0,6.75 11.21,13.55 17.95,22.29 5.34,6.91 8.06,6.33 11.35,2.89 1.44,-1.5 1.96,-2.28 3.44,-3.78l18.74 -17.37c4.46,-3.75 4.79,-5.11 -0.52,-10.64 -0.15,-0.15 -0.35,-0.37 -0.51,-0.52l-1.06 -1.01c-6.2,-5.8 -2.62,-4.07 -10.77,-10.9l-9.75 -7.79c-7.73,5.18 -7.66,4.72 -15.21,12.65 -2.19,2.3 -13.68,12.09 -13.68,14.18z"/>
   <path class="fil5" d="M1598.86 550.34l17.27 20.91c3.41,3.24 5.32,2.68 6.46,6.94 5.19,-0.43 5.82,-1.54 8.41,-3.97l15.83 -16.15c2.95,-2.95 5.57,-4.48 7.75,-7.74 -0.8,-2.96 -0.35,-1.72 -2.11,-4.09 -1.17,-1.59 -0.02,-0.04 -1.41,-1.67 -0.9,-1.05 -0.61,-0.75 -1.44,-1.65 -1.38,-1.49 -1.86,-1.77 -3.17,-3.02 -0.16,-0.15 -0.38,-0.35 -0.53,-0.5l-14.42 -14.47c-0.91,-1.1 -1.1,-1.59 -1.68,-2.45 -7.16,1.67 -6.36,3.79 -15.22,12.64l-15.74 15.22z"/>
   <path class="fil5" d="M1555.8 329.93c9.28,0 16.81,7.01 16.81,15.65 0,8.65 -7.52,15.66 -16.81,15.66 -9.29,0 -16.81,-7.01 -16.81,-15.66 0,-8.65 7.52,-15.65 16.81,-15.65z"/>
  </g>
 </g>
</svg>
