<?xml version="1.0" encoding="UTF-8"?>
<!DOCTYPE svg PUBLIC "-//W3C//DTD SVG 1.1//EN" "http://www.w3.org/Graphics/SVG/1.1/DTD/svg11.dtd">
<!-- Creator: CorelDRAW 2021 (64-Bit) -->
<svg xmlns="http://www.w3.org/2000/svg" xml:space="preserve" width="2.8in" height="1.6in" version="1.1" style="shape-rendering:geometricPrecision; text-rendering:geometricPrecision; image-rendering:optimizeQuality; fill-rule:evenodd; clip-rule:evenodd"
viewBox="0 0 2800 1600"
 xmlns:xlink="http://www.w3.org/1999/xlink"
 xmlns:xodm="http://www.corel.com/coreldraw/odm/2003">
 <defs>
  <style type="text/css">
   <![CDATA[
    .fil3 {fill:black;fill-rule:nonzero}
    .fil1 {fill:#890E11;fill-rule:nonzero}
    .fil0 {fill:#F1F1F2;fill-rule:nonzero}
    .fil2 {fill:#373435;fill-opacity:0.831373}
   ]]>
  </style>
 </defs>
<symbol id="Fm155-155-0" viewBox="2356.99 -3029.57 4564.11 6446.46">
 <polygon class="fil0" points="2356.99,3416.89 6921.1,3416.89 6921.1,-3029.57 2356.99,-3029.57 "/>
</symbol>
<symbol id="Fm343-343-0" viewBox="3501.85 -3042.26 3412.37 4040.38">
 <polygon class="fil0" points="3501.85,998.12 6914.22,998.12 6914.22,-3042.26 3501.85,-3042.26 "/>
</symbol>
<symbol id="Fm186-186-0" viewBox="1575.88 -2896.72 5284.85 5627.43">
 <polygon class="fil0" points="1575.88,2730.7 6860.73,2730.7 6860.73,-2896.72 1575.88,-2896.72 "/>
</symbol>
<symbol id="Fm376-376-0" viewBox="-3000.76 -2777.78 492.39 1337.7">
 <polygon class="fil1" points="-3000.76,-2777.78 -3000.76,-1440.08 -2742.24,-1686.29 -2508.36,-1440.08 -2508.36,-2777.78 "/>
</symbol>
 <g id="Layer_x0020_1">
  <metadata id="CorelCorpID_0Corel-Layer"/>
  <g id="_2779091691568">
   <path class="fil2" d="M1263.68 1056.4c-28.41,-7.76 -88.26,-76.25 -104.03,-102.24 -25.24,-41.59 -47.78,-94.25 -51.94,-155.19 -4.5,-65.74 8.11,-122.74 31.35,-173 18.77,-40.6 56.8,-93.55 90.3,-116.89l0.22 -41.76c-25.83,9.98 -59.79,51.08 -77.92,73.05 -76.94,93.25 -100.09,237.44 -57.87,355.77 118.85,333.07 590.33,336.66 712.53,2.08 43.2,-118.27 19.91,-262.29 -55.79,-356.25 -18.83,-23.37 -52.61,-63.8 -78.91,-74.78 -0.76,14.17 -1.8,29.62 1.95,43.19 74.73,65.15 128.1,159.37 119.55,288.6 -4.04,61.02 -25.26,109.85 -50.82,153.4 -18.44,31.43 -75.86,96.45 -104.78,104.05l-0.44 -312.48c-2.03,-5.88 -94.57,-55.91 -101.43,-56.24l-0.48 416.7 -33.5 5.71 -0.29 -645.11c-10.72,-7.39 -94.39,-53.37 -101.53,-54.53l-0.37 698.69 -33.58 -5.24 -0.23 -915.28c-14.21,-8.27 -90.84,-51.53 -101.66,-52.98l-0.31 920.74z"/>
   <path class="fil3" d="M656.03 1265.69l-25.67 0 0 119.33 25.67 0 0 -27.33 -13.67 0 0 -36.67 69 0 0 72.33 -36.67 27.67 -60.33 0 -38.67 -28 0 -135.33 36.67 -28 61.67 0 37.33 28 0 43.67 -55.33 0 0 -35.67zm78.67 -36l55.33 0 0 155.33 49.33 0 0 36 -104.67 0 0 -191.33zm174.33 36l0 119.33 22.67 0 0 -119.33 -22.67 0zm-19 -36l59.33 0 37 28 0 135.67 -35 27.67 -61.33 0 -36.33 -27.67 0 -135.67 36.33 -28zm201 36l-22 0 0 40.67 22 0 0 -40.67zm0 76.67l-22 0 0 42.67 22 0 0 -42.67zm25 -19.33l30.33 18.67 0 51.67 -36.33 27.67 -96.33 0 0 -191.33 96.33 0 32 24 0 50.67 -26 18.67zm113 -57.33l0 119.33 22.67 0 0 -119.33 -22.67 0zm-19 -36l59.33 0 37 28 0 135.67 -35 27.67 -61.33 0 -36.33 -27.67 0 -135.67 36.33 -28zm294.67 77.67l0 -77.67 54.67 0 0 191.33 -54.67 0 0 -77.67 -22.67 0 0 77.67 -55.33 0 0 -191.33 55.33 0 0 77.67 22.67 0zm137.33 -41.67l0 119.33 22.67 0 0 -119.33 -22.67 0zm-19 -36l59.33 0 37 28 0 135.67 -35 27.67 -61.33 0 -36.33 -27.67 0 -135.67 36.33 -28zm213.67 92.33l17.33 -92.33 65.33 0 0 191.33 -50.33 0 0 -121.33 -2.67 0 -22.67 121.33 -20.67 0 -23 -121.33 -2.67 0 0 121.33 -50 0 0 -191.33 64.67 0 19.33 92.33 5.33 0zm109.33 -92.33l101.67 0 0 36 -46.33 0 0 36 38.33 0 0 36 -38.33 0 0 47.33 47.67 0 0 36 -103 0 0 -191.33zm195.33 36l-23 0 0 39 39.67 2.67 38 27.67 0 58.33 -36 27.67 -61 0 -36 -27.67 0 -33.67 55.33 0 0 25.33 23 0 0 -40 -40 -2.67 -38.33 -27.33 0 -57.33 36.67 -28 57.67 0 37.33 28 0 33.67 -53.33 0 0 -25.67z"/>
  </g>
 </g>
</svg>
